{
.appVersion = "3200";
.storedFileType = com.glyphsapp.glyphspackage;
.formatVersion = 3;
DisplayStrings = (

glyphs = (
{
glyphname = A;
kernLeft = A;
kernRight = A;
layers = (
{
layerId = m01;
shapes = (
{
closed = 1;
nodes = (
(150,0,l),
(379,591,l),
(610,0,l),
(715,0,l),
(451,701,l),
(311,701,l),
(45,0,l)
);
},
{
closed = 1;
nodes = (
(567,210,l),
(567,300,l),
(187,300,l),
(187,210,l)
);
}
);
userData = {
com.hugojourdan.ColorFlow = {
"0" = 0;
"1" = 0;
"10" = 0;
"11" = 0;
"2" = 0;
"3" = 0;
"4" = 0;
"5" = 0;
"6" = 0;
"7" = 0;
"8" = 0;
"9" = 0;
};
};
width = 760;
},
{
layerId = m002;
shapes = (
{
closed = 1;
nodes = (
(157,0,l),
(386,591,l),
(617,0,l),
(722,0,l),
(458,701,l),
(318,701,l),
(52,0,l)
);
},
{
closed = 1;
nodes = (
(194,210,l),
(574,210,l),
(574,300,l),
(194,300,l)
);
}
);
userData = {
com.hugojourdan.ColorFlow = {
"0" = 0;
"1" = 0;
"10" = 0;
"11" = 0;
"2" = 0;
"3" = 0;
"4" = 0;
"5" = 0;
"6" = 0;
"7" = 0;
"8" = 0;
"9" = 0;
};
};
width = 774;
},
{
layerId = m003;
shapes = (
{
closed = 1;
nodes = (
(155,0,l),
(384,591,l),
(615,0,l),
(720,0,l),
(456,701,l),
(316,701,l),
(50,0,l)
);
},
{
closed = 1;
nodes = (
(192,210,l),
(572,210,l),
(572,300,l),
(192,300,l)
);
}
);
userData = {
com.hugojourdan.ColorFlow = {
"0" = 0;
"1" = 0;
"10" = 0;
"11" = 0;
"2" = 0;
"3" = 0;
"4" = 0;
"5" = 0;
"6" = 0;
"7" = 0;
"8" = 0;
"9" = 0;
};
};
width = 770;
}
);
metricLeft = "=H";
metricRight = "=H";
unicode = 65;
},
{
glyphname = B;
kernLeft = H;
kernRight = B;
layers = (
{
layerId = m01;
shapes = (
{
closed = 1;
nodes = (
(302,0,ls),
(478,0,o),
(563,67,o),
(563,212,cs),
(563,276,o),
(536,334,o),
(461,373,c),
(509,409,o),
(536,456,o),
(536,524,cs),
(536,640,o),
(444,700,o),
(302,700,cs),
(45,700,l),
(45,0,l)
);
},
{
closed = 1;
nodes = (
(150,327,l),
(302,327,ls),
(398,327,o),
(458,277,o),
(458,212,cs),
(458,136,o),
(413,91,o),
(302,90,cs),
(150,89,l)
);
},
{
closed = 1;
nodes = (
(150,610,l),
(302,610,ls),
(374,610,o),
(431,580,o),
(431,524,cs),
(431,452,o),
(391,417,o),
(302,417,cs),
(150,417,l)
);
}
);
userData = {
com.hugojourdan.ColorFlow = {
"0" = 0;
"1" = 0;
"10" = 0;
"11" = 0;
"2" = 0;
"3" = 0;
"4" = 0;
"5" = 0;
"6" = 0;
"7" = 0;
"8" = 0;
"9" = 0;
};
};
width = 588;
},
{
layerId = m002;
shapes = (
{
closed = 1;
nodes = (
(309,0,ls),
(485,0,o),
(570,67,o),
(570,212,cs),
(570,276,o),
(543,334,o),
(468,373,c),
(516,409,o),
(543,456,o),
(543,524,cs),
(543,640,o),
(451,700,o),
(309,700,cs),
(52,700,l),
(52,0,l)
);
},
{
closed = 1;
nodes = (
(157,327,l),
(309,327,ls),
(405,327,o),
(465,277,o),
(465,212,cs),
(465,136,o),
(420,91,o),
(309,90,cs),
(157,89,l)
);
},
{
closed = 1;
nodes = (
(157,610,l),
(309,610,ls),
(381,610,o),
(438,580,o),
(438,524,cs),
(438,452,o),
(398,417,o),
(309,417,cs),
(157,417,l)
);
}
);
userData = {
com.hugojourdan.ColorFlow = {
"0" = 0;
"1" = 0;
"10" = 0;
"11" = 0;
"2" = 0;
"3" = 0;
"4" = 0;
"5" = 0;
"6" = 0;
"7" = 0;
"8" = 0;
"9" = 0;
};
};
width = 613;
},
{
layerId = m003;
shapes = (
{
closed = 1;
nodes = (
(307,0,ls),
(483,0,o),
(568,67,o),
(568,212,cs),
(568,276,o),
(541,334,o),
(466,373,c),
(514,409,o),
(541,456,o),
(541,524,cs),
(541,640,o),
(449,700,o),
(307,700,cs),
(50,700,l),
(50,0,l)
);
},
{
closed = 1;
nodes = (
(155,327,l),
(307,327,ls),
(403,327,o),
(463,277,o),
(463,212,cs),
(463,136,o),
(418,91,o),
(307,90,cs),
(155,89,l)
);
},
{
closed = 1;
nodes = (
(155,610,l),
(307,610,ls),
(379,610,o),
(436,580,o),
(436,524,cs),
(436,452,o),
(396,417,o),
(307,417,cs),
(155,417,l)
);
}
);
userData = {
com.hugojourdan.ColorFlow = {
"0" = 0;
"1" = 0;
"10" = 0;
"11" = 0;
"2" = 0;
"3" = 0;
"4" = 0;
"5" = 0;
"6" = 0;
"7" = 0;
"8" = 0;
"9" = 0;
};
};
width = 598;
}
);
metricLeft = "=H";
metricRight = "=R";
unicode = 66;
},
{
glyphname = C;
kernLeft = O;
kernRight = O;
layers = (
{
layerId = m01;
shapes = (
{
closed = 1;
nodes = (
(571,260,l),
(555,187,o),
(487,82,o),
(347,82,cs),
(207,82,o),
(130,185,o),
(130,350,cs),
(130,515,o),
(207,618,o),
(347,618,cs),
(487,618,o),
(558,517,o),
(571,435,c),
(676,452,l),
(636,610,o),
(542,708,o),
(347,708,cs),
(152,708,o),
(25,565,o),
(25,350,cs),
(25,135,o),
(152,-8,o),
(347,-8,cs),
(542,-8,o),
(636,97,o),
(676,243,c)
);
}
);
userData = {
com.hugojourdan.ColorFlow = {
"0" = 0;
"1" = 0;
"10" = 0;
"11" = 0;
"2" = 0;
"3" = 0;
"4" = 0;
"5" = 0;
"6" = 0;
"7" = 0;
"8" = 0;
"9" = 0;
};
};
width = 701;
},
{
layerId = m002;
shapes = (
{
closed = 1;
nodes = (
(589,260,l),
(573,187,o),
(505,82,o),
(365,82,cs),
(225,82,o),
(148,185,o),
(148,350,cs),
(148,515,o),
(225,618,o),
(365,618,cs),
(505,618,o),
(576,517,o),
(589,435,c),
(694,452,l),
(654,610,o),
(560,708,o),
(365,708,cs),
(170,708,o),
(43,565,o),
(43,350,cs),
(43,135,o),
(170,-8,o),
(365,-8,cs),
(560,-8,o),
(654,97,o),
(694,243,c)
);
}
);
userData = {
com.hugojourdan.ColorFlow = {
"0" = 0;
"1" = 0;
"10" = 0;
"11" = 0;
"2" = 0;
"3" = 0;
"4" = 0;
"5" = 0;
"6" = 0;
"7" = 0;
"8" = 0;
"9" = 0;
};
};
width = 737;
},
{
layerId = m003;
shapes = (
{
closed = 1;
nodes = (
(576,260,l),
(560,187,o),
(492,82,o),
(352,82,cs),
(212,82,o),
(135,185,o),
(135,350,cs),
(135,515,o),
(212,618,o),
(352,618,cs),
(492,618,o),
(563,517,o),
(576,435,c),
(681,452,l),
(641,610,o),
(547,708,o),
(352,708,cs),
(157,708,o),
(30,565,o),
(30,350,cs),
(30,135,o),
(157,-8,o),
(352,-8,cs),
(547,-8,o),
(641,97,o),
(681,243,c)
);
}
);
userData = {
com.hugojourdan.ColorFlow = {
"0" = 0;
"1" = 0;
"10" = 0;
"11" = 0;
"2" = 0;
"3" = 0;
"4" = 0;
"5" = 0;
"6" = 0;
"7" = 0;
"8" = 0;
"9" = 0;
};
};
width = 711;
}
);
metricLeft = "=O";
metricRight = "=O";
unicode = 67;
},
{
glyphname = D;
kernLeft = H;
kernRight = D;
layers = (
{
layerId = m01;
shapes = (
{
closed = 1;
nodes = (
(80,0,l),
(309,0,ls),
(504,0,o),
(646,140,o),
(646,350,cs),
(646,560,o),
(505,700,o),
(310,700,cs),
(80,700,l)
);
},
{
closed = 1;
nodes = (
(185,610,l),
(310,610,ls),
(443,610,o),
(541,510,o),
(541,350,cs),
(541,190,o),
(442,90,o),
(309,90,cs),
(185,90,l)
);
}
);
userData = {
com.hugojourdan.ColorFlow = {
"0" = 0;
"1" = 0;
"10" = 0;
"11" = 0;
"2" = 0;
"3" = 0;
"4" = 0;
"5" = 0;
"6" = 0;
"7" = 0;
"8" = 0;
"9" = 0;
};
};
width = 696;
},
{
layerId = m002;
shapes = (
{
closed = 1;
nodes = (
(60,0,l),
(289,0,ls),
(484,0,o),
(626,140,o),
(626,350,cs),
(626,560,o),
(485,700,o),
(290,700,cs),
(60,700,l)
);
},
{
closed = 1;
nodes = (
(165,610,l),
(290,610,ls),
(423,610,o),
(521,510,o),
(521,350,cs),
(521,190,o),
(422,90,o),
(289,90,cs),
(165,90,l)
);
}
);
userData = {
com.hugojourdan.ColorFlow = {
"0" = 0;
"1" = 0;
"10" = 0;
"11" = 0;
"2" = 0;
"3" = 0;
"4" = 0;
"5" = 0;
"6" = 0;
"7" = 0;
"8" = 0;
"9" = 0;
};
};
width = 656;
},
{
layerId = m003;
shapes = (
{
closed = 1;
nodes = (
(70,0,l),
(299,0,ls),
(494,0,o),
(636,140,o),
(636,350,cs),
(636,560,o),
(495,700,o),
(300,700,cs),
(70,700,l)
);
},
{
closed = 1;
nodes = (
(175,610,l),
(300,610,ls),
(433,610,o),
(531,510,o),
(531,350,cs),
(531,190,o),
(432,90,o),
(299,90,cs),
(175,90,l)
);
}
);
userData = {
com.hugojourdan.ColorFlow = {
"0" = 0;
"1" = 0;
"10" = 0;
"11" = 0;
"2" = 0;
"3" = 0;
"4" = 0;
"5" = 0;
"6" = 0;
"7" = 0;
"8" = 0;
"9" = 0;
};
};
width = 660;
}
);
unicode = 68;
},
{
glyphname = E;
kernLeft = H;
kernRight = E;
layers = (
{
layerId = m01;
shapes = (
{
closed = 1;
nodes = (
(45,0,l),
(150,0,l),
(150,700,l),
(45,700,l)
);
},
{
closed = 1;
nodes = (
(150,319,l),
(457,319,l),
(457,409,l),
(150,409,l)
);
},
{
closed = 1;
nodes = (
(150,610,l),
(477,610,l),
(477,700,l),
(150,700,l)
);
},
{
closed = 1;
nodes = (
(150,0,l),
(477,0,l),
(477,90,l),
(150,90,l)
);
}
);
userData = {
com.hugojourdan.ColorFlow = {
"0" = 0;
"1" = 0;
"10" = 0;
"11" = 0;
"2" = 0;
"3" = 0;
"4" = 0;
"5" = 0;
"6" = 0;
"7" = 0;
"8" = 0;
"9" = 0;
};
};
width = 522;
},
{
layerId = m002;
shapes = (
{
closed = 1;
nodes = (
(52,0,l),
(157,0,l),
(157,700,l),
(52,700,l)
);
},
{
closed = 1;
nodes = (
(157,319,l),
(464,319,l),
(464,409,l),
(157,409,l)
);
},
{
closed = 1;
nodes = (
(157,610,l),
(484,610,l),
(484,700,l),
(157,700,l)
);
},
{
closed = 1;
nodes = (
(157,0,l),
(484,0,l),
(484,90,l),
(157,90,l)
);
}
);
userData = {
com.hugojourdan.ColorFlow = {
"0" = 0;
"1" = 0;
"10" = 0;
"11" = 0;
"2" = 0;
"3" = 0;
"4" = 0;
"5" = 0;
"6" = 0;
"7" = 0;
"8" = 0;
"9" = 0;
};
};
width = 536;
},
{
layerId = m003;
shapes = (
{
closed = 1;
nodes = (
(50,0,l),
(155,0,l),
(155,700,l),
(50,700,l)
);
},
{
closed = 1;
nodes = (
(155,319,l),
(462,319,l),
(462,409,l),
(155,409,l)
);
},
{
closed = 1;
nodes = (
(155,610,l),
(482,610,l),
(482,700,l),
(155,700,l)
);
},
{
closed = 1;
nodes = (
(155,0,l),
(482,0,l),
(482,90,l),
(155,90,l)
);
}
);
userData = {
com.hugojourdan.ColorFlow = {
"0" = 0;
"1" = 0;
"10" = 0;
"11" = 0;
"2" = 0;
"3" = 0;
"4" = 0;
"5" = 0;
"6" = 0;
"7" = 0;
"8" = 0;
"9" = 0;
};
};
width = 532;
}
);
metricLeft = "=H";
metricRight = "=H";
unicode = 69;
},
{
glyphname = F;
kernLeft = H;
kernRight = F;
layers = (
{
layerId = m01;
shapes = (
{
closed = 1;
nodes = (
(45,0,l),
(150,0,l),
(150,700,l),
(45,700,l)
);
},
{
closed = 1;
nodes = (
(150,328,l),
(397,328,l),
(397,418,l),
(150,418,l)
);
},
{
closed = 1;
nodes = (
(150,610,l),
(457,610,l),
(457,700,l),
(150,700,l)
);
}
);
userData = {
com.hugojourdan.ColorFlow = {
"0" = 0;
"1" = 0;
"10" = 0;
"11" = 0;
"2" = 0;
"3" = 0;
"4" = 0;
"5" = 0;
"6" = 0;
"7" = 0;
"8" = 0;
"9" = 0;
};
};
width = 502;
},
{
layerId = m002;
shapes = (
{
closed = 1;
nodes = (
(52,0,l),
(157,0,l),
(157,700,l),
(52,700,l)
);
},
{
closed = 1;
nodes = (
(157,328,l),
(404,328,l),
(404,418,l),
(157,418,l)
);
},
{
closed = 1;
nodes = (
(157,610,l),
(464,610,l),
(464,700,l),
(157,700,l)
);
}
);
userData = {
com.hugojourdan.ColorFlow = {
"0" = 0;
"1" = 0;
"10" = 0;
"11" = 0;
"2" = 0;
"3" = 0;
"4" = 0;
"5" = 0;
"6" = 0;
"7" = 0;
"8" = 0;
"9" = 0;
};
};
width = 516;
},
{
layerId = m003;
shapes = (
{
closed = 1;
nodes = (
(50,0,l),
(155,0,l),
(155,700,l),
(50,700,l)
);
},
{
closed = 1;
nodes = (
(155,328,l),
(402,328,l),
(402,418,l),
(155,418,l)
);
},
{
closed = 1;
nodes = (
(155,610,l),
(462,610,l),
(462,700,l),
(155,700,l)
);
}
);
userData = {
com.hugojourdan.ColorFlow = {
"0" = 0;
"1" = 0;
"10" = 0;
"11" = 0;
"2" = 0;
"3" = 0;
"4" = 0;
"5" = 0;
"6" = 0;
"7" = 0;
"8" = 0;
"9" = 0;
};
};
width = 512;
}
);
metricLeft = "=H";
metricRight = "=H";
unicode = 70;
},
{
glyphname = G;
kernLeft = O;
kernRight = G;
layers = (
{
layerId = m01;
shapes = (
{
closed = 1;
nodes = (
(676,370,l),
(334,369,l),
(334,279,l),
(555,279,l),
(554,184,o),
(487,82,o),
(347,82,cs),
(207,82,o),
(130,185,o),
(130,350,cs),
(130,515,o),
(207,618,o),
(347,618,cs),
(466,618,o),
(557,543,o),
(575,461,c),
(676,478,l),
(631,636,o),
(488,708,o),
(347,708,cs),
(152,708,o),
(25,565,o),
(25,350,cs),
(25,135,o),
(152,-8,o),
(347,-8,cs),
(542,-8,o),
(595,136,o),
(585,279,c),
(585,0,l),
(676,0,l)
);
}
);
userData = {
com.hugojourdan.ColorFlow = {
"0" = 0;
"1" = 0;
"10" = 0;
"11" = 0;
"2" = 0;
"3" = 0;
"4" = 0;
"5" = 0;
"6" = 0;
"7" = 0;
"8" = 0;
"9" = 0;
};
};
width = 701;
},
{
associatedMasterId = m01;
layerId = "6CD58B4D-0AF9-4DBA-A6FE-9DFBAF1342F0";
name = "19. Jul 23, 16:08";
shapes = (
{
closed = 1;
nodes = (
(571,280,l),
(571,185,o),
(487,82,o),
(347,82,cs),
(207,82,o),
(130,185,o),
(130,350,cs),
(130,515,o),
(207,618,o),
(347,618,cs),
(487,618,o),
(558,537,o),
(571,455,c),
(676,472,l),
(636,630,o),
(542,708,o),
(347,708,cs),
(152,708,o),
(25,565,o),
(25,350,cs),
(25,135,o),
(152,-8,o),
(347,-8,cs),
(542,-8,o),
(676,135,o),
(676,279,c)
);
},
{
closed = 1;
nodes = (
(354,279,l),
(676,279,l),
(676,379,l),
(354,379,l)
);
}
);
userData = {
com.hugojourdan.ColorFlow = {
"0" = 0;
"1" = 0;
"10" = 0;
"11" = 0;
"2" = 0;
"3" = 0;
"4" = 0;
"5" = 0;
"6" = 0;
"7" = 0;
"8" = 0;
"9" = 0;
};
};
width = 701;
},
{
associatedMasterId = m01;
layerId = "41AD4F1E-CF02-4B4E-83B1-0D201332BC78";
name = "19. Jul 23, 16:24";
shapes = (
{
closed = 1;
nodes = (
(676,369,l),
(334,369,l),
(334,279,l),
(571,279,l),
(570,184,o),
(487,82,o),
(347,82,cs),
(207,82,o),
(130,185,o),
(130,350,cs),
(130,515,o),
(207,618,o),
(347,618,cs),
(466,618,o),
(557,543,o),
(575,461,c),
(676,478,l),
(631,636,o),
(488,708,o),
(347,708,cs),
(152,708,o),
(25,565,o),
(25,350,cs),
(25,135,o),
(152,-8,o),
(347,-8,cs),
(542,-8,o),
(676,135,o),
(676,279,cs)
);
}
);
userData = {
com.hugojourdan.ColorFlow = {
"0" = 0;
"1" = 0;
"10" = 0;
"11" = 0;
"2" = 0;
"3" = 0;
"4" = 0;
"5" = 0;
"6" = 0;
"7" = 0;
"8" = 0;
"9" = 0;
};
};
width = 701;
},
{
layerId = m002;
shapes = (
{
closed = 1;
nodes = (
(694,370,l),
(352,369,l),
(352,279,l),
(573,279,l),
(572,184,o),
(505,82,o),
(365,82,cs),
(225,82,o),
(148,185,o),
(148,350,cs),
(148,515,o),
(225,618,o),
(365,618,cs),
(484,618,o),
(575,543,o),
(593,461,c),
(694,478,l),
(649,636,o),
(506,708,o),
(365,708,cs),
(170,708,o),
(43,565,o),
(43,350,cs),
(43,135,o),
(170,-8,o),
(365,-8,cs),
(560,-8,o),
(613,136,o),
(603,279,c),
(603,0,l),
(694,0,l)
);
}
);
userData = {
com.hugojourdan.ColorFlow = {
"0" = 0;
"1" = 0;
"10" = 0;
"11" = 0;
"2" = 0;
"3" = 0;
"4" = 0;
"5" = 0;
"6" = 0;
"7" = 0;
"8" = 0;
"9" = 0;
};
};
width = 737;
},
{
associatedMasterId = m002;
layerId = "48FE7010-71DA-48E8-B752-A58A091291FF";
name = "19. Jul 23, 16:08";
shapes = (
{
closed = 1;
nodes = (
(571,280,l),
(571,185,o),
(487,82,o),
(347,82,cs),
(207,82,o),
(130,185,o),
(130,350,cs),
(130,515,o),
(207,618,o),
(347,618,cs),
(487,618,o),
(558,537,o),
(571,455,c),
(676,472,l),
(636,630,o),
(542,708,o),
(347,708,cs),
(152,708,o),
(25,565,o),
(25,350,cs),
(25,135,o),
(152,-8,o),
(347,-8,cs),
(542,-8,o),
(676,135,o),
(676,279,c)
);
},
{
closed = 1;
nodes = (
(354,279,l),
(676,279,l),
(676,379,l),
(354,379,l)
);
}
);
userData = {
com.hugojourdan.ColorFlow = {
"0" = 0;
"1" = 0;
"10" = 0;
"11" = 0;
"2" = 0;
"3" = 0;
"4" = 0;
"5" = 0;
"6" = 0;
"7" = 0;
"8" = 0;
"9" = 0;
};
};
width = 701;
},
{
associatedMasterId = m002;
layerId = "2B2E4C5F-21E6-4F4D-A0EE-7CA68E19DFF6";
name = "19. Jul 23, 16:24";
shapes = (
{
closed = 1;
nodes = (
(676,369,l),
(334,369,l),
(334,279,l),
(571,279,l),
(570,184,o),
(487,82,o),
(347,82,cs),
(207,82,o),
(130,185,o),
(130,350,cs),
(130,515,o),
(207,618,o),
(347,618,cs),
(466,618,o),
(557,543,o),
(575,461,c),
(676,478,l),
(631,636,o),
(488,708,o),
(347,708,cs),
(152,708,o),
(25,565,o),
(25,350,cs),
(25,135,o),
(152,-8,o),
(347,-8,cs),
(542,-8,o),
(676,135,o),
(676,279,cs)
);
}
);
userData = {
com.hugojourdan.ColorFlow = {
"0" = 0;
"1" = 0;
"10" = 0;
"11" = 0;
"2" = 0;
"3" = 0;
"4" = 0;
"5" = 0;
"6" = 0;
"7" = 0;
"8" = 0;
"9" = 0;
};
};
width = 701;
},
{
layerId = m003;
shapes = (
{
closed = 1;
nodes = (
(681,370,l),
(339,369,l),
(339,279,l),
(560,279,l),
(559,184,o),
(492,82,o),
(352,82,cs),
(212,82,o),
(135,185,o),
(135,350,cs),
(135,515,o),
(212,618,o),
(352,618,cs),
(471,618,o),
(562,543,o),
(580,461,c),
(681,478,l),
(636,636,o),
(493,708,o),
(352,708,cs),
(157,708,o),
(30,565,o),
(30,350,cs),
(30,135,o),
(157,-8,o),
(352,-8,cs),
(547,-8,o),
(600,136,o),
(590,279,c),
(590,0,l),
(681,0,l)
);
}
);
userData = {
com.hugojourdan.ColorFlow = {
"0" = 0;
"1" = 0;
"10" = 0;
"11" = 0;
"2" = 0;
"3" = 0;
"4" = 0;
"5" = 0;
"6" = 0;
"7" = 0;
"8" = 0;
"9" = 0;
};
};
width = 711;
},
{
associatedMasterId = m003;
layerId = "49C96D89-2035-45A5-9B48-B3F9061A9CA7";
name = "19. Jul 23, 16:08";
shapes = (
{
closed = 1;
nodes = (
(571,280,l),
(571,185,o),
(487,82,o),
(347,82,cs),
(207,82,o),
(130,185,o),
(130,350,cs),
(130,515,o),
(207,618,o),
(347,618,cs),
(487,618,o),
(558,537,o),
(571,455,c),
(676,472,l),
(636,630,o),
(542,708,o),
(347,708,cs),
(152,708,o),
(25,565,o),
(25,350,cs),
(25,135,o),
(152,-8,o),
(347,-8,cs),
(542,-8,o),
(676,135,o),
(676,279,c)
);
},
{
closed = 1;
nodes = (
(354,279,l),
(676,279,l),
(676,379,l),
(354,379,l)
);
}
);
userData = {
com.hugojourdan.ColorFlow = {
"0" = 0;
"1" = 0;
"10" = 0;
"11" = 0;
"2" = 0;
"3" = 0;
"4" = 0;
"5" = 0;
"6" = 0;
"7" = 0;
"8" = 0;
"9" = 0;
};
};
width = 701;
},
{
associatedMasterId = m003;
layerId = "D052AF65-7E73-46C4-96B1-154FB495053B";
name = "19. Jul 23, 16:24";
shapes = (
{
closed = 1;
nodes = (
(676,369,l),
(334,369,l),
(334,279,l),
(571,279,l),
(570,184,o),
(487,82,o),
(347,82,cs),
(207,82,o),
(130,185,o),
(130,350,cs),
(130,515,o),
(207,618,o),
(347,618,cs),
(466,618,o),
(557,543,o),
(575,461,c),
(676,478,l),
(631,636,o),
(488,708,o),
(347,708,cs),
(152,708,o),
(25,565,o),
(25,350,cs),
(25,135,o),
(152,-8,o),
(347,-8,cs),
(542,-8,o),
(676,135,o),
(676,279,cs)
);
}
);
userData = {
com.hugojourdan.ColorFlow = {
"0" = 0;
"1" = 0;
"10" = 0;
"11" = 0;
"2" = 0;
"3" = 0;
"4" = 0;
"5" = 0;
"6" = 0;
"7" = 0;
"8" = 0;
"9" = 0;
};
};
width = 701;
}
);
metricLeft = "=O";
metricRight = "=O";
unicode = 71;
},
{
glyphname = H;
kernLeft = H;
kernRight = H;
layers = (
{
layerId = m01;
shapes = (
{
closed = 1;
nodes = (
(461,0,l),
(566,0,l),
(566,700,l),
(461,700,l)
);
},
{
closed = 1;
nodes = (
(45,0,l),
(150,0,l),
(150,700,l),
(45,700,l)
);
},
{
closed = 1;
nodes = (
(145,328,l),
(467,328,l),
(467,418,l),
(145,418,l)
);
}
);
userData = {
com.hugojourdan.ColorFlow = {
"0" = 0;
"1" = 0;
"10" = 0;
"11" = 0;
"2" = 0;
"3" = 0;
"4" = 0;
"5" = 0;
"6" = 0;
"7" = 0;
"8" = 0;
"9" = 0;
};
};
width = 611;
},
{
layerId = m002;
shapes = (
{
closed = 1;
nodes = (
(468,0,l),
(573,0,l),
(573,700,l),
(468,700,l)
);
},
{
closed = 1;
nodes = (
(52,0,l),
(157,0,l),
(157,700,l),
(52,700,l)
);
},
{
closed = 1;
nodes = (
(152,328,l),
(474,328,l),
(474,418,l),
(152,418,l)
);
}
);
userData = {
com.hugojourdan.ColorFlow = {
"0" = 0;
"1" = 0;
"10" = 0;
"11" = 0;
"2" = 0;
"3" = 0;
"4" = 0;
"5" = 0;
"6" = 0;
"7" = 0;
"8" = 0;
"9" = 0;
};
};
width = 625;
},
{
layerId = m003;
shapes = (
{
closed = 1;
nodes = (
(466,0,l),
(571,0,l),
(571,700,l),
(466,700,l)
);
},
{
closed = 1;
nodes = (
(50,0,l),
(155,0,l),
(155,700,l),
(50,700,l)
);
},
{
closed = 1;
nodes = (
(150,328,l),
(472,328,l),
(472,418,l),
(150,418,l)
);
}
);
userData = {
com.hugojourdan.ColorFlow = {
"0" = 0;
"1" = 0;
"10" = 0;
"11" = 0;
"2" = 0;
"3" = 0;
"4" = 0;
"5" = 0;
"6" = 0;
"7" = 0;
"8" = 0;
"9" = 0;
};
};
width = 621;
}
);
metricLeft = "=I";
metricRight = "=I";
unicode = 72;
},
{
glyphname = I;
kernLeft = I;
kernRight = I;
layers = (
{
layerId = m01;
shapes = (
{
closed = 1;
nodes = (
(90,0,l),
(195,0,l),
(195,700,l),
(90,700,l)
);
}
);
userData = {
com.hugojourdan.ColorFlow = {
"0" = 0;
"1" = 0;
"10" = 0;
"11" = 0;
"2" = 0;
"3" = 0;
"4" = 0;
"5" = 0;
"6" = 0;
"7" = 0;
"8" = 0;
"9" = 0;
};
};
width = 285;
},
{
layerId = m002;
shapes = (
{
closed = 1;
nodes = (
(52,0,l),
(157,0,l),
(157,700,l),
(52,700,l)
);
}
);
userData = {
com.hugojourdan.ColorFlow = {
"0" = 0;
"1" = 0;
"10" = 0;
"11" = 0;
"2" = 0;
"3" = 0;
"4" = 0;
"5" = 0;
"6" = 0;
"7" = 0;
"8" = 0;
"9" = 0;
};
};
width = 209;
},
{
layerId = m003;
shapes = (
{
closed = 1;
nodes = (
(50,0,l),
(155,0,l),
(155,700,l),
(50,700,l)
);
}
);
userData = {
com.hugojourdan.ColorFlow = {
"0" = 0;
"1" = 0;
"10" = 0;
"11" = 0;
"2" = 0;
"3" = 0;
"4" = 0;
"5" = 0;
"6" = 0;
"7" = 0;
"8" = 0;
"9" = 0;
};
};
width = 205;
}
);
metricLeft = "=i+10";
metricRight = "=i+10";
unicode = 73;
},
{
glyphname = J;
kernLeft = J;
kernRight = I;
layers = (
{
layerId = m01;
shapes = (
{
closed = 1;
nodes = (
(385,260,l),
(385,132,o),
(340,92,o),
(275,92,c),
(209,92,o),
(145,133,o),
(145,225,c),
(40,225,l),
(40,88,o),
(123,-8,o),
(283,-8,c),
(487,-8,o),
(490,151,o),
(490,240,c),
(490,700,l),
(385,700,l)
);
}
);
userData = {
com.hugojourdan.ColorFlow = {
"0" = 0;
"1" = 0;
"10" = 0;
"11" = 0;
"2" = 0;
"3" = 0;
"4" = 0;
"5" = 0;
"6" = 0;
"7" = 0;
"8" = 0;
"9" = 0;
};
};
width = 563;
},
{
layerId = m002;
shapes = (
{
closed = 1;
nodes = (
(365,260,l),
(365,132,o),
(320,92,o),
(255,92,c),
(189,92,o),
(125,133,o),
(125,225,c),
(20,225,l),
(20,88,o),
(103,-8,o),
(263,-8,c),
(467,-8,o),
(470,151,o),
(470,240,c),
(470,700,l),
(365,700,l)
);
}
);
userData = {
com.hugojourdan.ColorFlow = {
"0" = 0;
"1" = 0;
"10" = 0;
"11" = 0;
"2" = 0;
"3" = 0;
"4" = 0;
"5" = 0;
"6" = 0;
"7" = 0;
"8" = 0;
"9" = 0;
};
};
width = 523;
},
{
layerId = m003;
shapes = (
{
closed = 1;
nodes = (
(486,260,l),
(486,132,o),
(441,92,o),
(376,92,c),
(310,92,o),
(246,133,o),
(246,225,c),
(141,225,l),
(141,88,o),
(224,-8,o),
(384,-8,c),
(588,-8,o),
(591,151,o),
(591,240,c),
(591,700,l),
(486,700,l)
);
}
);
userData = {
com.hugojourdan.ColorFlow = {
"0" = 0;
"1" = 0;
"10" = 0;
"11" = 0;
"2" = 0;
"3" = 0;
"4" = 0;
"5" = 0;
"6" = 0;
"7" = 0;
"8" = 0;
"9" = 0;
};
};
width = 660;
}
);
unicode = 74;
},
{
glyphname = K;
kernLeft = H;
kernRight = K;
layers = (
{
layerId = m01;
shapes = (
{
closed = 1;
nodes = (
(431,0,l),
(554,0,l),
(281,348,l),
(574,707,l),
(449,707,l),
(161,348,l)
);
},
{
closed = 1;
nodes = (
(80,0,l),
(185,0,l),
(185,700,l),
(80,700,l)
);
}
);
userData = {
com.hugojourdan.ColorFlow = {
"0" = 0;
"1" = 0;
"10" = 0;
"11" = 0;
"2" = 0;
"3" = 0;
"4" = 0;
"5" = 0;
"6" = 0;
"7" = 0;
"8" = 0;
"9" = 0;
};
};
width = 608;
},
{
layerId = m002;
shapes = (
{
closed = 1;
nodes = (
(411,0,l),
(534,0,l),
(261,348,l),
(554,707,l),
(429,707,l),
(141,348,l)
);
},
{
closed = 1;
nodes = (
(60,0,l),
(165,0,l),
(165,700,l),
(60,700,l)
);
}
);
userData = {
com.hugojourdan.ColorFlow = {
"0" = 0;
"1" = 0;
"10" = 0;
"11" = 0;
"2" = 0;
"3" = 0;
"4" = 0;
"5" = 0;
"6" = 0;
"7" = 0;
"8" = 0;
"9" = 0;
};
};
width = 568;
},
{
layerId = m003;
shapes = (
{
closed = 1;
nodes = (
(446,0,l),
(569,0,l),
(296,348,l),
(589,707,l),
(464,707,l),
(176,348,l)
);
},
{
closed = 1;
nodes = (
(95,0,l),
(200,0,l),
(200,700,l),
(95,700,l)
);
}
);
userData = {
com.hugojourdan.ColorFlow = {
"0" = 0;
"1" = 0;
"10" = 0;
"11" = 0;
"2" = 0;
"3" = 0;
"4" = 0;
"5" = 0;
"6" = 0;
"7" = 0;
"8" = 0;
"9" = 0;
};
};
width = 660;
}
);
unicode = 75;
},
{
glyphname = L;
kernLeft = H;
kernRight = L;
layers = (
{
layerId = m01;
shapes = (
{
closed = 1;
nodes = (
(45,0,l),
(150,0,l),
(150,700,l),
(45,700,l)
);
},
{
closed = 1;
nodes = (
(150,0,l),
(477,0,l),
(477,90,l),
(150,90,l)
);
}
);
userData = {
com.hugojourdan.ColorFlow = {
"0" = 0;
"1" = 0;
"10" = 0;
"11" = 0;
"2" = 0;
"3" = 0;
"4" = 0;
"5" = 0;
"6" = 0;
"7" = 0;
"8" = 0;
"9" = 0;
};
};
width = 522;
},
{
layerId = m002;
shapes = (
{
closed = 1;
nodes = (
(52,0,l),
(157,0,l),
(157,700,l),
(52,700,l)
);
},
{
closed = 1;
nodes = (
(157,0,l),
(484,0,l),
(484,90,l),
(157,90,l)
);
}
);
userData = {
com.hugojourdan.ColorFlow = {
"0" = 0;
"1" = 0;
"10" = 0;
"11" = 0;
"2" = 0;
"3" = 0;
"4" = 0;
"5" = 0;
"6" = 0;
"7" = 0;
"8" = 0;
"9" = 0;
};
};
width = 536;
},
{
layerId = m003;
shapes = (
{
closed = 1;
nodes = (
(50,0,l),
(155,0,l),
(155,700,l),
(50,700,l)
);
},
{
closed = 1;
nodes = (
(155,0,l),
(482,0,l),
(482,90,l),
(155,90,l)
);
}
);
userData = {
com.hugojourdan.ColorFlow = {
"0" = 0;
"1" = 0;
"10" = 0;
"11" = 0;
"2" = 0;
"3" = 0;
"4" = 0;
"5" = 0;
"6" = 0;
"7" = 0;
"8" = 0;
"9" = 0;
};
};
width = 532;
}
);
metricLeft = "=H";
metricRight = "=H";
unicode = 76;
},
{
glyphname = M;
kernLeft = H;
kernRight = H;
layers = (
{
layerId = m01;
shapes = (
{
closed = 1;
nodes = (
(443,0,l),
(631,528,l),
(631,0,l),
(736,0,l),
(736,700,l),
(579,698,l),
(391,142,l),
(197,700,l),
(45,700,l),
(45,0,l),
(150,0,l),
(150,528,l),
(338,0,l)
);
}
);
userData = {
com.hugojourdan.ColorFlow = {
"0" = 0;
"1" = 0;
"10" = 0;
"11" = 0;
"2" = 0;
"3" = 0;
"4" = 0;
"5" = 0;
"6" = 0;
"7" = 0;
"8" = 0;
"9" = 0;
};
};
width = 781;
},
{
layerId = m002;
shapes = (
{
closed = 1;
nodes = (
(450,0,l),
(638,528,l),
(638,0,l),
(743,0,l),
(743,700,l),
(586,698,l),
(398,142,l),
(204,700,l),
(52,700,l),
(52,0,l),
(157,0,l),
(157,528,l),
(345,0,l)
);
}
);
userData = {
com.hugojourdan.ColorFlow = {
"0" = 0;
"1" = 0;
"10" = 0;
"11" = 0;
"2" = 0;
"3" = 0;
"4" = 0;
"5" = 0;
"6" = 0;
"7" = 0;
"8" = 0;
"9" = 0;
};
};
width = 795;
},
{
layerId = m003;
shapes = (
{
closed = 1;
nodes = (
(448,0,l),
(636,528,l),
(636,0,l),
(741,0,l),
(741,700,l),
(584,698,l),
(396,142,l),
(202,700,l),
(50,700,l),
(50,0,l),
(155,0,l),
(155,528,l),
(343,0,l)
);
}
);
userData = {
com.hugojourdan.ColorFlow = {
"0" = 0;
"1" = 0;
"10" = 0;
"11" = 0;
"2" = 0;
"3" = 0;
"4" = 0;
"5" = 0;
"6" = 0;
"7" = 0;
"8" = 0;
"9" = 0;
};
};
width = 791;
}
);
metricLeft = "=H";
metricRight = "=H";
unicode = 77;
},
{
glyphname = N;
kernLeft = H;
kernRight = H;
layers = (
{
layerId = m01;
shapes = (
{
closed = 1;
nodes = (
(491,109,l),
(203,700,l),
(45,700,l),
(45,0,l),
(150,0,l),
(150,571,l),
(438,0,l),
(596,0,l),
(596,700,l),
(491,700,l)
);
}
);
userData = {
com.hugojourdan.ColorFlow = {
"0" = 0;
"1" = 0;
"10" = 0;
"11" = 0;
"2" = 0;
"3" = 0;
"4" = 0;
"5" = 0;
"6" = 0;
"7" = 0;
"8" = 0;
"9" = 0;
};
};
width = 641;
},
{
layerId = m002;
shapes = (
{
closed = 1;
nodes = (
(498,109,l),
(210,700,l),
(52,700,l),
(52,0,l),
(157,0,l),
(157,571,l),
(445,0,l),
(603,0,l),
(603,700,l),
(498,700,l)
);
}
);
userData = {
com.hugojourdan.ColorFlow = {
"0" = 0;
"1" = 0;
"10" = 0;
"11" = 0;
"2" = 0;
"3" = 0;
"4" = 0;
"5" = 0;
"6" = 0;
"7" = 0;
"8" = 0;
"9" = 0;
};
};
width = 655;
},
{
layerId = m003;
shapes = (
{
closed = 1;
nodes = (
(496,109,l),
(208,700,l),
(50,700,l),
(50,0,l),
(155,0,l),
(155,571,l),
(443,0,l),
(601,0,l),
(601,700,l),
(496,700,l)
);
}
);
userData = {
com.hugojourdan.ColorFlow = {
"0" = 0;
"1" = 0;
"10" = 0;
"11" = 0;
"2" = 0;
"3" = 0;
"4" = 0;
"5" = 0;
"6" = 0;
"7" = 0;
"8" = 0;
"9" = 0;
};
};
width = 651;
}
);
metricLeft = "=H";
metricRight = "=H";
unicode = 78;
},
{
glyphname = O;
kernLeft = O;
kernRight = O;
layers = (
{
layerId = m01;
shapes = (
{
closed = 1;
nodes = (
(542,-8,o),
(676,135,o),
(676,350,cs),
(676,565,o),
(542,708,o),
(347,708,cs),
(152,708,o),
(25,565,o),
(25,350,cs),
(25,135,o),
(152,-8,o),
(347,-8,cs)
);
},
{
closed = 1;
nodes = (
(207,82,o),
(130,185,o),
(130,350,cs),
(130,515,o),
(207,618,o),
(347,618,cs),
(487,618,o),
(571,515,o),
(571,350,cs),
(571,185,o),
(487,82,o),
(347,82,cs)
);
}
);
userData = {
com.hugojourdan.ColorFlow = {
"0" = 0;
"1" = 0;
"10" = 0;
"11" = 0;
"2" = 0;
"3" = 0;
"4" = 0;
"5" = 0;
"6" = 0;
"7" = 0;
"8" = 0;
"9" = 0;
};
};
width = 701;
},
{
layerId = m002;
shapes = (
{
closed = 1;
nodes = (
(560,-8,o),
(694,135,o),
(694,350,cs),
(694,565,o),
(560,708,o),
(365,708,cs),
(170,708,o),
(43,565,o),
(43,350,cs),
(43,135,o),
(170,-8,o),
(365,-8,cs)
);
},
{
closed = 1;
nodes = (
(225,82,o),
(148,185,o),
(148,350,cs),
(148,515,o),
(225,618,o),
(365,618,cs),
(505,618,o),
(589,515,o),
(589,350,cs),
(589,185,o),
(505,82,o),
(365,82,cs)
);
}
);
userData = {
com.hugojourdan.ColorFlow = {
"0" = 0;
"1" = 0;
"10" = 0;
"11" = 0;
"2" = 0;
"3" = 0;
"4" = 0;
"5" = 0;
"6" = 0;
"7" = 0;
"8" = 0;
"9" = 0;
};
};
width = 737;
},
{
layerId = m003;
shapes = (
{
closed = 1;
nodes = (
(547,-8,o),
(681,135,o),
(681,350,cs),
(681,565,o),
(547,708,o),
(352,708,cs),
(157,708,o),
(30,565,o),
(30,350,cs),
(30,135,o),
(157,-8,o),
(352,-8,cs)
);
},
{
closed = 1;
nodes = (
(212,82,o),
(135,185,o),
(135,350,cs),
(135,515,o),
(212,618,o),
(352,618,cs),
(492,618,o),
(576,515,o),
(576,350,cs),
(576,185,o),
(492,82,o),
(352,82,cs)
);
}
);
userData = {
com.hugojourdan.ColorFlow = {
"0" = 0;
"1" = 0;
"10" = 0;
"11" = 0;
"2" = 0;
"3" = 0;
"4" = 0;
"5" = 0;
"6" = 0;
"7" = 0;
"8" = 0;
"9" = 0;
};
};
width = 711;
}
);
metricLeft = "=o+10";
metricRight = "=o+10";
unicode = 79;
},
{
glyphname = P;
kernLeft = H;
kernRight = P;
layers = (
{
layerId = m01;
shapes = (
{
closed = 1;
nodes = (
(45,0,l),
(150,0,l),
(150,700,l),
(45,700,l)
);
},
{
closed = 1;
nodes = (
(150,288,l),
(312,288,l),
(312,378,l),
(150,378,l)
);
},
{
closed = 1;
nodes = (
(150,610,l),
(312,610,l),
(312,700,l),
(150,700,l)
);
},
{
closed = 1;
nodes = (
(312,610,l),
(378,610,o),
(436,566,o),
(436,495,c),
(436,425,o),
(379,380,o),
(312,378,c),
(312,288,l),
(431,290,o),
(536,344,o),
(536,495,cs),
(536,646,o),
(431,700,o),
(312,700,c)
);
}
);
userData = {
com.hugojourdan.ColorFlow = {
"0" = 0;
"1" = 0;
"10" = 0;
"11" = 0;
"2" = 0;
"3" = 0;
"4" = 0;
"5" = 0;
"6" = 0;
"7" = 0;
"8" = 0;
"9" = 0;
};
};
width = 561;
},
{
associatedMasterId = m01;
layerId = "767DA48E-15D8-4720-A877-93C1F22FA51D";
name = "19. Jul 23, 15:23";
shapes = (
{
closed = 1;
nodes = (
(40,0,l),
(145,0,l),
(145,700,l),
(40,700,l)
);
},
{
closed = 1;
nodes = (
(145,288,l),
(307,288,l),
(307,378,l),
(145,378,l)
);
},
{
closed = 1;
nodes = (
(145,610,l),
(307,610,l),
(307,700,l),
(145,700,l)
);
},
{
closed = 1;
nodes = (
(307,610,l),
(373,610,o),
(431,569,o),
(431,486,c),
(431,409,o),
(374,380,o),
(307,378,c),
(307,288,l),
(426,290,o),
(531,335,o),
(531,486,cs),
(531,637,o),
(426,700,o),
(307,700,c)
);
}
);
userData = {
com.hugojourdan.ColorFlow = {
"0" = 0;
"1" = 0;
"10" = 0;
"11" = 0;
"2" = 0;
"3" = 0;
"4" = 0;
"5" = 0;
"6" = 0;
"7" = 0;
"8" = 0;
"9" = 0;
};
};
width = 556;
},
{
layerId = m002;
shapes = (
{
closed = 1;
nodes = (
(52,0,l),
(157,0,l),
(157,700,l),
(52,700,l)
);
},
{
closed = 1;
nodes = (
(157,288,l),
(319,288,l),
(319,378,l),
(157,378,l)
);
},
{
closed = 1;
nodes = (
(157,610,l),
(319,610,l),
(319,700,l),
(157,700,l)
);
},
{
closed = 1;
nodes = (
(319,610,l),
(385,610,o),
(443,566,o),
(443,495,c),
(443,425,o),
(386,380,o),
(319,378,c),
(319,288,l),
(438,290,o),
(543,344,o),
(543,495,cs),
(543,646,o),
(438,700,o),
(319,700,c)
);
}
);
userData = {
com.hugojourdan.ColorFlow = {
"0" = 0;
"1" = 0;
"10" = 0;
"11" = 0;
"2" = 0;
"3" = 0;
"4" = 0;
"5" = 0;
"6" = 0;
"7" = 0;
"8" = 0;
"9" = 0;
};
};
width = 586;
},
{
associatedMasterId = m002;
layerId = "4F1877E2-C10F-4519-B0C4-86CABB08FCFF";
name = "19. Jul 23, 15:23";
shapes = (
{
closed = 1;
nodes = (
(40,0,l),
(145,0,l),
(145,700,l),
(40,700,l)
);
},
{
closed = 1;
nodes = (
(145,288,l),
(307,288,l),
(307,378,l),
(145,378,l)
);
},
{
closed = 1;
nodes = (
(145,610,l),
(307,610,l),
(307,700,l),
(145,700,l)
);
},
{
closed = 1;
nodes = (
(307,610,l),
(373,610,o),
(431,569,o),
(431,486,c),
(431,409,o),
(374,380,o),
(307,378,c),
(307,288,l),
(426,290,o),
(531,335,o),
(531,486,cs),
(531,637,o),
(426,700,o),
(307,700,c)
);
}
);
userData = {
com.hugojourdan.ColorFlow = {
"0" = 0;
"1" = 0;
"10" = 0;
"11" = 0;
"2" = 0;
"3" = 0;
"4" = 0;
"5" = 0;
"6" = 0;
"7" = 0;
"8" = 0;
"9" = 0;
};
};
width = 556;
},
{
layerId = m003;
shapes = (
{
closed = 1;
nodes = (
(50,0,l),
(155,0,l),
(155,700,l),
(50,700,l)
);
},
{
closed = 1;
nodes = (
(155,288,l),
(317,288,l),
(317,378,l),
(155,378,l)
);
},
{
closed = 1;
nodes = (
(155,610,l),
(317,610,l),
(317,700,l),
(155,700,l)
);
},
{
closed = 1;
nodes = (
(317,610,l),
(383,610,o),
(441,566,o),
(441,495,c),
(441,425,o),
(384,380,o),
(317,378,c),
(317,288,l),
(436,290,o),
(541,344,o),
(541,495,cs),
(541,646,o),
(436,700,o),
(317,700,c)
);
}
);
userData = {
com.hugojourdan.ColorFlow = {
"0" = 0;
"1" = 0;
"10" = 0;
"11" = 0;
"2" = 0;
"3" = 0;
"4" = 0;
"5" = 0;
"6" = 0;
"7" = 0;
"8" = 0;
"9" = 0;
};
};
width = 571;
},
{
associatedMasterId = m003;
layerId = "DC565858-836A-446C-A2DA-BB744FBB2B33";
name = "19. Jul 23, 15:23";
shapes = (
{
closed = 1;
nodes = (
(40,0,l),
(145,0,l),
(145,700,l),
(40,700,l)
);
},
{
closed = 1;
nodes = (
(145,288,l),
(307,288,l),
(307,378,l),
(145,378,l)
);
},
{
closed = 1;
nodes = (
(145,610,l),
(307,610,l),
(307,700,l),
(145,700,l)
);
},
{
closed = 1;
nodes = (
(307,610,l),
(373,610,o),
(431,569,o),
(431,486,c),
(431,409,o),
(374,380,o),
(307,378,c),
(307,288,l),
(426,290,o),
(531,335,o),
(531,486,cs),
(531,637,o),
(426,700,o),
(307,700,c)
);
}
);
userData = {
com.hugojourdan.ColorFlow = {
"0" = 0;
"1" = 0;
"10" = 0;
"11" = 0;
"2" = 0;
"3" = 0;
"4" = 0;
"5" = 0;
"6" = 0;
"7" = 0;
"8" = 0;
"9" = 0;
};
};
width = 556;
}
);
metricLeft = "=H";
metricRight = "=O";
unicode = 80;
},
{
glyphname = Q;
kernLeft = O;
kernRight = Q;
layers = (
{
layerId = m01;
shapes = (
{
closed = 1;
nodes = (
(568,-8,o),
(700,135,o),
(700,350,cs),
(700,566,o),
(568,710,o),
(371,710,cs),
(178,710,o),
(49,566,o),
(49,350,cs),
(49,135,o),
(178,-8,o),
(371,-8,cs)
);
},
{
closed = 1;
nodes = (
(239,82,o),
(154,181,o),
(154,350,cs),
(154,513,o),
(235,620,o),
(371,620,cs),
(506,620,o),
(595,519,o),
(595,350,cs),
(595,188,o),
(512,82,o),
(371,82,cs)
);
},
{
closed = 1;
nodes = (
(386,168,l),
(630,-75,l),
(700,-3,l),
(456,241,l)
);
}
);
userData = {
com.hugojourdan.ColorFlow = {
"0" = 0;
"1" = 0;
"10" = 0;
"11" = 0;
"2" = 0;
"3" = 0;
"4" = 0;
"5" = 0;
"6" = 0;
"7" = 0;
"8" = 0;
"9" = 0;
};
};
width = 725;
},
{
layerId = m002;
shapes = (
{
closed = 1;
nodes = (
(548,-8,o),
(680,135,o),
(680,350,cs),
(680,566,o),
(548,710,o),
(351,710,cs),
(158,710,o),
(29,566,o),
(29,350,cs),
(29,135,o),
(158,-8,o),
(351,-8,cs)
);
},
{
closed = 1;
nodes = (
(219,82,o),
(134,181,o),
(134,350,cs),
(134,513,o),
(215,620,o),
(351,620,cs),
(486,620,o),
(575,519,o),
(575,350,cs),
(575,188,o),
(492,82,o),
(351,82,cs)
);
},
{
closed = 1;
nodes = (
(366,168,l),
(610,-75,l),
(680,-3,l),
(436,241,l)
);
}
);
userData = {
com.hugojourdan.ColorFlow = {
"0" = 0;
"1" = 0;
"10" = 0;
"11" = 0;
"2" = 0;
"3" = 0;
"4" = 0;
"5" = 0;
"6" = 0;
"7" = 0;
"8" = 0;
"9" = 0;
};
};
width = 723;
},
{
layerId = m003;
shapes = (
{
closed = 1;
nodes = (
(574,-8,o),
(706,135,o),
(706,350,cs),
(706,566,o),
(574,710,o),
(377,710,cs),
(184,710,o),
(55,566,o),
(55,350,cs),
(55,135,o),
(184,-8,o),
(377,-8,cs)
);
},
{
closed = 1;
nodes = (
(245,82,o),
(160,181,o),
(160,350,cs),
(160,513,o),
(241,620,o),
(377,620,cs),
(512,620,o),
(601,519,o),
(601,350,cs),
(601,188,o),
(518,82,o),
(377,82,cs)
);
},
{
closed = 1;
nodes = (
(392,168,l),
(636,-75,l),
(706,-3,l),
(462,241,l)
);
}
);
userData = {
com.hugojourdan.ColorFlow = {
"0" = 0;
"1" = 0;
"10" = 0;
"11" = 0;
"2" = 0;
"3" = 0;
"4" = 0;
"5" = 0;
"6" = 0;
"7" = 0;
"8" = 0;
"9" = 0;
};
};
width = 736;
}
);
metricRight = "=O";
unicode = 81;
},
{
glyphname = R;
kernLeft = H;
kernRight = R;
layers = (
{
layerId = m01;
shapes = (
{
closed = 1;
nodes = (
(45,0,l),
(150,0,l),
(150,700,l),
(45,700,l)
);
},
{
closed = 1;
nodes = (
(150,288,l),
(312,288,l),
(312,378,l),
(150,378,l)
);
},
{
closed = 1;
nodes = (
(150,610,l),
(312,610,l),
(312,700,l),
(150,700,l)
);
},
{
closed = 1;
nodes = (
(312,610,l),
(378,610,o),
(436,569,o),
(436,486,c),
(436,409,o),
(379,380,o),
(312,378,c),
(312,288,l),
(431,290,o),
(536,335,o),
(536,486,cs),
(536,637,o),
(431,700,o),
(312,700,c)
);
},
{
closed = 1;
nodes = (
(412,1,l),
(537,0,l),
(354,305,l),
(239,306,l)
);
}
);
userData = {
com.hugojourdan.ColorFlow = {
"0" = 0;
"1" = 0;
"10" = 0;
"11" = 0;
"2" = 0;
"3" = 0;
"4" = 0;
"5" = 0;
"6" = 0;
"7" = 0;
"8" = 0;
"9" = 0;
};
};
width = 562;
},
{
layerId = m002;
shapes = (
{
closed = 1;
nodes = (
(52,0,l),
(157,0,l),
(157,700,l),
(52,700,l)
);
},
{
closed = 1;
nodes = (
(157,288,l),
(319,288,l),
(319,378,l),
(157,378,l)
);
},
{
closed = 1;
nodes = (
(157,610,l),
(319,610,l),
(319,700,l),
(157,700,l)
);
},
{
closed = 1;
nodes = (
(319,610,l),
(385,610,o),
(443,569,o),
(443,486,c),
(443,409,o),
(386,380,o),
(319,378,c),
(319,288,l),
(438,290,o),
(543,335,o),
(543,486,cs),
(543,637,o),
(438,700,o),
(319,700,c)
);
},
{
closed = 1;
nodes = (
(419,1,l),
(544,0,l),
(361,305,l),
(246,306,l)
);
}
);
userData = {
com.hugojourdan.ColorFlow = {
"0" = 0;
"1" = 0;
"10" = 0;
"11" = 0;
"2" = 0;
"3" = 0;
"4" = 0;
"5" = 0;
"6" = 0;
"7" = 0;
"8" = 0;
"9" = 0;
};
};
width = 587;
},
{
layerId = m003;
shapes = (
{
closed = 1;
nodes = (
(50,0,l),
(155,0,l),
(155,700,l),
(50,700,l)
);
},
{
closed = 1;
nodes = (
(155,288,l),
(317,288,l),
(317,378,l),
(155,378,l)
);
},
{
closed = 1;
nodes = (
(155,610,l),
(317,610,l),
(317,700,l),
(155,700,l)
);
},
{
closed = 1;
nodes = (
(317,610,l),
(383,610,o),
(441,569,o),
(441,486,c),
(441,409,o),
(384,380,o),
(317,378,c),
(317,288,l),
(436,290,o),
(541,335,o),
(541,486,cs),
(541,637,o),
(436,700,o),
(317,700,c)
);
},
{
closed = 1;
nodes = (
(417,1,l),
(542,0,l),
(359,305,l),
(244,306,l)
);
}
);
userData = {
com.hugojourdan.ColorFlow = {
"0" = 0;
"1" = 0;
"10" = 0;
"11" = 0;
"2" = 0;
"3" = 0;
"4" = 0;
"5" = 0;
"6" = 0;
"7" = 0;
"8" = 0;
"9" = 0;
};
};
width = 572;
}
);
metricLeft = "=P";
metricRight = "=P";
unicode = 82;
},
{
glyphname = S;
kernLeft = S;
kernRight = S;
layers = (
{
layerId = m01;
shapes = (
{
closed = 1;
nodes = (
(20,242,o),
(448,361,o),
(448,195,c),
(448,134,o),
(381,93,o),
(275,93,cs),
(185,93,o),
(120,137,o),
(120,206,c),
(15,199,l),
(15,74,o),
(108,3,o),
(275,3,cs),
(448,3,o),
(553,88,o),
(553,209,cs),
(553,451,o),
(125,361,o),
(125,513,c),
(126,578,o),
(202,608,o),
(275,608,cs),
(364,608,o),
(446,562,o),
(446,493,c),
(551,500,l),
(551,624,o),
(448,698,o),
(275,698,cs),
(101,698,o),
(20,618,o),
(20,499,c)
);
}
);
userData = {
com.hugojourdan.ColorFlow = {
"0" = 0;
"1" = 0;
"10" = 0;
"11" = 0;
"2" = 0;
"3" = 0;
"4" = 0;
"5" = 0;
"6" = 0;
"7" = 0;
"8" = 0;
"9" = 0;
};
};
width = 568;
},
{
layerId = m002;
shapes = (
{
closed = 1;
nodes = (
(38,242,o),
(466,361,o),
(466,195,c),
(466,134,o),
(399,93,o),
(293,93,cs),
(203,93,o),
(138,137,o),
(138,206,c),
(33,199,l),
(33,74,o),
(126,3,o),
(293,3,cs),
(466,3,o),
(571,88,o),
(571,209,cs),
(571,451,o),
(143,361,o),
(143,513,c),
(144,578,o),
(220,608,o),
(293,608,cs),
(382,608,o),
(464,562,o),
(464,493,c),
(569,500,l),
(569,624,o),
(466,698,o),
(293,698,cs),
(119,698,o),
(38,618,o),
(38,499,c)
);
}
);
userData = {
com.hugojourdan.ColorFlow = {
"0" = 0;
"1" = 0;
"10" = 0;
"11" = 0;
"2" = 0;
"3" = 0;
"4" = 0;
"5" = 0;
"6" = 0;
"7" = 0;
"8" = 0;
"9" = 0;
};
};
width = 604;
},
{
layerId = m003;
shapes = (
{
closed = 1;
nodes = (
(25,242,o),
(453,361,o),
(453,195,c),
(453,134,o),
(386,93,o),
(280,93,cs),
(190,93,o),
(125,137,o),
(125,206,c),
(20,199,l),
(20,74,o),
(113,3,o),
(280,3,cs),
(453,3,o),
(558,88,o),
(558,209,cs),
(558,451,o),
(130,361,o),
(130,513,c),
(131,578,o),
(207,608,o),
(280,608,cs),
(369,608,o),
(451,562,o),
(451,493,c),
(556,500,l),
(556,624,o),
(453,698,o),
(280,698,cs),
(106,698,o),
(25,618,o),
(25,499,c)
);
}
);
userData = {
com.hugojourdan.ColorFlow = {
"0" = 0;
"1" = 0;
"10" = 0;
"11" = 0;
"2" = 0;
"3" = 0;
"4" = 0;
"5" = 0;
"6" = 0;
"7" = 0;
"8" = 0;
"9" = 0;
};
};
width = 578;
}
);
metricLeft = "=s";
metricRight = "=s";
unicode = 83;
},
{
glyphname = T;
kernLeft = T;
kernRight = T;
layers = (
{
layerId = m01;
shapes = (
{
closed = 1;
nodes = (
(195,0,l),
(300,0,l),
(300,700,l),
(195,700,l)
);
},
{
closed = 1;
nodes = (
(20,610,l),
(195,610,l),
(195,700,l),
(20,700,l)
);
},
{
closed = 1;
nodes = (
(300,610,l),
(474,610,l),
(474,700,l),
(300,700,l)
);
}
);
userData = {
com.hugojourdan.ColorFlow = {
"0" = 0;
"1" = 0;
"10" = 0;
"11" = 0;
"2" = 0;
"3" = 0;
"4" = 0;
"5" = 0;
"6" = 0;
"7" = 0;
"8" = 0;
"9" = 0;
};
};
width = 494;
},
{
layerId = m002;
shapes = (
{
closed = 1;
nodes = (
(195,0,l),
(300,0,l),
(300,700,l),
(195,700,l)
);
},
{
closed = 1;
nodes = (
(20,610,l),
(195,610,l),
(195,700,l),
(20,700,l)
);
},
{
closed = 1;
nodes = (
(300,610,l),
(474,610,l),
(474,700,l),
(300,700,l)
);
}
);
userData = {
com.hugojourdan.ColorFlow = {
"0" = 0;
"1" = 0;
"10" = 0;
"11" = 0;
"2" = 0;
"3" = 0;
"4" = 0;
"5" = 0;
"6" = 0;
"7" = 0;
"8" = 0;
"9" = 0;
};
};
width = 494;
},
{
layerId = m003;
shapes = (
{
closed = 1;
nodes = (
(195,0,l),
(300,0,l),
(300,700,l),
(195,700,l)
);
},
{
closed = 1;
nodes = (
(20,610,l),
(195,610,l),
(195,700,l),
(20,700,l)
);
},
{
closed = 1;
nodes = (
(300,610,l),
(474,610,l),
(474,700,l),
(300,700,l)
);
}
);
userData = {
com.hugojourdan.ColorFlow = {
"0" = 0;
"1" = 0;
"10" = 0;
"11" = 0;
"2" = 0;
"3" = 0;
"4" = 0;
"5" = 0;
"6" = 0;
"7" = 0;
"8" = 0;
"9" = 0;
};
};
width = 494;
}
);
metricLeft = "=20";
metricRight = "=20";
unicode = 84;
},
{
glyphname = U;
kernLeft = U;
kernRight = U;
layers = (
{
layerId = m01;
shapes = (
{
closed = 1;
nodes = (
(486,260,l),
(486,133,o),
(403,92,o),
(328,92,c),
(253,92,o),
(175,133,o),
(175,260,c),
(175,700,l),
(70,700,l),
(70,240,l),
(70,103,o),
(171,-8,o),
(326,-8,c),
(481,-8,o),
(591,101,o),
(591,240,c),
(591,700,l),
(486,700,l)
);
}
);
userData = {
com.hugojourdan.ColorFlow = {
"0" = 0;
"1" = 0;
"10" = 0;
"11" = 0;
"2" = 0;
"3" = 0;
"4" = 0;
"5" = 0;
"6" = 0;
"7" = 0;
"8" = 0;
"9" = 0;
};
};
width = 661;
},
{
layerId = m002;
shapes = (
{
closed = 1;
nodes = (
(466,260,l),
(466,133,o),
(383,92,o),
(308,92,c),
(233,92,o),
(155,133,o),
(155,260,c),
(155,700,l),
(50,700,l),
(50,240,l),
(50,103,o),
(151,-8,o),
(306,-8,c),
(461,-8,o),
(571,101,o),
(571,240,c),
(571,700,l),
(466,700,l)
);
}
);
userData = {
com.hugojourdan.ColorFlow = {
"0" = 0;
"1" = 0;
"10" = 0;
"11" = 0;
"2" = 0;
"3" = 0;
"4" = 0;
"5" = 0;
"6" = 0;
"7" = 0;
"8" = 0;
"9" = 0;
};
};
width = 621;
},
{
layerId = m003;
shapes = (
{
closed = 1;
nodes = (
(486,260,l),
(486,133,o),
(403,92,o),
(328,92,c),
(253,92,o),
(175,133,o),
(175,260,c),
(175,700,l),
(70,700,l),
(70,240,l),
(70,103,o),
(171,-8,o),
(326,-8,c),
(481,-8,o),
(591,101,o),
(591,240,c),
(591,700,l),
(486,700,l)
);
}
);
userData = {
com.hugojourdan.ColorFlow = {
"0" = 0;
"1" = 0;
"10" = 0;
"11" = 0;
"2" = 0;
"3" = 0;
"4" = 0;
"5" = 0;
"6" = 0;
"7" = 0;
"8" = 0;
"9" = 0;
};
};
width = 660;
}
);
unicode = 85;
},
{
glyphname = V;
kernLeft = V;
kernRight = V;
layers = (
{
layerId = m01;
shapes = (
{
closed = 1;
nodes = (
(303,0,l),
(443,0,l),
(707,700,l),
(602,700,l),
(371,110,l),
(142,701,l),
(37,701,l)
);
}
);
userData = {
com.hugojourdan.ColorFlow = {
"0" = 0;
"1" = 0;
"10" = 0;
"11" = 0;
"2" = 0;
"3" = 0;
"4" = 0;
"5" = 0;
"6" = 0;
"7" = 0;
"8" = 0;
"9" = 0;
};
};
width = 744;
},
{
layerId = m002;
shapes = (
{
closed = 1;
nodes = (
(283,0,l),
(423,0,l),
(687,700,l),
(582,700,l),
(351,110,l),
(122,701,l),
(17,701,l)
);
}
);
userData = {
com.hugojourdan.ColorFlow = {
"0" = 0;
"1" = 0;
"10" = 0;
"11" = 0;
"2" = 0;
"3" = 0;
"4" = 0;
"5" = 0;
"6" = 0;
"7" = 0;
"8" = 0;
"9" = 0;
};
};
width = 704;
},
{
layerId = m003;
shapes = (
{
closed = 1;
nodes = (
(296,0,l),
(436,0,l),
(700,700,l),
(595,700,l),
(364,110,l),
(135,700,l),
(30,700,l)
);
}
);
userData = {
com.hugojourdan.ColorFlow = {
"0" = 0;
"1" = 0;
"10" = 0;
"11" = 0;
"2" = 0;
"3" = 0;
"4" = 0;
"5" = 0;
"6" = 0;
"7" = 0;
"8" = 0;
"9" = 0;
};
};
width = 730;
}
);
metricLeft = "=v";
metricRight = "=v";
unicode = 86;
},
{
glyphname = W;
kernLeft = V;
kernRight = V;
layers = (
{
layerId = m01;
shapes = (
{
closed = 1;
nodes = (
(192,0,l),
(332,0,l),
(469,548,l),
(587,0,l),
(727,0,l),
(913,700,l),
(808,700,l),
(655,110,l),
(541,700,l),
(411,700,l),
(272,110,l),
(144,700,l),
(39,700,l)
);
}
);
userData = {
com.hugojourdan.ColorFlow = {
"0" = 0;
"1" = 0;
"10" = 0;
"11" = 0;
"2" = 0;
"3" = 0;
"4" = 0;
"5" = 0;
"6" = 0;
"7" = 0;
"8" = 0;
"9" = 0;
};
};
width = 950;
},
{
associatedMasterId = m01;
layerId = "0084DC26-9980-463B-9F41-BEB6D52AE52E";
name = "14. Jun 23, 11:30";
shapes = (
{
closed = 1;
nodes = (
(252,0,l),
(391,0,l),
(503,570,l),
(637,0,l),
(776,0,l),
(989,700,l),
(884,700,l),
(715,110,l),
(569,700,l),
(430,700,l),
(315,110,l),
(115,701,l),
(10,701,l)
);
}
);
userData = {
com.hugojourdan.ColorFlow = {
"0" = 0;
"1" = 0;
"10" = 0;
"11" = 0;
"2" = 0;
"3" = 0;
"4" = 0;
"5" = 0;
"6" = 0;
"7" = 0;
"8" = 0;
"9" = 0;
};
};
width = 999;
},
{
layerId = m002;
shapes = (
{
closed = 1;
nodes = (
(172,0,l),
(312,0,l),
(449,548,l),
(567,0,l),
(707,0,l),
(893,700,l),
(788,700,l),
(635,110,l),
(521,700,l),
(391,700,l),
(252,110,l),
(124,700,l),
(19,700,l)
);
}
);
userData = {
com.hugojourdan.ColorFlow = {
"0" = 0;
"1" = 0;
"10" = 0;
"11" = 0;
"2" = 0;
"3" = 0;
"4" = 0;
"5" = 0;
"6" = 0;
"7" = 0;
"8" = 0;
"9" = 0;
};
};
width = 910;
},
{
associatedMasterId = m002;
layerId = "F2570CF6-2BB4-4EC7-9029-223169ADAC98";
name = "14. Jun 23, 11:30";
shapes = (
{
closed = 1;
nodes = (
(252,0,l),
(391,0,l),
(503,570,l),
(637,0,l),
(776,0,l),
(989,700,l),
(884,700,l),
(715,110,l),
(569,700,l),
(430,700,l),
(315,110,l),
(115,701,l),
(10,701,l)
);
}
);
userData = {
com.hugojourdan.ColorFlow = {
"0" = 0;
"1" = 0;
"10" = 0;
"11" = 0;
"2" = 0;
"3" = 0;
"4" = 0;
"5" = 0;
"6" = 0;
"7" = 0;
"8" = 0;
"9" = 0;
};
};
width = 999;
},
{
layerId = m003;
shapes = (
{
closed = 1;
nodes = (
(183,0,l),
(323,0,l),
(460,548,l),
(578,0,l),
(718,0,l),
(904,700,l),
(799,700,l),
(646,110,l),
(532,700,l),
(402,700,l),
(263,110,l),
(135,700,l),
(30,700,l)
);
}
);
userData = {
com.hugojourdan.ColorFlow = {
"0" = 0;
"1" = 0;
"10" = 0;
"11" = 0;
"2" = 0;
"3" = 0;
"4" = 0;
"5" = 0;
"6" = 0;
"7" = 0;
"8" = 0;
"9" = 0;
};
};
width = 934;
},
{
associatedMasterId = m003;
layerId = "B153EBBB-0B9E-4A6B-B76D-1112A21CED66";
name = "14. Jun 23, 11:30";
shapes = (
{
closed = 1;
nodes = (
(252,0,l),
(391,0,l),
(503,570,l),
(637,0,l),
(776,0,l),
(989,700,l),
(884,700,l),
(715,110,l),
(569,700,l),
(430,700,l),
(315,110,l),
(115,701,l),
(10,701,l)
);
}
);
userData = {
com.hugojourdan.ColorFlow = {
"0" = 0;
"1" = 0;
"10" = 0;
"11" = 0;
"2" = 0;
"3" = 0;
"4" = 0;
"5" = 0;
"6" = 0;
"7" = 0;
"8" = 0;
"9" = 0;
};
};
width = 999;
}
);
unicode = 87;
},
{
glyphname = X;
kernLeft = X;
kernRight = X;
layers = (
{
layerId = m01;
shapes = (
{
closed = 1;
nodes = (
(284,351,l),
(40,0,l),
(163,0,l),
(347,256,l),
(528,0,l),
(645,0,l),
(408,351,l),
(642,700,l),
(521,700,l),
(347,432,l),
(159,700,l),
(37,700,l)
);
}
);
userData = {
com.hugojourdan.ColorFlow = {
"0" = 0;
"1" = 0;
"10" = 0;
"11" = 0;
"2" = 0;
"3" = 0;
"4" = 0;
"5" = 0;
"6" = 0;
"7" = 0;
"8" = 0;
"9" = 0;
};
};
width = 682;
},
{
layerId = m002;
shapes = (
{
closed = 1;
nodes = (
(264,351,l),
(20,0,l),
(143,0,l),
(327,256,l),
(508,0,l),
(625,0,l),
(388,351,l),
(622,700,l),
(501,700,l),
(327,432,l),
(139,700,l),
(17,700,l)
);
}
);
userData = {
com.hugojourdan.ColorFlow = {
"0" = 0;
"1" = 0;
"10" = 0;
"11" = 0;
"2" = 0;
"3" = 0;
"4" = 0;
"5" = 0;
"6" = 0;
"7" = 0;
"8" = 0;
"9" = 0;
};
};
width = 642;
},
{
layerId = m003;
shapes = (
{
closed = 1;
nodes = (
(277,351,l),
(33,0,l),
(156,0,l),
(340,256,l),
(521,0,l),
(638,0,l),
(401,351,l),
(635,700,l),
(514,700,l),
(340,432,l),
(152,700,l),
(30,700,l)
);
}
);
userData = {
com.hugojourdan.ColorFlow = {
"0" = 0;
"1" = 0;
"10" = 0;
"11" = 0;
"2" = 0;
"3" = 0;
"4" = 0;
"5" = 0;
"6" = 0;
"7" = 0;
"8" = 0;
"9" = 0;
};
};
width = 668;
}
);
metricLeft = "=V";
metricRight = "=V";
unicode = 88;
},
{
glyphname = Y;
kernLeft = Y;
kernRight = Y;
layers = (
{
layerId = m01;
shapes = (
{
closed = 1;
nodes = (
(291,260,l),
(292,260,l),
(292,0,l),
(397,0,l),
(397,260,l),
(667,700,l),
(562,700,l),
(343,351,l),
(142,701,l),
(37,701,l)
);
}
);
userData = {
com.hugojourdan.ColorFlow = {
"0" = 0;
"1" = 0;
"10" = 0;
"11" = 0;
"2" = 0;
"3" = 0;
"4" = 0;
"5" = 0;
"6" = 0;
"7" = 0;
"8" = 0;
"9" = 0;
};
};
width = 704;
},
{
layerId = m002;
shapes = (
{
closed = 1;
nodes = (
(271,260,l),
(272,260,l),
(272,0,l),
(377,0,l),
(377,260,l),
(647,700,l),
(542,700,l),
(323,351,l),
(122,701,l),
(17,701,l)
);
}
);
userData = {
com.hugojourdan.ColorFlow = {
"0" = 0;
"1" = 0;
"10" = 0;
"11" = 0;
"2" = 0;
"3" = 0;
"4" = 0;
"5" = 0;
"6" = 0;
"7" = 0;
"8" = 0;
"9" = 0;
};
};
width = 664;
},
{
layerId = m003;
shapes = (
{
closed = 1;
nodes = (
(284,260,l),
(285,260,l),
(285,0,l),
(390,0,l),
(390,260,l),
(660,700,l),
(555,700,l),
(336,351,l),
(135,700,l),
(30,700,l)
);
}
);
userData = {
com.hugojourdan.ColorFlow = {
"0" = 0;
"1" = 0;
"10" = 0;
"11" = 0;
"2" = 0;
"3" = 0;
"4" = 0;
"5" = 0;
"6" = 0;
"7" = 0;
"8" = 0;
"9" = 0;
};
};
width = 690;
}
);
metricLeft = "=V";
metricRight = "=V";
unicode = 89;
},
{
glyphname = Z;
kernLeft = Z;
kernRight = Z;
layers = (
{
layerId = m01;
shapes = (
{
closed = 1;
nodes = (
(164,90,l),
(578,617,l),
(578,699,l),
(47,699,l),
(47,609,l),
(456,609,l),
(47,90,l),
(48,0,l),
(560,0,l),
(560,90,l)
);
}
);
userData = {
com.hugojourdan.ColorFlow = {
"0" = 0;
"1" = 0;
"10" = 0;
"11" = 0;
"2" = 0;
"3" = 0;
"4" = 0;
"5" = 0;
"6" = 0;
"7" = 0;
"8" = 0;
"9" = 0;
};
};
width = 621;
},
{
layerId = m002;
shapes = (
{
closed = 1;
nodes = (
(144,90,l),
(558,617,l),
(558,699,l),
(27,699,l),
(27,609,l),
(436,609,l),
(27,90,l),
(28,0,l),
(540,0,l),
(540,90,l)
);
}
);
userData = {
com.hugojourdan.ColorFlow = {
"0" = 0;
"1" = 0;
"10" = 0;
"11" = 0;
"2" = 0;
"3" = 0;
"4" = 0;
"5" = 0;
"6" = 0;
"7" = 0;
"8" = 0;
"9" = 0;
};
};
width = 581;
},
{
layerId = m003;
shapes = (
{
closed = 1;
nodes = (
(198,90,l),
(612,617,l),
(612,699,l),
(81,699,l),
(81,609,l),
(490,609,l),
(81,90,l),
(82,0,l),
(594,0,l),
(594,90,l)
);
}
);
userData = {
com.hugojourdan.ColorFlow = {
"0" = 0;
"1" = 0;
"10" = 0;
"11" = 0;
"2" = 0;
"3" = 0;
"4" = 0;
"5" = 0;
"6" = 0;
"7" = 0;
"8" = 0;
"9" = 0;
};
};
width = 660;
}
);
unicode = 90;
},
{
glyphname = A.init;
kernLeft = A;
kernRight = A;
layers = (
{
layerId = m01;
shapes = (
{
closed = 1;
nodes = (
(150,0,l),
(379,591,l),
(610,0,l),
(715,0,l),
(451,701,l),
(311,701,l),
(45,0,l)
);
},
{
closed = 1;
nodes = (
(187,210,l),
(567,210,l),
(567,300,l),
(187,300,l)
);
}
);
userData = {
com.hugojourdan.ColorFlow = {
"0" = 0;
"1" = 0;
"10" = 0;
"11" = 0;
"2" = 0;
"3" = 0;
"4" = 0;
"5" = 0;
"6" = 0;
"7" = 0;
"8" = 0;
"9" = 0;
};
};
width = 760;
},
{
layerId = m002;
shapes = (
{
closed = 1;
nodes = (
(157,213,l),
(386,643,l),
(617,-110,l),
(722,-183,l),
(458,703,l),
(318,801,l),
(52,286,l)
);
},
{
closed = 1;
nodes = (
(194,397,l),
(574,131,l),
(574,221,l),
(194,487,l)
);
}
);
userData = {
com.hugojourdan.ColorFlow = {
"0" = 0;
"1" = 0;
"10" = 0;
"11" = 0;
"2" = 0;
"3" = 0;
"4" = 0;
"5" = 0;
"6" = 0;
"7" = 0;
"8" = 0;
"9" = 0;
};
};
width = 774;
},
{
layerId = m003;
shapes = (
{
closed = 1;
nodes = (
(155,100,l),
(384,691,l),
(615,100,l),
(720,100,l),
(456,801,l),
(316,801,l),
(50,100,l)
);
},
{
closed = 1;
nodes = (
(192,310,l),
(572,310,l),
(572,400,l),
(192,400,l)
);
}
);
userData = {
com.hugojourdan.ColorFlow = {
"0" = 0;
"1" = 0;
"10" = 0;
"11" = 0;
"2" = 0;
"3" = 0;
"4" = 0;
"5" = 0;
"6" = 0;
"7" = 0;
"8" = 0;
"9" = 0;
};
};
width = 770;
}
);
metricLeft = "=H";
metricRight = "=H";
},
{
glyphname = B.init;
kernLeft = H;
kernRight = B;
layers = (
{
layerId = m01;
shapes = (
{
closed = 1;
nodes = (
(302,0,ls),
(478,0,o),
(563,67,o),
(563,212,cs),
(563,276,o),
(536,334,o),
(461,373,c),
(509,409,o),
(536,456,o),
(536,524,cs),
(536,640,o),
(444,700,o),
(302,700,cs),
(45,700,l),
(45,0,l)
);
},
{
closed = 1;
nodes = (
(150,327,l),
(302,327,ls),
(398,327,o),
(458,277,o),
(458,212,cs),
(458,136,o),
(413,91,o),
(302,90,cs),
(150,89,l)
);
},
{
closed = 1;
nodes = (
(150,610,l),
(302,610,ls),
(374,610,o),
(431,580,o),
(431,524,cs),
(431,452,o),
(391,417,o),
(302,417,cs),
(150,417,l)
);
}
);
userData = {
com.hugojourdan.ColorFlow = {
"0" = 0;
"1" = 0;
"10" = 0;
"11" = 0;
"2" = 0;
"3" = 0;
"4" = 0;
"5" = 0;
"6" = 0;
"7" = 0;
"8" = 0;
"9" = 0;
};
};
width = 563;
},
{
layerId = m002;
shapes = (
{
closed = 1;
nodes = (
(309,-69,ls),
(485,-192,o),
(570,-184,o),
(570,-39,cs),
(570,25,o),
(543,102,o),
(468,193,c),
(516,195,o),
(543,224,o),
(543,292,cs),
(543,408,o),
(451,532,o),
(309,631,cs),
(52,811,l),
(52,111,l)
);
},
{
closed = 1;
nodes = (
(157,365,l),
(309,258,ls),
(405,191,o),
(465,99,o),
(465,34,cs),
(465,-42,o),
(420,-55,o),
(309,21,cs),
(157,127,l)
);
},
{
closed = 1;
nodes = (
(157,648,l),
(309,541,ls),
(381,491,o),
(438,421,o),
(438,365,cs),
(438,293,o),
(398,286,o),
(309,348,cs),
(157,455,l)
);
}
);
userData = {
com.hugojourdan.ColorFlow = {
"0" = 0;
"1" = 0;
"10" = 0;
"11" = 0;
"2" = 0;
"3" = 0;
"4" = 0;
"5" = 0;
"6" = 0;
"7" = 0;
"8" = 0;
"9" = 0;
};
};
width = 570;
},
{
layerId = m003;
shapes = (
{
closed = 1;
nodes = (
(307,100,ls),
(483,100,o),
(568,167,o),
(568,312,cs),
(568,376,o),
(541,434,o),
(466,473,c),
(514,509,o),
(541,556,o),
(541,624,cs),
(541,740,o),
(449,800,o),
(307,800,cs),
(50,800,l),
(50,100,l)
);
},
{
closed = 1;
nodes = (
(155,427,l),
(307,427,ls),
(403,427,o),
(463,377,o),
(463,312,cs),
(463,236,o),
(418,191,o),
(307,190,cs),
(155,189,l)
);
},
{
closed = 1;
nodes = (
(155,710,l),
(307,710,ls),
(379,710,o),
(436,680,o),
(436,624,cs),
(436,552,o),
(396,517,o),
(307,517,cs),
(155,517,l)
);
}
);
userData = {
com.hugojourdan.ColorFlow = {
"0" = 0;
"1" = 0;
"10" = 0;
"11" = 0;
"2" = 0;
"3" = 0;
"4" = 0;
"5" = 0;
"6" = 0;
"7" = 0;
"8" = 0;
"9" = 0;
};
};
width = 568;
}
);
metricLeft = "=H";
metricRight = "=0";
},
{
glyphname = C.init;
kernLeft = O;
kernRight = O;
layers = (
{
layerId = m01;
shapes = (
{
closed = 1;
nodes = (
(571,260,l),
(555,187,o),
(487,82,o),
(347,82,cs),
(207,82,o),
(130,185,o),
(130,350,cs),
(130,515,o),
(207,618,o),
(347,618,cs),
(487,618,o),
(558,517,o),
(571,435,c),
(676,452,l),
(636,610,o),
(542,708,o),
(347,708,cs),
(152,708,o),
(25,565,o),
(25,350,cs),
(25,135,o),
(152,-8,o),
(347,-8,cs),
(542,-8,o),
(636,97,o),
(676,243,c)
);
}
);
userData = {
com.hugojourdan.ColorFlow = {
"0" = 0;
"1" = 0;
"10" = 0;
"11" = 0;
"2" = 0;
"3" = 0;
"4" = 0;
"5" = 0;
"6" = 0;
"7" = 0;
"8" = 0;
"9" = 0;
};
};
width = 701;
},
{
layerId = m002;
shapes = (
{
closed = 1;
nodes = (
(589,106,l),
(573,44,o),
(505,-14,o),
(365,84,cs),
(225,182,o),
(148,339,o),
(148,504,cs),
(148,669,o),
(225,718,o),
(365,620,cs),
(505,522,o),
(576,372,o),
(589,281,c),
(694,224,l),
(654,410,o),
(560,574,o),
(365,710,cs),
(170,847,o),
(43,793,o),
(43,578,cs),
(43,363,o),
(170,131,o),
(365,-6,cs),
(560,-142,o),
(654,-103,o),
(694,15,c)
);
}
);
userData = {
com.hugojourdan.ColorFlow = {
"0" = 0;
"1" = 0;
"10" = 0;
"11" = 0;
"2" = 0;
"3" = 0;
"4" = 0;
"5" = 0;
"6" = 0;
"7" = 0;
"8" = 0;
"9" = 0;
};
};
width = 737;
},
{
layerId = m003;
shapes = (
{
closed = 1;
nodes = (
(576,360,l),
(560,287,o),
(492,182,o),
(352,182,cs),
(212,182,o),
(135,285,o),
(135,450,cs),
(135,615,o),
(212,718,o),
(352,718,cs),
(492,718,o),
(563,617,o),
(576,535,c),
(681,552,l),
(641,710,o),
(547,808,o),
(352,808,cs),
(157,808,o),
(30,665,o),
(30,450,cs),
(30,235,o),
(157,92,o),
(352,92,cs),
(547,92,o),
(641,197,o),
(681,343,c)
);
}
);
userData = {
com.hugojourdan.ColorFlow = {
"0" = 0;
"1" = 0;
"10" = 0;
"11" = 0;
"2" = 0;
"3" = 0;
"4" = 0;
"5" = 0;
"6" = 0;
"7" = 0;
"8" = 0;
"9" = 0;
};
};
width = 711;
}
);
metricLeft = "=O";
metricRight = "=O";
},
{
glyphname = D.init;
kernLeft = H;
kernRight = D;
layers = (
{
layerId = m01;
shapes = (
{
closed = 1;
nodes = (
(40,0,l),
(269,0,ls),
(464,0,o),
(606,140,o),
(606,350,cs),
(606,560,o),
(465,700,o),
(270,700,cs),
(40,700,l)
);
},
{
closed = 1;
nodes = (
(145,610,l),
(270,610,ls),
(403,610,o),
(501,510,o),
(501,350,cs),
(501,190,o),
(402,90,o),
(269,90,cs),
(145,90,l)
);
}
);
userData = {
com.hugojourdan.ColorFlow = {
"0" = 0;
"1" = 0;
"10" = 0;
"11" = 0;
"2" = 0;
"3" = 0;
"4" = 0;
"5" = 0;
"6" = 0;
"7" = 0;
"8" = 0;
"9" = 0;
};
};
width = 600;
},
{
layerId = m002;
shapes = (
{
closed = 1;
nodes = (
(49,114,l),
(278,-46,ls),
(473,-183,o),
(615,-142,o),
(615,68,cs),
(615,278,o),
(474,517,o),
(279,653,cs),
(49,814,l)
);
},
{
closed = 1;
nodes = (
(154,651,l),
(279,563,ls),
(412,470,o),
(510,301,o),
(510,141,cs),
(510,-19,o),
(411,-49,o),
(278,44,cs),
(154,131,l)
);
}
);
userData = {
com.hugojourdan.ColorFlow = {
"0" = 0;
"1" = 0;
"10" = 0;
"11" = 0;
"2" = 0;
"3" = 0;
"4" = 0;
"5" = 0;
"6" = 0;
"7" = 0;
"8" = 0;
"9" = 0;
};
};
width = 640;
},
{
layerId = m003;
shapes = (
{
closed = 1;
nodes = (
(70,100,l),
(299,100,ls),
(494,100,o),
(636,240,o),
(636,450,cs),
(636,660,o),
(495,800,o),
(300,800,cs),
(70,800,l)
);
},
{
closed = 1;
nodes = (
(175,710,l),
(300,710,ls),
(433,710,o),
(531,610,o),
(531,450,cs),
(531,290,o),
(432,190,o),
(299,190,cs),
(175,190,l)
);
}
);
userData = {
com.hugojourdan.ColorFlow = {
"0" = 0;
"1" = 0;
"10" = 0;
"11" = 0;
"2" = 0;
"3" = 0;
"4" = 0;
"5" = 0;
"6" = 0;
"7" = 0;
"8" = 0;
"9" = 0;
};
};
width = 660;
}
);
},
{
glyphname = E.init;
kernLeft = H;
kernRight = E;
layers = (
{
layerId = m01;
shapes = (
{
closed = 1;
nodes = (
(45,0,l),
(150,0,l),
(150,700,l),
(45,700,l)
);
},
{
closed = 1;
nodes = (
(150,319,l),
(457,319,l),
(457,409,l),
(150,409,l)
);
},
{
closed = 1;
nodes = (
(150,610,l),
(477,610,l),
(477,700,l),
(150,700,l)
);
},
{
closed = 1;
nodes = (
(150,0,l),
(477,0,l),
(477,90,l),
(150,90,l)
);
}
);
userData = {
com.hugojourdan.ColorFlow = {
"0" = 0;
"1" = 0;
"10" = 0;
"11" = 0;
"2" = 0;
"3" = 0;
"4" = 0;
"5" = 0;
"6" = 0;
"7" = 0;
"8" = 0;
"9" = 0;
};
};
width = 522;
},
{
layerId = m002;
shapes = (
{
closed = 1;
nodes = (
(52,110,l),
(157,37,l),
(157,737,l),
(52,810,l)
);
},
{
closed = 1;
nodes = (
(157,356,l),
(464,141,l),
(464,231,l),
(157,446,l)
);
},
{
closed = 1;
nodes = (
(157,647,l),
(484,418,l),
(484,508,l),
(157,737,l)
);
},
{
closed = 1;
nodes = (
(157,37,l),
(484,-192,l),
(484,-102,l),
(157,127,l)
);
}
);
userData = {
com.hugojourdan.ColorFlow = {
"0" = 0;
"1" = 0;
"10" = 0;
"11" = 0;
"2" = 0;
"3" = 0;
"4" = 0;
"5" = 0;
"6" = 0;
"7" = 0;
"8" = 0;
"9" = 0;
};
};
width = 536;
},
{
layerId = m003;
shapes = (
{
closed = 1;
nodes = (
(50,100,l),
(155,100,l),
(155,800,l),
(50,800,l)
);
},
{
closed = 1;
nodes = (
(155,419,l),
(462,419,l),
(462,509,l),
(155,509,l)
);
},
{
closed = 1;
nodes = (
(155,710,l),
(482,710,l),
(482,800,l),
(155,800,l)
);
},
{
closed = 1;
nodes = (
(155,100,l),
(482,100,l),
(482,190,l),
(155,190,l)
);
}
);
userData = {
com.hugojourdan.ColorFlow = {
"0" = 0;
"1" = 0;
"10" = 0;
"11" = 0;
"2" = 0;
"3" = 0;
"4" = 0;
"5" = 0;
"6" = 0;
"7" = 0;
"8" = 0;
"9" = 0;
};
};
width = 532;
}
);
metricLeft = "=H";
metricRight = "=H";
},
{
glyphname = F.init;
kernLeft = H;
kernRight = F;
layers = (
{
layerId = m01;
shapes = (
{
closed = 1;
nodes = (
(45,0,l),
(150,0,l),
(150,700,l),
(45,700,l)
);
},
{
closed = 1;
nodes = (
(150,328,l),
(397,328,l),
(397,418,l),
(150,418,l)
);
},
{
closed = 1;
nodes = (
(150,610,l),
(457,610,l),
(457,700,l),
(150,700,l)
);
}
);
userData = {
com.hugojourdan.ColorFlow = {
"0" = 0;
"1" = 0;
"10" = 0;
"11" = 0;
"2" = 0;
"3" = 0;
"4" = 0;
"5" = 0;
"6" = 0;
"7" = 0;
"8" = 0;
"9" = 0;
};
};
width = 502;
},
{
layerId = m002;
shapes = (
{
closed = 1;
nodes = (
(52,-19,l),
(157,-92,l),
(157,728,l),
(52,801,l)
);
},
{
closed = 1;
nodes = (
(157,356,l),
(404,183,l),
(404,273,l),
(157,446,l)
);
},
{
closed = 1;
nodes = (
(157,638,l),
(464,423,l),
(464,513,l),
(157,728,l)
);
}
);
userData = {
com.hugojourdan.ColorFlow = {
"0" = 0;
"1" = 0;
"10" = 0;
"11" = 0;
"2" = 0;
"3" = 0;
"4" = 0;
"5" = 0;
"6" = 0;
"7" = 0;
"8" = 0;
"9" = 0;
};
};
width = 516;
},
{
layerId = m003;
shapes = (
{
closed = 1;
nodes = (
(50,100,l),
(155,100,l),
(155,800,l),
(50,800,l)
);
},
{
closed = 1;
nodes = (
(155,428,l),
(402,428,l),
(402,518,l),
(155,518,l)
);
},
{
closed = 1;
nodes = (
(155,710,l),
(462,710,l),
(462,800,l),
(155,800,l)
);
}
);
userData = {
com.hugojourdan.ColorFlow = {
"0" = 0;
"1" = 0;
"10" = 0;
"11" = 0;
"2" = 0;
"3" = 0;
"4" = 0;
"5" = 0;
"6" = 0;
"7" = 0;
"8" = 0;
"9" = 0;
};
};
width = 512;
}
);
metricLeft = "=H";
metricRight = "=H";
},
{
glyphname = G.init;
kernLeft = O;
kernRight = G;
layers = (
{
layerId = m01;
shapes = (
{
closed = 1;
nodes = (
(676,370,l),
(334,369,l),
(334,279,l),
(555,279,l),
(554,184,o),
(487,82,o),
(347,82,cs),
(207,82,o),
(130,185,o),
(130,350,cs),
(130,515,o),
(207,618,o),
(347,618,cs),
(466,618,o),
(557,543,o),
(575,461,c),
(676,478,l),
(631,636,o),
(488,708,o),
(347,708,cs),
(152,708,o),
(25,565,o),
(25,350,cs),
(25,135,o),
(152,-8,o),
(347,-8,cs),
(542,-8,o),
(595,136,o),
(585,279,c),
(585,0,l),
(676,0,l)
);
}
);
userData = {
com.hugojourdan.ColorFlow = {
"0" = 0;
"1" = 0;
"10" = 0;
"11" = 0;
"2" = 0;
"3" = 0;
"4" = 0;
"5" = 0;
"6" = 0;
"7" = 0;
"8" = 0;
"9" = 0;
};
};
width = 701;
},
{
associatedMasterId = m01;
layerId = "6CD58B4D-0AF9-4DBA-A6FE-9DFBAF1342F0";
name = "19. Jul 23, 16:08";
shapes = (
{
closed = 1;
nodes = (
(571,280,l),
(571,185,o),
(487,82,o),
(347,82,cs),
(207,82,o),
(130,185,o),
(130,350,cs),
(130,515,o),
(207,618,o),
(347,618,cs),
(487,618,o),
(558,537,o),
(571,455,c),
(676,472,l),
(636,630,o),
(542,708,o),
(347,708,cs),
(152,708,o),
(25,565,o),
(25,350,cs),
(25,135,o),
(152,-8,o),
(347,-8,cs),
(542,-8,o),
(676,135,o),
(676,279,c)
);
},
{
closed = 1;
nodes = (
(354,279,l),
(676,279,l),
(676,379,l),
(354,379,l)
);
}
);
userData = {
com.hugojourdan.ColorFlow = {
"0" = 0;
"1" = 0;
"10" = 0;
"11" = 0;
"2" = 0;
"3" = 0;
"4" = 0;
"5" = 0;
"6" = 0;
"7" = 0;
"8" = 0;
"9" = 0;
};
};
width = 701;
},
{
associatedMasterId = m01;
layerId = "41AD4F1E-CF02-4B4E-83B1-0D201332BC78";
name = "19. Jul 23, 16:24";
shapes = (
{
closed = 1;
nodes = (
(676,369,l),
(334,369,l),
(334,279,l),
(571,279,l),
(570,184,o),
(487,82,o),
(347,82,cs),
(207,82,o),
(130,185,o),
(130,350,cs),
(130,515,o),
(207,618,o),
(347,618,cs),
(466,618,o),
(557,543,o),
(575,461,c),
(676,478,l),
(631,636,o),
(488,708,o),
(347,708,cs),
(152,708,o),
(25,565,o),
(25,350,cs),
(25,135,o),
(152,-8,o),
(347,-8,cs),
(542,-8,o),
(676,135,o),
(676,279,cs)
);
}
);
userData = {
com.hugojourdan.ColorFlow = {
"0" = 0;
"1" = 0;
"10" = 0;
"11" = 0;
"2" = 0;
"3" = 0;
"4" = 0;
"5" = 0;
"6" = 0;
"7" = 0;
"8" = 0;
"9" = 0;
};
};
width = 701;
},
{
layerId = m002;
shapes = (
{
closed = 1;
nodes = (
(694,162,l),
(352,401,l),
(352,311,l),
(573,156,l),
(572,62,o),
(505,6,o),
(365,104,cs),
(225,202,o),
(148,359,o),
(148,524,cs),
(148,689,o),
(225,738,o),
(365,640,cs),
(484,557,o),
(575,418,o),
(593,324,c),
(694,270,l),
(649,460,o),
(506,632,o),
(365,730,cs),
(170,867,o),
(43,813,o),
(43,598,cs),
(43,383,o),
(170,151,o),
(365,14,cs),
(560,-122,o),
(613,-15,o),
(603,135,c),
(603,-144,l),
(694,-208,l)
);
}
);
userData = {
com.hugojourdan.ColorFlow = {
"0" = 0;
"1" = 0;
"10" = 0;
"11" = 0;
"2" = 0;
"3" = 0;
"4" = 0;
"5" = 0;
"6" = 0;
"7" = 0;
"8" = 0;
"9" = 0;
};
};
width = 737;
},
{
associatedMasterId = m002;
layerId = "48FE7010-71DA-48E8-B752-A58A091291FF";
name = "19. Jul 23, 16:08";
shapes = (
{
closed = 1;
nodes = (
(571,280,l),
(571,185,o),
(487,82,o),
(347,82,cs),
(207,82,o),
(130,185,o),
(130,350,cs),
(130,515,o),
(207,618,o),
(347,618,cs),
(487,618,o),
(558,537,o),
(571,455,c),
(676,472,l),
(636,630,o),
(542,708,o),
(347,708,cs),
(152,708,o),
(25,565,o),
(25,350,cs),
(25,135,o),
(152,-8,o),
(347,-8,cs),
(542,-8,o),
(676,135,o),
(676,279,c)
);
},
{
closed = 1;
nodes = (
(354,279,l),
(676,279,l),
(676,379,l),
(354,379,l)
);
}
);
userData = {
com.hugojourdan.ColorFlow = {
"0" = 0;
"1" = 0;
"10" = 0;
"11" = 0;
"2" = 0;
"3" = 0;
"4" = 0;
"5" = 0;
"6" = 0;
"7" = 0;
"8" = 0;
"9" = 0;
};
};
width = 701;
},
{
associatedMasterId = m002;
layerId = "2B2E4C5F-21E6-4F4D-A0EE-7CA68E19DFF6";
name = "19. Jul 23, 16:24";
shapes = (
{
closed = 1;
nodes = (
(676,369,l),
(334,369,l),
(334,279,l),
(571,279,l),
(570,184,o),
(487,82,o),
(347,82,cs),
(207,82,o),
(130,185,o),
(130,350,cs),
(130,515,o),
(207,618,o),
(347,618,cs),
(466,618,o),
(557,543,o),
(575,461,c),
(676,478,l),
(631,636,o),
(488,708,o),
(347,708,cs),
(152,708,o),
(25,565,o),
(25,350,cs),
(25,135,o),
(152,-8,o),
(347,-8,cs),
(542,-8,o),
(676,135,o),
(676,279,cs)
);
}
);
userData = {
com.hugojourdan.ColorFlow = {
"0" = 0;
"1" = 0;
"10" = 0;
"11" = 0;
"2" = 0;
"3" = 0;
"4" = 0;
"5" = 0;
"6" = 0;
"7" = 0;
"8" = 0;
"9" = 0;
};
};
width = 701;
},
{
layerId = m003;
shapes = (
{
closed = 1;
nodes = (
(681,470,l),
(339,469,l),
(339,379,l),
(560,379,l),
(559,284,o),
(492,182,o),
(352,182,cs),
(212,182,o),
(135,285,o),
(135,450,cs),
(135,615,o),
(212,718,o),
(352,718,cs),
(471,718,o),
(562,643,o),
(580,561,c),
(681,578,l),
(636,736,o),
(493,808,o),
(352,808,cs),
(157,808,o),
(30,665,o),
(30,450,cs),
(30,235,o),
(157,92,o),
(352,92,cs),
(547,92,o),
(600,236,o),
(590,379,c),
(590,100,l),
(681,100,l)
);
}
);
userData = {
com.hugojourdan.ColorFlow = {
"0" = 0;
"1" = 0;
"10" = 0;
"11" = 0;
"2" = 0;
"3" = 0;
"4" = 0;
"5" = 0;
"6" = 0;
"7" = 0;
"8" = 0;
"9" = 0;
};
};
width = 711;
},
{
associatedMasterId = m003;
layerId = "49C96D89-2035-45A5-9B48-B3F9061A9CA7";
name = "19. Jul 23, 16:08";
shapes = (
{
closed = 1;
nodes = (
(571,280,l),
(571,185,o),
(487,82,o),
(347,82,cs),
(207,82,o),
(130,185,o),
(130,350,cs),
(130,515,o),
(207,618,o),
(347,618,cs),
(487,618,o),
(558,537,o),
(571,455,c),
(676,472,l),
(636,630,o),
(542,708,o),
(347,708,cs),
(152,708,o),
(25,565,o),
(25,350,cs),
(25,135,o),
(152,-8,o),
(347,-8,cs),
(542,-8,o),
(676,135,o),
(676,279,c)
);
},
{
closed = 1;
nodes = (
(354,279,l),
(676,279,l),
(676,379,l),
(354,379,l)
);
}
);
userData = {
com.hugojourdan.ColorFlow = {
"0" = 0;
"1" = 0;
"10" = 0;
"11" = 0;
"2" = 0;
"3" = 0;
"4" = 0;
"5" = 0;
"6" = 0;
"7" = 0;
"8" = 0;
"9" = 0;
};
};
width = 701;
},
{
associatedMasterId = m003;
layerId = "D052AF65-7E73-46C4-96B1-154FB495053B";
name = "19. Jul 23, 16:24";
shapes = (
{
closed = 1;
nodes = (
(676,369,l),
(334,369,l),
(334,279,l),
(571,279,l),
(570,184,o),
(487,82,o),
(347,82,cs),
(207,82,o),
(130,185,o),
(130,350,cs),
(130,515,o),
(207,618,o),
(347,618,cs),
(466,618,o),
(557,543,o),
(575,461,c),
(676,478,l),
(631,636,o),
(488,708,o),
(347,708,cs),
(152,708,o),
(25,565,o),
(25,350,cs),
(25,135,o),
(152,-8,o),
(347,-8,cs),
(542,-8,o),
(676,135,o),
(676,279,cs)
);
}
);
userData = {
com.hugojourdan.ColorFlow = {
"0" = 0;
"1" = 0;
"10" = 0;
"11" = 0;
"2" = 0;
"3" = 0;
"4" = 0;
"5" = 0;
"6" = 0;
"7" = 0;
"8" = 0;
"9" = 0;
};
};
width = 701;
}
);
metricLeft = "=O";
metricRight = "=O";
},
{
glyphname = H.init;
kernLeft = H;
kernRight = H;
layers = (
{
layerId = m01;
shapes = (
{
closed = 1;
nodes = (
(461,0,l),
(566,0,l),
(566,700,l),
(461,700,l)
);
},
{
closed = 1;
nodes = (
(45,0,l),
(150,0,l),
(150,700,l),
(45,700,l)
);
},
{
closed = 1;
nodes = (
(145,328,l),
(467,328,l),
(467,418,l),
(145,418,l)
);
}
);
userData = {
com.hugojourdan.ColorFlow = {
"0" = 0;
"1" = 0;
"10" = 0;
"11" = 0;
"2" = 0;
"3" = 0;
"4" = 0;
"5" = 0;
"6" = 0;
"7" = 0;
"8" = 0;
"9" = 0;
};
};
width = 611;
},
{
layerId = m002;
shapes = (
{
closed = 1;
nodes = (
(468,-159,l),
(573,-232,l),
(573,468,l),
(468,541,l)
);
},
{
closed = 1;
nodes = (
(52,132,l),
(157,59,l),
(157,759,l),
(52,832,l)
);
},
{
closed = 1;
nodes = (
(152,390,l),
(474,165,l),
(474,255,l),
(152,480,l)
);
}
);
userData = {
com.hugojourdan.ColorFlow = {
"0" = 0;
"1" = 0;
"10" = 0;
"11" = 0;
"2" = 0;
"3" = 0;
"4" = 0;
"5" = 0;
"6" = 0;
"7" = 0;
"8" = 0;
"9" = 0;
};
};
width = 625;
},
{
layerId = m003;
shapes = (
{
closed = 1;
nodes = (
(466,100,l),
(571,100,l),
(571,800,l),
(466,800,l)
);
},
{
closed = 1;
nodes = (
(50,100,l),
(155,100,l),
(155,800,l),
(50,800,l)
);
},
{
closed = 1;
nodes = (
(150,428,l),
(472,428,l),
(472,518,l),
(150,518,l)
);
}
);
userData = {
com.hugojourdan.ColorFlow = {
"0" = 0;
"1" = 0;
"10" = 0;
"11" = 0;
"2" = 0;
"3" = 0;
"4" = 0;
"5" = 0;
"6" = 0;
"7" = 0;
"8" = 0;
"9" = 0;
};
};
width = 621;
}
);
metricLeft = "=I";
metricRight = "=I";
},
{
glyphname = I.init;
kernLeft = I;
kernRight = I;
layers = (
{
layerId = m01;
shapes = (
{
closed = 1;
nodes = (
(45,0,l),
(150,0,l),
(150,700,l),
(45,700,l)
);
}
);
userData = {
com.hugojourdan.ColorFlow = {
"0" = 0;
"1" = 0;
"10" = 0;
"11" = 0;
"2" = 0;
"3" = 0;
"4" = 0;
"5" = 0;
"6" = 0;
"7" = 0;
"8" = 0;
"9" = 0;
};
};
width = 195;
},
{
layerId = m002;
shapes = (
{
closed = 1;
nodes = (
(52,-83,l),
(157,-157,l),
(157,733,l),
(52,807,l)
);
}
);
userData = {
com.hugojourdan.ColorFlow = {
"0" = 0;
"1" = 0;
"10" = 0;
"11" = 0;
"2" = 0;
"3" = 0;
"4" = 0;
"5" = 0;
"6" = 0;
"7" = 0;
"8" = 0;
"9" = 0;
};
};
width = 209;
},
{
layerId = m003;
shapes = (
{
closed = 1;
nodes = (
(50,100,l),
(155,100,l),
(155,800,l),
(50,800,l)
);
}
);
userData = {
com.hugojourdan.ColorFlow = {
"0" = 0;
"1" = 0;
"10" = 0;
"11" = 0;
"2" = 0;
"3" = 0;
"4" = 0;
"5" = 0;
"6" = 0;
"7" = 0;
"8" = 0;
"9" = 0;
};
};
width = 205;
}
);
metricLeft = "=i+10";
metricRight = "=i+10";
},
{
glyphname = J.init;
kernLeft = J;
kernRight = I;
layers = (
{
layerId = m01;
shapes = (
{
closed = 1;
nodes = (
(456,260,l),
(456,132,o),
(411,92,o),
(346,92,c),
(280,92,o),
(216,133,o),
(216,225,c),
(111,225,l),
(111,88,o),
(194,-8,o),
(354,-8,c),
(558,-8,o),
(561,151,o),
(561,240,c),
(561,700,l),
(456,700,l)
);
}
);
userData = {
com.hugojourdan.ColorFlow = {
"0" = 0;
"1" = 0;
"10" = 0;
"11" = 0;
"2" = 0;
"3" = 0;
"4" = 0;
"5" = 0;
"6" = 0;
"7" = 0;
"8" = 0;
"9" = 0;
};
};
width = 600;
},
{
layerId = m002;
shapes = (
{
closed = 1;
nodes = (
(363,56,l),
(363,-72,o),
(318,-81,o),
(253,-35,c),
(187,11,o),
(123,97,o),
(123,189,c),
(18,263,l),
(18,126,o),
(101,-29,o),
(261,-141,c),
(465,-283,o),
(468,-127,o),
(468,-38,c),
(468,732,l),
(363,806,l)
);
}
);
userData = {
com.hugojourdan.ColorFlow = {
"0" = 0;
"1" = 0;
"10" = 0;
"11" = 0;
"2" = 0;
"3" = 0;
"4" = 0;
"5" = 0;
"6" = 0;
"7" = 0;
"8" = 0;
"9" = 0;
};
};
width = 524;
},
{
layerId = m003;
shapes = (
{
closed = 1;
nodes = (
(486,360,l),
(486,232,o),
(441,192,o),
(376,192,c),
(310,192,o),
(246,233,o),
(246,325,c),
(141,325,l),
(141,188,o),
(224,92,o),
(384,92,c),
(588,92,o),
(591,251,o),
(591,340,c),
(591,800,l),
(486,800,l)
);
}
);
userData = {
com.hugojourdan.ColorFlow = {
"0" = 0;
"1" = 0;
"10" = 0;
"11" = 0;
"2" = 0;
"3" = 0;
"4" = 0;
"5" = 0;
"6" = 0;
"7" = 0;
"8" = 0;
"9" = 0;
};
};
width = 660;
}
);
},
{
glyphname = K.init;
kernLeft = H;
kernRight = K;
layers = (
{
layerId = m01;
shapes = (
{
closed = 1;
nodes = (
(416,0,l),
(539,0,l),
(266,348,l),
(559,707,l),
(434,707,l),
(146,348,l)
);
},
{
closed = 1;
nodes = (
(65,0,l),
(170,0,l),
(170,700,l),
(65,700,l)
);
}
);
userData = {
com.hugojourdan.ColorFlow = {
"0" = 0;
"1" = 0;
"10" = 0;
"11" = 0;
"2" = 0;
"3" = 0;
"4" = 0;
"5" = 0;
"6" = 0;
"7" = 0;
"8" = 0;
"9" = 0;
};
};
width = 600;
},
{
layerId = m002;
shapes = (
{
closed = 1;
nodes = (
(397,-133,l),
(520,-219,l),
(247,320,l),
(540,474,l),
(415,562,l),
(127,404,l)
);
},
{
closed = 1;
nodes = (
(46,113,l),
(151,39,l),
(151,739,l),
(46,813,l)
);
}
);
userData = {
com.hugojourdan.ColorFlow = {
"0" = 0;
"1" = 0;
"10" = 0;
"11" = 0;
"2" = 0;
"3" = 0;
"4" = 0;
"5" = 0;
"6" = 0;
"7" = 0;
"8" = 0;
"9" = 0;
};
};
width = 554;
},
{
layerId = m003;
shapes = (
{
closed = 1;
nodes = (
(446,100,l),
(569,100,l),
(296,448,l),
(589,807,l),
(464,807,l),
(176,448,l)
);
},
{
closed = 1;
nodes = (
(95,100,l),
(200,100,l),
(200,800,l),
(95,800,l)
);
}
);
userData = {
com.hugojourdan.ColorFlow = {
"0" = 0;
"1" = 0;
"10" = 0;
"11" = 0;
"2" = 0;
"3" = 0;
"4" = 0;
"5" = 0;
"6" = 0;
"7" = 0;
"8" = 0;
"9" = 0;
};
};
width = 660;
}
);
},
{
glyphname = L.init;
kernLeft = H;
kernRight = L;
layers = (
{
layerId = m01;
shapes = (
{
closed = 1;
nodes = (
(45,0,l),
(150,0,l),
(150,700,l),
(45,700,l)
);
},
{
closed = 1;
nodes = (
(150,0,l),
(477,0,l),
(477,90,l),
(150,90,l)
);
}
);
userData = {
com.hugojourdan.ColorFlow = {
"0" = 0;
"1" = 0;
"10" = 0;
"11" = 0;
"2" = 0;
"3" = 0;
"4" = 0;
"5" = 0;
"6" = 0;
"7" = 0;
"8" = 0;
"9" = 0;
};
};
width = 522;
},
{
layerId = m002;
shapes = (
{
closed = 1;
nodes = (
(52,111,l),
(157,38,l),
(157,738,l),
(52,811,l)
);
},
{
closed = 1;
nodes = (
(157,38,l),
(484,-191,l),
(484,-101,l),
(157,128,l)
);
}
);
userData = {
com.hugojourdan.ColorFlow = {
"0" = 0;
"1" = 0;
"10" = 0;
"11" = 0;
"2" = 0;
"3" = 0;
"4" = 0;
"5" = 0;
"6" = 0;
"7" = 0;
"8" = 0;
"9" = 0;
};
};
width = 536;
},
{
layerId = m003;
shapes = (
{
closed = 1;
nodes = (
(50,100,l),
(155,100,l),
(155,800,l),
(50,800,l)
);
},
{
closed = 1;
nodes = (
(155,100,l),
(482,100,l),
(482,190,l),
(155,190,l)
);
}
);
userData = {
com.hugojourdan.ColorFlow = {
"0" = 0;
"1" = 0;
"10" = 0;
"11" = 0;
"2" = 0;
"3" = 0;
"4" = 0;
"5" = 0;
"6" = 0;
"7" = 0;
"8" = 0;
"9" = 0;
};
};
width = 532;
}
);
metricLeft = "=H";
metricRight = "=H";
},
{
glyphname = M.init;
kernLeft = H;
kernRight = H;
layers = (
{
layerId = m01;
shapes = (
{
closed = 1;
nodes = (
(443,0,l),
(631,528,l),
(631,0,l),
(736,0,l),
(736,700,l),
(579,698,l),
(391,142,l),
(197,700,l),
(45,700,l),
(45,0,l),
(150,0,l),
(150,528,l),
(338,0,l)
);
}
);
userData = {
com.hugojourdan.ColorFlow = {
"0" = 0;
"1" = 0;
"10" = 0;
"11" = 0;
"2" = 0;
"3" = 0;
"4" = 0;
"5" = 0;
"6" = 0;
"7" = 0;
"8" = 0;
"9" = 0;
};
};
width = 781;
},
{
layerId = m002;
shapes = (
{
closed = 1;
nodes = (
(450,-7,l),
(638,390,l),
(638,-138,l),
(743,-212,l),
(743,488,l),
(586,596,l),
(398,172,l),
(204,865,l),
(52,972,l),
(52,272,l),
(157,198,l),
(157,726,l),
(345,67,l)
);
}
);
userData = {
com.hugojourdan.ColorFlow = {
"0" = 0;
"1" = 0;
"10" = 0;
"11" = 0;
"2" = 0;
"3" = 0;
"4" = 0;
"5" = 0;
"6" = 0;
"7" = 0;
"8" = 0;
"9" = 0;
};
};
width = 795;
},
{
layerId = m003;
shapes = (
{
closed = 1;
nodes = (
(448,100,l),
(636,628,l),
(636,100,l),
(741,100,l),
(741,800,l),
(584,798,l),
(396,242,l),
(202,800,l),
(50,800,l),
(50,100,l),
(155,100,l),
(155,628,l),
(343,100,l)
);
}
);
userData = {
com.hugojourdan.ColorFlow = {
"0" = 0;
"1" = 0;
"10" = 0;
"11" = 0;
"2" = 0;
"3" = 0;
"4" = 0;
"5" = 0;
"6" = 0;
"7" = 0;
"8" = 0;
"9" = 0;
};
};
width = 791;
}
);
metricLeft = "=H";
metricRight = "=H";
},
{
glyphname = N.init;
kernLeft = H;
kernRight = H;
layers = (
{
layerId = m01;
shapes = (
{
closed = 1;
nodes = (
(491,109,l),
(203,700,l),
(45,700,l),
(45,0,l),
(150,0,l),
(150,571,l),
(438,0,l),
(596,0,l),
(596,700,l),
(491,700,l)
);
}
);
userData = {
com.hugojourdan.ColorFlow = {
"0" = 0;
"1" = 0;
"10" = 0;
"11" = 0;
"2" = 0;
"3" = 0;
"4" = 0;
"5" = 0;
"6" = 0;
"7" = 0;
"8" = 0;
"9" = 0;
};
};
width = 641;
},
{
layerId = m002;
shapes = (
{
closed = 1;
nodes = (
(498,-22,l),
(210,770,l),
(52,881,l),
(52,181,l),
(157,107,l),
(157,678,l),
(445,-94,l),
(603,-205,l),
(603,495,l),
(498,569,l)
);
}
);
userData = {
com.hugojourdan.ColorFlow = {
"0" = 0;
"1" = 0;
"10" = 0;
"11" = 0;
"2" = 0;
"3" = 0;
"4" = 0;
"5" = 0;
"6" = 0;
"7" = 0;
"8" = 0;
"9" = 0;
};
};
width = 655;
},
{
layerId = m003;
shapes = (
{
closed = 1;
nodes = (
(496,209,l),
(208,800,l),
(50,800,l),
(50,100,l),
(155,100,l),
(155,671,l),
(443,100,l),
(601,100,l),
(601,800,l),
(496,800,l)
);
}
);
userData = {
com.hugojourdan.ColorFlow = {
"0" = 0;
"1" = 0;
"10" = 0;
"11" = 0;
"2" = 0;
"3" = 0;
"4" = 0;
"5" = 0;
"6" = 0;
"7" = 0;
"8" = 0;
"9" = 0;
};
};
width = 651;
}
);
metricLeft = "=H";
metricRight = "=H";
},
{
glyphname = O.init;
kernLeft = O;
kernRight = O;
layers = (
{
layerId = m01;
shapes = (
{
closed = 1;
nodes = (
(542,-8,o),
(676,135,o),
(676,350,cs),
(676,565,o),
(542,708,o),
(347,708,cs),
(152,708,o),
(25,565,o),
(25,350,cs),
(25,135,o),
(152,-8,o),
(347,-8,cs)
);
},
{
closed = 1;
nodes = (
(207,82,o),
(130,185,o),
(130,350,cs),
(130,515,o),
(207,618,o),
(347,618,cs),
(487,618,o),
(571,515,o),
(571,350,cs),
(571,185,o),
(487,82,o),
(347,82,cs)
);
}
);
userData = {
com.hugojourdan.ColorFlow = {
"0" = 0;
"1" = 0;
"10" = 0;
"11" = 0;
"2" = 0;
"3" = 0;
"4" = 0;
"5" = 0;
"6" = 0;
"7" = 0;
"8" = 0;
"9" = 0;
};
};
width = 701;
},
{
layerId = m002;
shapes = (
{
closed = 1;
nodes = (
(560,-142,o),
(694,-93,o),
(694,122,cs),
(694,337,o),
(560,574,o),
(365,710,cs),
(170,847,o),
(43,793,o),
(43,578,cs),
(43,363,o),
(170,131,o),
(365,-6,cs)
);
},
{
closed = 1;
nodes = (
(225,182,o),
(148,339,o),
(148,504,cs),
(148,669,o),
(225,718,o),
(365,620,cs),
(505,522,o),
(589,361,o),
(589,196,cs),
(589,31,o),
(505,-14,o),
(365,84,cs)
);
}
);
userData = {
com.hugojourdan.ColorFlow = {
"0" = 0;
"1" = 0;
"10" = 0;
"11" = 0;
"2" = 0;
"3" = 0;
"4" = 0;
"5" = 0;
"6" = 0;
"7" = 0;
"8" = 0;
"9" = 0;
};
};
width = 737;
},
{
layerId = m003;
shapes = (
{
closed = 1;
nodes = (
(547,92,o),
(681,235,o),
(681,450,cs),
(681,665,o),
(547,808,o),
(352,808,cs),
(157,808,o),
(30,665,o),
(30,450,cs),
(30,235,o),
(157,92,o),
(352,92,cs)
);
},
{
closed = 1;
nodes = (
(212,182,o),
(135,285,o),
(135,450,cs),
(135,615,o),
(212,718,o),
(352,718,cs),
(492,718,o),
(576,615,o),
(576,450,cs),
(576,285,o),
(492,182,o),
(352,182,cs)
);
}
);
userData = {
com.hugojourdan.ColorFlow = {
"0" = 0;
"1" = 0;
"10" = 0;
"11" = 0;
"2" = 0;
"3" = 0;
"4" = 0;
"5" = 0;
"6" = 0;
"7" = 0;
"8" = 0;
"9" = 0;
};
};
width = 711;
}
);
metricLeft = "=o+10";
metricRight = "=o+10";
},
{
glyphname = P.init;
kernLeft = H;
kernRight = P;
layers = (
{
layerId = m01;
shapes = (
{
closed = 1;
nodes = (
(45,0,l),
(150,0,l),
(150,700,l),
(45,700,l)
);
},
{
closed = 1;
nodes = (
(150,288,l),
(312,288,l),
(312,378,l),
(150,378,l)
);
},
{
closed = 1;
nodes = (
(150,610,l),
(312,610,l),
(312,700,l),
(150,700,l)
);
},
{
closed = 1;
nodes = (
(312,610,l),
(378,610,o),
(436,566,o),
(436,495,c),
(436,425,o),
(379,380,o),
(312,378,c),
(312,288,l),
(431,290,o),
(536,344,o),
(536,495,cs),
(536,646,o),
(431,700,o),
(312,700,c)
);
}
);
userData = {
com.hugojourdan.ColorFlow = {
"0" = 0;
"1" = 0;
"10" = 0;
"11" = 0;
"2" = 0;
"3" = 0;
"4" = 0;
"5" = 0;
"6" = 0;
"7" = 0;
"8" = 0;
"9" = 0;
};
};
width = 561;
},
{
associatedMasterId = m01;
layerId = "767DA48E-15D8-4720-A877-93C1F22FA51D";
name = "19. Jul 23, 15:23";
shapes = (
{
closed = 1;
nodes = (
(40,0,l),
(145,0,l),
(145,700,l),
(40,700,l)
);
},
{
closed = 1;
nodes = (
(145,288,l),
(307,288,l),
(307,378,l),
(145,378,l)
);
},
{
closed = 1;
nodes = (
(145,610,l),
(307,610,l),
(307,700,l),
(145,700,l)
);
},
{
closed = 1;
nodes = (
(307,610,l),
(373,610,o),
(431,569,o),
(431,486,c),
(431,409,o),
(374,380,o),
(307,378,c),
(307,288,l),
(426,290,o),
(531,335,o),
(531,486,cs),
(531,637,o),
(426,700,o),
(307,700,c)
);
}
);
userData = {
com.hugojourdan.ColorFlow = {
"0" = 0;
"1" = 0;
"10" = 0;
"11" = 0;
"2" = 0;
"3" = 0;
"4" = 0;
"5" = 0;
"6" = 0;
"7" = 0;
"8" = 0;
"9" = 0;
};
};
width = 556;
},
{
layerId = m002;
shapes = (
{
closed = 1;
nodes = (
(52,-8,l),
(157,-82,l),
(157,738,l),
(52,812,l)
);
},
{
closed = 1;
nodes = (
(157,326,l),
(319,213,l),
(319,303,l),
(157,416,l)
);
},
{
closed = 1;
nodes = (
(157,648,l),
(319,535,l),
(319,625,l),
(157,738,l)
);
},
{
closed = 1;
nodes = (
(319,535,l),
(385,489,o),
(443,404,o),
(443,333,c),
(443,263,o),
(386,258,o),
(319,303,c),
(319,213,l),
(438,132,o),
(543,112,o),
(543,263,cs),
(543,414,o),
(438,542,o),
(319,625,c)
);
}
);
userData = {
com.hugojourdan.ColorFlow = {
"0" = 0;
"1" = 0;
"10" = 0;
"11" = 0;
"2" = 0;
"3" = 0;
"4" = 0;
"5" = 0;
"6" = 0;
"7" = 0;
"8" = 0;
"9" = 0;
};
};
width = 586;
},
{
associatedMasterId = m002;
layerId = "4F1877E2-C10F-4519-B0C4-86CABB08FCFF";
name = "19. Jul 23, 15:23";
shapes = (
{
closed = 1;
nodes = (
(40,0,l),
(145,0,l),
(145,700,l),
(40,700,l)
);
},
{
closed = 1;
nodes = (
(145,288,l),
(307,288,l),
(307,378,l),
(145,378,l)
);
},
{
closed = 1;
nodes = (
(145,610,l),
(307,610,l),
(307,700,l),
(145,700,l)
);
},
{
closed = 1;
nodes = (
(307,610,l),
(373,610,o),
(431,569,o),
(431,486,c),
(431,409,o),
(374,380,o),
(307,378,c),
(307,288,l),
(426,290,o),
(531,335,o),
(531,486,cs),
(531,637,o),
(426,700,o),
(307,700,c)
);
}
);
userData = {
com.hugojourdan.ColorFlow = {
"0" = 0;
"1" = 0;
"10" = 0;
"11" = 0;
"2" = 0;
"3" = 0;
"4" = 0;
"5" = 0;
"6" = 0;
"7" = 0;
"8" = 0;
"9" = 0;
};
};
width = 556;
},
{
layerId = m003;
shapes = (
{
closed = 1;
nodes = (
(50,100,l),
(155,100,l),
(155,800,l),
(50,800,l)
);
},
{
closed = 1;
nodes = (
(155,388,l),
(317,388,l),
(317,478,l),
(155,478,l)
);
},
{
closed = 1;
nodes = (
(155,710,l),
(317,710,l),
(317,800,l),
(155,800,l)
);
},
{
closed = 1;
nodes = (
(317,710,l),
(383,710,o),
(441,666,o),
(441,595,c),
(441,525,o),
(384,480,o),
(317,478,c),
(317,388,l),
(436,390,o),
(541,444,o),
(541,595,cs),
(541,746,o),
(436,800,o),
(317,800,c)
);
}
);
userData = {
com.hugojourdan.ColorFlow = {
"0" = 0;
"1" = 0;
"10" = 0;
"11" = 0;
"2" = 0;
"3" = 0;
"4" = 0;
"5" = 0;
"6" = 0;
"7" = 0;
"8" = 0;
"9" = 0;
};
};
width = 571;
},
{
associatedMasterId = m003;
layerId = "DC565858-836A-446C-A2DA-BB744FBB2B33";
name = "19. Jul 23, 15:23";
shapes = (
{
closed = 1;
nodes = (
(40,0,l),
(145,0,l),
(145,700,l),
(40,700,l)
);
},
{
closed = 1;
nodes = (
(145,288,l),
(307,288,l),
(307,378,l),
(145,378,l)
);
},
{
closed = 1;
nodes = (
(145,610,l),
(307,610,l),
(307,700,l),
(145,700,l)
);
},
{
closed = 1;
nodes = (
(307,610,l),
(373,610,o),
(431,569,o),
(431,486,c),
(431,409,o),
(374,380,o),
(307,378,c),
(307,288,l),
(426,290,o),
(531,335,o),
(531,486,cs),
(531,637,o),
(426,700,o),
(307,700,c)
);
}
);
userData = {
com.hugojourdan.ColorFlow = {
"0" = 0;
"1" = 0;
"10" = 0;
"11" = 0;
"2" = 0;
"3" = 0;
"4" = 0;
"5" = 0;
"6" = 0;
"7" = 0;
"8" = 0;
"9" = 0;
};
};
width = 556;
}
);
metricLeft = "=H";
metricRight = "=O";
},
{
glyphname = Q.init;
kernLeft = O;
kernRight = Q;
layers = (
{
layerId = m01;
shapes = (
{
closed = 1;
nodes = (
(544,-8,o),
(676,135,o),
(676,350,cs),
(676,566,o),
(544,710,o),
(347,710,cs),
(154,710,o),
(25,566,o),
(25,350,cs),
(25,135,o),
(154,-8,o),
(347,-8,cs)
);
},
{
closed = 1;
nodes = (
(215,82,o),
(130,181,o),
(130,350,cs),
(130,513,o),
(211,620,o),
(347,620,cs),
(482,620,o),
(571,519,o),
(571,350,cs),
(571,188,o),
(488,82,o),
(347,82,cs)
);
},
{
closed = 1;
nodes = (
(362,168,l),
(606,-75,l),
(676,-3,l),
(432,241,l)
);
}
);
userData = {
com.hugojourdan.ColorFlow = {
"0" = 0;
"1" = 0;
"10" = 0;
"11" = 0;
"2" = 0;
"3" = 0;
"4" = 0;
"5" = 0;
"6" = 0;
"7" = 0;
"8" = 0;
"9" = 0;
};
};
width = 701;
},
{
layerId = m002;
shapes = (
{
closed = 1;
nodes = (
(543,-103,o),
(675,-53,o),
(675,162,cs),
(675,378,o),
(543,615,o),
(346,752,cs),
(153,888,o),
(24,834,o),
(24,618,cs),
(24,403,o),
(153,170,o),
(346,34,cs)
);
},
{
closed = 1;
nodes = (
(214,217,o),
(129,375,o),
(129,544,cs),
(129,707,o),
(210,758,o),
(346,662,cs),
(481,568,o),
(570,405,o),
(570,236,cs),
(570,74,o),
(487,26,o),
(346,124,cs)
);
},
{
closed = 1;
nodes = (
(361,200,l),
(605,-214,l),
(675,-191,l),
(431,224,l)
);
}
);
userData = {
com.hugojourdan.ColorFlow = {
"0" = 0;
"1" = 0;
"10" = 0;
"11" = 0;
"2" = 0;
"3" = 0;
"4" = 0;
"5" = 0;
"6" = 0;
"7" = 0;
"8" = 0;
"9" = 0;
};
};
width = 718;
},
{
layerId = m003;
shapes = (
{
closed = 1;
nodes = (
(574,92,o),
(706,235,o),
(706,450,cs),
(706,666,o),
(574,810,o),
(377,810,cs),
(184,810,o),
(55,666,o),
(55,450,cs),
(55,235,o),
(184,92,o),
(377,92,cs)
);
},
{
closed = 1;
nodes = (
(245,182,o),
(160,281,o),
(160,450,cs),
(160,613,o),
(241,720,o),
(377,720,cs),
(512,720,o),
(601,619,o),
(601,450,cs),
(601,288,o),
(518,182,o),
(377,182,cs)
);
},
{
closed = 1;
nodes = (
(392,268,l),
(636,25,l),
(706,97,l),
(462,341,l)
);
}
);
userData = {
com.hugojourdan.ColorFlow = {
"0" = 0;
"1" = 0;
"10" = 0;
"11" = 0;
"2" = 0;
"3" = 0;
"4" = 0;
"5" = 0;
"6" = 0;
"7" = 0;
"8" = 0;
"9" = 0;
};
};
width = 736;
}
);
metricRight = "=O";
},
{
glyphname = R.init;
kernLeft = H;
kernRight = R;
layers = (
{
layerId = m01;
shapes = (
{
closed = 1;
nodes = (
(45,0,l),
(150,0,l),
(150,700,l),
(45,700,l)
);
},
{
closed = 1;
nodes = (
(150,288,l),
(312,288,l),
(312,378,l),
(150,378,l)
);
},
{
closed = 1;
nodes = (
(150,610,l),
(312,610,l),
(312,700,l),
(150,700,l)
);
},
{
closed = 1;
nodes = (
(312,610,l),
(378,610,o),
(436,569,o),
(436,486,c),
(436,409,o),
(379,380,o),
(312,378,c),
(312,288,l),
(431,290,o),
(536,335,o),
(536,486,cs),
(536,637,o),
(431,700,o),
(312,700,c)
);
},
{
closed = 1;
nodes = (
(412,1,l),
(537,0,l),
(354,305,l),
(239,306,l)
);
}
);
userData = {
com.hugojourdan.ColorFlow = {
"0" = 0;
"1" = 0;
"10" = 0;
"11" = 0;
"2" = 0;
"3" = 0;
"4" = 0;
"5" = 0;
"6" = 0;
"7" = 0;
"8" = 0;
"9" = 0;
};
};
width = 562;
},
{
layerId = m002;
shapes = (
{
closed = 1;
nodes = (
(52,112,l),
(157,39,l),
(157,739,l),
(52,812,l)
);
},
{
closed = 1;
nodes = (
(157,327,l),
(319,213,l),
(319,303,l),
(157,417,l)
);
},
{
closed = 1;
nodes = (
(157,649,l),
(319,535,l),
(319,625,l),
(157,739,l)
);
},
{
closed = 1;
nodes = (
(319,535,l),
(385,489,o),
(443,407,o),
(443,324,c),
(443,247,o),
(386,258,o),
(319,303,c),
(319,213,l),
(438,132,o),
(543,103,o),
(543,254,cs),
(543,405,o),
(438,542,o),
(319,625,c)
);
},
{
closed = 1;
nodes = (
(419,-144,l),
(544,-232,l),
(361,201,l),
(246,282,l)
);
}
);
userData = {
com.hugojourdan.ColorFlow = {
"0" = 0;
"1" = 0;
"10" = 0;
"11" = 0;
"2" = 0;
"3" = 0;
"4" = 0;
"5" = 0;
"6" = 0;
"7" = 0;
"8" = 0;
"9" = 0;
};
};
width = 587;
},
{
layerId = m003;
shapes = (
{
closed = 1;
nodes = (
(50,100,l),
(155,100,l),
(155,800,l),
(50,800,l)
);
},
{
closed = 1;
nodes = (
(155,388,l),
(317,388,l),
(317,478,l),
(155,478,l)
);
},
{
closed = 1;
nodes = (
(155,710,l),
(317,710,l),
(317,800,l),
(155,800,l)
);
},
{
closed = 1;
nodes = (
(317,710,l),
(383,710,o),
(441,669,o),
(441,586,c),
(441,509,o),
(384,480,o),
(317,478,c),
(317,388,l),
(436,390,o),
(541,435,o),
(541,586,cs),
(541,737,o),
(436,800,o),
(317,800,c)
);
},
{
closed = 1;
nodes = (
(417,101,l),
(542,100,l),
(359,405,l),
(244,406,l)
);
}
);
userData = {
com.hugojourdan.ColorFlow = {
"0" = 0;
"1" = 0;
"10" = 0;
"11" = 0;
"2" = 0;
"3" = 0;
"4" = 0;
"5" = 0;
"6" = 0;
"7" = 0;
"8" = 0;
"9" = 0;
};
};
width = 572;
}
);
metricLeft = "=P";
metricRight = "=P";
},
{
glyphname = S.init;
kernLeft = S;
kernRight = S;
layers = (
{
layerId = m01;
shapes = (
{
closed = 1;
nodes = (
(20,242,o),
(448,361,o),
(448,195,c),
(448,134,o),
(381,93,o),
(275,93,cs),
(185,93,o),
(120,137,o),
(120,206,c),
(15,199,l),
(15,74,o),
(108,3,o),
(275,3,cs),
(448,3,o),
(553,88,o),
(553,209,cs),
(553,451,o),
(125,361,o),
(125,513,c),
(126,578,o),
(202,608,o),
(275,608,cs),
(364,608,o),
(446,562,o),
(446,493,c),
(551,500,l),
(551,624,o),
(448,698,o),
(275,698,cs),
(101,698,o),
(20,618,o),
(20,499,c)
);
}
);
userData = {
com.hugojourdan.ColorFlow = {
"0" = 0;
"1" = 0;
"10" = 0;
"11" = 0;
"2" = 0;
"3" = 0;
"4" = 0;
"5" = 0;
"6" = 0;
"7" = 0;
"8" = 0;
"9" = 0;
};
};
width = 568;
},
{
layerId = m002;
shapes = (
{
closed = 1;
nodes = (
(38,427,o),
(466,246,o),
(466,80,c),
(466,19,o),
(399,25,o),
(293,99,cs),
(203,162,o),
(138,252,o),
(138,321,c),
(33,387,l),
(33,262,o),
(126,126,o),
(293,9,cs),
(466,-112,o),
(571,-100,o),
(571,21,cs),
(571,263,o),
(143,472,o),
(143,624,c),
(144,689,o),
(220,665,o),
(293,614,cs),
(382,552,o),
(464,449,o),
(464,380,c),
(569,313,l),
(569,437,o),
(466,583,o),
(293,704,cs),
(119,826,o),
(38,803,o),
(38,684,c)
);
}
);
userData = {
com.hugojourdan.ColorFlow = {
"0" = 0;
"1" = 0;
"10" = 0;
"11" = 0;
"2" = 0;
"3" = 0;
"4" = 0;
"5" = 0;
"6" = 0;
"7" = 0;
"8" = 0;
"9" = 0;
};
};
width = 604;
},
{
layerId = m003;
shapes = (
{
closed = 1;
nodes = (
(25,352,o),
(453,471,o),
(453,305,c),
(453,244,o),
(386,203,o),
(280,203,cs),
(190,203,o),
(125,247,o),
(125,316,c),
(20,309,l),
(20,184,o),
(113,113,o),
(280,113,cs),
(453,113,o),
(558,198,o),
(558,319,cs),
(558,561,o),
(130,471,o),
(130,623,c),
(131,688,o),
(207,718,o),
(280,718,cs),
(369,718,o),
(451,672,o),
(451,603,c),
(556,610,l),
(556,734,o),
(453,808,o),
(280,808,cs),
(106,808,o),
(25,728,o),
(25,609,c)
);
}
);
userData = {
com.hugojourdan.ColorFlow = {
"0" = 0;
"1" = 0;
"10" = 0;
"11" = 0;
"2" = 0;
"3" = 0;
"4" = 0;
"5" = 0;
"6" = 0;
"7" = 0;
"8" = 0;
"9" = 0;
};
};
width = 578;
}
);
metricLeft = "=s";
metricRight = "=s";
},
{
glyphname = T.init;
kernLeft = T;
kernRight = T;
layers = (
{
layerId = m01;
shapes = (
{
closed = 1;
nodes = (
(195,0,l),
(300,0,l),
(300,700,l),
(195,700,l)
);
},
{
closed = 1;
nodes = (
(20,610,l),
(195,610,l),
(195,700,l),
(20,700,l)
);
},
{
closed = 1;
nodes = (
(300,610,l),
(474,610,l),
(474,700,l),
(300,700,l)
);
}
);
userData = {
com.hugojourdan.ColorFlow = {
"0" = 0;
"1" = 0;
"10" = 0;
"11" = 0;
"2" = 0;
"3" = 0;
"4" = 0;
"5" = 0;
"6" = 0;
"7" = 0;
"8" = 0;
"9" = 0;
};
};
width = 494;
},
{
layerId = m002;
shapes = (
{
closed = 1;
nodes = (
(195,-14,l),
(300,-87,l),
(300,613,l),
(195,686,l)
);
},
{
closed = 1;
nodes = (
(20,719,l),
(195,596,l),
(195,686,l),
(20,809,l)
);
},
{
closed = 1;
nodes = (
(300,523,l),
(474,401,l),
(474,491,l),
(300,613,l)
);
}
);
userData = {
com.hugojourdan.ColorFlow = {
"0" = 0;
"1" = 0;
"10" = 0;
"11" = 0;
"2" = 0;
"3" = 0;
"4" = 0;
"5" = 0;
"6" = 0;
"7" = 0;
"8" = 0;
"9" = 0;
};
};
width = 494;
},
{
layerId = m003;
shapes = (
{
closed = 1;
nodes = (
(195,100,l),
(300,100,l),
(300,800,l),
(195,800,l)
);
},
{
closed = 1;
nodes = (
(20,710,l),
(195,710,l),
(195,800,l),
(20,800,l)
);
},
{
closed = 1;
nodes = (
(300,710,l),
(474,710,l),
(474,800,l),
(300,800,l)
);
}
);
userData = {
com.hugojourdan.ColorFlow = {
"0" = 0;
"1" = 0;
"10" = 0;
"11" = 0;
"2" = 0;
"3" = 0;
"4" = 0;
"5" = 0;
"6" = 0;
"7" = 0;
"8" = 0;
"9" = 0;
};
};
width = 494;
}
);
metricLeft = "=20";
metricRight = "=20";
},
{
glyphname = U.init;
kernLeft = U;
kernRight = U;
layers = (
{
layerId = m01;
shapes = (
{
closed = 1;
nodes = (
(456,260,l),
(456,133,o),
(373,92,o),
(298,92,c),
(223,92,o),
(145,133,o),
(145,260,c),
(145,700,l),
(40,700,l),
(40,240,l),
(40,103,o),
(141,-8,o),
(296,-8,c),
(451,-8,o),
(561,101,o),
(561,240,c),
(561,700,l),
(456,700,l)
);
}
);
userData = {
com.hugojourdan.ColorFlow = {
"0" = 0;
"1" = 0;
"10" = 0;
"11" = 0;
"2" = 0;
"3" = 0;
"4" = 0;
"5" = 0;
"6" = 0;
"7" = 0;
"8" = 0;
"9" = 0;
};
};
width = 600;
},
{
layerId = m002;
shapes = (
{
closed = 1;
nodes = (
(457,132,l),
(457,5,o),
(374,22,o),
(299,75,c),
(224,127,o),
(146,223,o),
(146,350,c),
(146,790,l),
(41,863,l),
(41,403,l),
(41,266,o),
(142,85,o),
(297,-24,c),
(452,-132,o),
(562,-100,o),
(562,39,c),
(562,499,l),
(457,572,l)
);
}
);
userData = {
com.hugojourdan.ColorFlow = {
"0" = 0;
"1" = 0;
"10" = 0;
"11" = 0;
"2" = 0;
"3" = 0;
"4" = 0;
"5" = 0;
"6" = 0;
"7" = 0;
"8" = 0;
"9" = 0;
};
};
width = 603;
},
{
layerId = m003;
shapes = (
{
closed = 1;
nodes = (
(486,360,l),
(486,233,o),
(403,192,o),
(328,192,c),
(253,192,o),
(175,233,o),
(175,360,c),
(175,800,l),
(70,800,l),
(70,340,l),
(70,203,o),
(171,92,o),
(326,92,c),
(481,92,o),
(591,201,o),
(591,340,c),
(591,800,l),
(486,800,l)
);
}
);
userData = {
com.hugojourdan.ColorFlow = {
"0" = 0;
"1" = 0;
"10" = 0;
"11" = 0;
"2" = 0;
"3" = 0;
"4" = 0;
"5" = 0;
"6" = 0;
"7" = 0;
"8" = 0;
"9" = 0;
};
};
width = 660;
}
);
},
{
glyphname = V.init;
kernLeft = V;
kernRight = V;
layers = (
{
layerId = m01;
shapes = (
{
closed = 1;
nodes = (
(303,0,l),
(443,0,l),
(707,700,l),
(602,700,l),
(371,110,l),
(142,701,l),
(37,701,l)
);
}
);
userData = {
com.hugojourdan.ColorFlow = {
"0" = 0;
"1" = 0;
"10" = 0;
"11" = 0;
"2" = 0;
"3" = 0;
"4" = 0;
"5" = 0;
"6" = 0;
"7" = 0;
"8" = 0;
"9" = 0;
};
};
width = 744;
},
{
layerId = m002;
shapes = (
{
closed = 1;
nodes = (
(283,-82,l),
(423,-180,l),
(687,335,l),
(582,409,l),
(351,-19,l),
(122,732,l),
(17,806,l)
);
}
);
userData = {
com.hugojourdan.ColorFlow = {
"0" = 0;
"1" = 0;
"10" = 0;
"11" = 0;
"2" = 0;
"3" = 0;
"4" = 0;
"5" = 0;
"6" = 0;
"7" = 0;
"8" = 0;
"9" = 0;
};
};
width = 704;
},
{
layerId = m003;
shapes = (
{
closed = 1;
nodes = (
(296,100,l),
(436,100,l),
(700,800,l),
(595,800,l),
(364,210,l),
(135,800,l),
(30,801,l)
);
}
);
userData = {
com.hugojourdan.ColorFlow = {
"0" = 0;
"1" = 0;
"10" = 0;
"11" = 0;
"2" = 0;
"3" = 0;
"4" = 0;
"5" = 0;
"6" = 0;
"7" = 0;
"8" = 0;
"9" = 0;
};
};
width = 730;
}
);
metricLeft = "=v";
metricRight = "=v";
},
{
glyphname = W.init;
kernLeft = V;
kernRight = V;
layers = (
{
layerId = m01;
shapes = (
{
closed = 1;
nodes = (
(173,0,l),
(313,0,l),
(450,548,l),
(568,0,l),
(708,0,l),
(894,700,l),
(789,700,l),
(636,110,l),
(522,700,l),
(392,700,l),
(253,110,l),
(125,700,l),
(20,700,l)
);
}
);
userData = {
com.hugojourdan.ColorFlow = {
"0" = 0;
"1" = 0;
"10" = 0;
"11" = 0;
"2" = 0;
"3" = 0;
"4" = 0;
"5" = 0;
"6" = 0;
"7" = 0;
"8" = 0;
"9" = 0;
};
};
width = 914;
},
{
associatedMasterId = m01;
layerId = "0084DC26-9980-463B-9F41-BEB6D52AE52E";
name = "14. Jun 23, 11:30";
shapes = (
{
closed = 1;
nodes = (
(252,0,l),
(391,0,l),
(503,570,l),
(637,0,l),
(776,0,l),
(989,700,l),
(884,700,l),
(715,110,l),
(569,700,l),
(430,700,l),
(315,110,l),
(115,701,l),
(10,701,l)
);
}
);
userData = {
com.hugojourdan.ColorFlow = {
"0" = 0;
"1" = 0;
"10" = 0;
"11" = 0;
"2" = 0;
"3" = 0;
"4" = 0;
"5" = 0;
"6" = 0;
"7" = 0;
"8" = 0;
"9" = 0;
};
};
width = 999;
},
{
layerId = m002;
shapes = (
{
closed = 1;
nodes = (
(169,169,l),
(309,71,l),
(446,523,l),
(564,-108,l),
(704,-206,l),
(890,364,l),
(785,438,l),
(632,-45,l),
(518,624,l),
(388,716,l),
(249,223,l),
(121,902,l),
(16,976,l)
);
}
);
userData = {
com.hugojourdan.ColorFlow = {
"0" = 0;
"1" = 0;
"10" = 0;
"11" = 0;
"2" = 0;
"3" = 0;
"4" = 0;
"5" = 0;
"6" = 0;
"7" = 0;
"8" = 0;
"9" = 0;
};
};
width = 905;
},
{
associatedMasterId = m002;
layerId = "F2570CF6-2BB4-4EC7-9029-223169ADAC98";
name = "14. Jun 23, 11:30";
shapes = (
{
closed = 1;
nodes = (
(252,0,l),
(391,0,l),
(503,570,l),
(637,0,l),
(776,0,l),
(989,700,l),
(884,700,l),
(715,110,l),
(569,700,l),
(430,700,l),
(315,110,l),
(115,701,l),
(10,701,l)
);
}
);
userData = {
com.hugojourdan.ColorFlow = {
"0" = 0;
"1" = 0;
"10" = 0;
"11" = 0;
"2" = 0;
"3" = 0;
"4" = 0;
"5" = 0;
"6" = 0;
"7" = 0;
"8" = 0;
"9" = 0;
};
};
width = 999;
},
{
layerId = m003;
shapes = (
{
closed = 1;
nodes = (
(183,100,l),
(323,100,l),
(460,648,l),
(578,100,l),
(718,100,l),
(904,800,l),
(799,800,l),
(646,210,l),
(532,800,l),
(402,800,l),
(263,210,l),
(135,800,l),
(30,800,l)
);
}
);
userData = {
com.hugojourdan.ColorFlow = {
"0" = 0;
"1" = 0;
"10" = 0;
"11" = 0;
"2" = 0;
"3" = 0;
"4" = 0;
"5" = 0;
"6" = 0;
"7" = 0;
"8" = 0;
"9" = 0;
};
};
width = 934;
},
{
associatedMasterId = m003;
layerId = "B153EBBB-0B9E-4A6B-B76D-1112A21CED66";
name = "14. Jun 23, 11:30";
shapes = (
{
closed = 1;
nodes = (
(252,0,l),
(391,0,l),
(503,570,l),
(637,0,l),
(776,0,l),
(989,700,l),
(884,700,l),
(715,110,l),
(569,700,l),
(430,700,l),
(315,110,l),
(115,701,l),
(10,701,l)
);
}
);
userData = {
com.hugojourdan.ColorFlow = {
"0" = 0;
"1" = 0;
"10" = 0;
"11" = 0;
"2" = 0;
"3" = 0;
"4" = 0;
"5" = 0;
"6" = 0;
"7" = 0;
"8" = 0;
"9" = 0;
};
};
width = 999;
}
);
},
{
glyphname = X.init;
kernLeft = X;
kernRight = X;
layers = (
{
layerId = m01;
shapes = (
{
closed = 1;
nodes = (
(284,351,l),
(40,0,l),
(163,0,l),
(347,256,l),
(528,0,l),
(645,0,l),
(408,351,l),
(642,700,l),
(521,700,l),
(347,432,l),
(159,700,l),
(37,700,l)
);
}
);
userData = {
com.hugojourdan.ColorFlow = {
"0" = 0;
"1" = 0;
"10" = 0;
"11" = 0;
"2" = 0;
"3" = 0;
"4" = 0;
"5" = 0;
"6" = 0;
"7" = 0;
"8" = 0;
"9" = 0;
};
};
width = 682;
},
{
layerId = m002;
shapes = (
{
closed = 1;
nodes = (
(264,391,l),
(20,211,l),
(143,125,l),
(327,252,l),
(508,-131,l),
(625,-213,l),
(388,304,l),
(622,489,l),
(501,574,l),
(327,428,l),
(139,827,l),
(17,913,l)
);
}
);
userData = {
com.hugojourdan.ColorFlow = {
"0" = 0;
"1" = 0;
"10" = 0;
"11" = 0;
"2" = 0;
"3" = 0;
"4" = 0;
"5" = 0;
"6" = 0;
"7" = 0;
"8" = 0;
"9" = 0;
};
};
width = 642;
},
{
layerId = m003;
shapes = (
{
closed = 1;
nodes = (
(277,451,l),
(33,100,l),
(156,100,l),
(340,356,l),
(521,100,l),
(638,100,l),
(401,451,l),
(635,800,l),
(514,800,l),
(340,532,l),
(152,800,l),
(30,800,l)
);
}
);
userData = {
com.hugojourdan.ColorFlow = {
"0" = 0;
"1" = 0;
"10" = 0;
"11" = 0;
"2" = 0;
"3" = 0;
"4" = 0;
"5" = 0;
"6" = 0;
"7" = 0;
"8" = 0;
"9" = 0;
};
};
width = 668;
}
);
metricLeft = "=V";
metricRight = "=V";
},
{
glyphname = Y.init;
kernLeft = Y;
kernRight = Y;
layers = (
{
layerId = m01;
shapes = (
{
closed = 1;
nodes = (
(291,260,l),
(292,260,l),
(292,0,l),
(397,0,l),
(397,260,l),
(667,700,l),
(562,700,l),
(343,351,l),
(142,701,l),
(37,701,l)
);
}
);
userData = {
com.hugojourdan.ColorFlow = {
"0" = 0;
"1" = 0;
"10" = 0;
"11" = 0;
"2" = 0;
"3" = 0;
"4" = 0;
"5" = 0;
"6" = 0;
"7" = 0;
"8" = 0;
"9" = 0;
};
};
width = 704;
},
{
layerId = m002;
shapes = (
{
closed = 1;
nodes = (
(271,193,l),
(272,192,l),
(272,-68,l),
(377,-142,l),
(377,118,l),
(647,369,l),
(542,443,l),
(323,247,l),
(122,738,l),
(17,812,l)
);
}
);
userData = {
com.hugojourdan.ColorFlow = {
"0" = 0;
"1" = 0;
"10" = 0;
"11" = 0;
"2" = 0;
"3" = 0;
"4" = 0;
"5" = 0;
"6" = 0;
"7" = 0;
"8" = 0;
"9" = 0;
};
};
width = 664;
},
{
layerId = m003;
shapes = (
{
closed = 1;
nodes = (
(284,360,l),
(285,360,l),
(285,100,l),
(390,100,l),
(390,360,l),
(660,800,l),
(555,800,l),
(336,451,l),
(135,800,l),
(30,800,l)
);
}
);
userData = {
com.hugojourdan.ColorFlow = {
"0" = 0;
"1" = 0;
"10" = 0;
"11" = 0;
"2" = 0;
"3" = 0;
"4" = 0;
"5" = 0;
"6" = 0;
"7" = 0;
"8" = 0;
"9" = 0;
};
};
width = 690;
}
);
metricLeft = "=V";
metricRight = "=V";
},
{
glyphname = Z.init;
kernLeft = Z;
kernRight = Z;
layers = (
{
layerId = m01;
shapes = (
{
closed = 1;
nodes = (
(168,90,l),
(582,617,l),
(582,699,l),
(51,699,l),
(51,609,l),
(460,609,l),
(51,90,l),
(52,0,l),
(564,0,l),
(564,90,l)
);
}
);
userData = {
com.hugojourdan.ColorFlow = {
"0" = 0;
"1" = 0;
"10" = 0;
"11" = 0;
"2" = 0;
"3" = 0;
"4" = 0;
"5" = 0;
"6" = 0;
"7" = 0;
"8" = 0;
"9" = 0;
};
};
width = 600;
},
{
layerId = m002;
shapes = (
{
closed = 1;
nodes = (
(139,164,l),
(553,401,l),
(553,483,l),
(22,855,l),
(22,765,l),
(431,479,l),
(22,246,l),
(23,155,l),
(535,-203,l),
(535,-113,l)
);
}
);
userData = {
com.hugojourdan.ColorFlow = {
"0" = 0;
"1" = 0;
"10" = 0;
"11" = 0;
"2" = 0;
"3" = 0;
"4" = 0;
"5" = 0;
"6" = 0;
"7" = 0;
"8" = 0;
"9" = 0;
};
};
width = 573;
},
{
layerId = m003;
shapes = (
{
closed = 1;
nodes = (
(198,191,l),
(612,718,l),
(612,800,l),
(81,800,l),
(81,710,l),
(490,710,l),
(81,191,l),
(82,101,l),
(594,101,l),
(594,191,l)
);
}
);
userData = {
com.hugojourdan.ColorFlow = {
"0" = 0;
"1" = 0;
"10" = 0;
"11" = 0;
"2" = 0;
"3" = 0;
"4" = 0;
"5" = 0;
"6" = 0;
"7" = 0;
"8" = 0;
"9" = 0;
};
};
width = 660;
}
);
},
{
glyphname = A.init.alt;
kernLeft = A;
kernRight = A;
layers = (
{
layerId = m01;
shapes = (
{
closed = 1;
nodes = (
(150,0,l),
(379,591,l),
(610,0,l),
(715,0,l),
(451,701,l),
(311,701,l),
(45,0,l)
);
},
{
closed = 1;
nodes = (
(187,210,l),
(567,210,l),
(567,300,l),
(187,300,l)
);
}
);
userData = {
com.hugojourdan.ColorFlow = {
"0" = 0;
"1" = 0;
"10" = 0;
"11" = 0;
"2" = 0;
"3" = 0;
"4" = 0;
"5" = 0;
"6" = 0;
"7" = 0;
"8" = 0;
"9" = 0;
};
};
width = 715;
},
{
layerId = m002;
shapes = (
{
closed = 1;
nodes = (
(157,-109,l),
(386,642,l),
(617,212,l),
(722,286,l),
(458,802,l),
(318,704,l),
(52,-183,l)
);
},
{
closed = 1;
nodes = (
(194,127,l),
(574,393,l),
(574,483,l),
(194,217,l)
);
}
);
userData = {
com.hugojourdan.ColorFlow = {
"0" = 0;
"1" = 0;
"10" = 0;
"11" = 0;
"2" = 0;
"3" = 0;
"4" = 0;
"5" = 0;
"6" = 0;
"7" = 0;
"8" = 0;
"9" = 0;
};
};
width = 722;
},
{
layerId = m003;
shapes = (
{
closed = 1;
nodes = (
(155,-200,l),
(384,391,l),
(615,-200,l),
(720,-200,l),
(456,501,l),
(316,501,l),
(50,-200,l)
);
},
{
closed = 1;
nodes = (
(192,10,l),
(572,10,l),
(572,100,l),
(192,100,l)
);
}
);
userData = {
com.hugojourdan.ColorFlow = {
"0" = 0;
"1" = 0;
"10" = 0;
"11" = 0;
"2" = 0;
"3" = 0;
"4" = 0;
"5" = 0;
"6" = 0;
"7" = 0;
"8" = 0;
"9" = 0;
};
};
width = 720;
}
);
metricLeft = "=H";
metricRight = "=0";
},
{
glyphname = B.init.alt;
kernLeft = H;
kernRight = B;
layers = (
{
layerId = m01;
shapes = (
{
closed = 1;
nodes = (
(302,0,ls),
(478,0,o),
(563,67,o),
(563,212,cs),
(563,276,o),
(536,334,o),
(461,373,c),
(509,409,o),
(536,456,o),
(536,524,cs),
(536,640,o),
(444,700,o),
(302,700,cs),
(45,700,l),
(45,0,l)
);
},
{
closed = 1;
nodes = (
(150,327,l),
(302,327,ls),
(398,327,o),
(458,277,o),
(458,212,cs),
(458,136,o),
(413,91,o),
(302,90,cs),
(150,89,l)
);
},
{
closed = 1;
nodes = (
(150,610,l),
(302,610,ls),
(374,610,o),
(431,580,o),
(431,524,cs),
(431,452,o),
(391,417,o),
(302,417,cs),
(150,417,l)
);
}
);
userData = {
com.hugojourdan.ColorFlow = {
"0" = 0;
"1" = 0;
"10" = 0;
"11" = 0;
"2" = 0;
"3" = 0;
"4" = 0;
"5" = 0;
"6" = 0;
"7" = 0;
"8" = 0;
"9" = 0;
};
};
width = 563;
},
{
layerId = m002;
shapes = (
{
closed = 1;
nodes = (
(309,-72,ls),
(485,52,o),
(570,179,o),
(570,324,cs),
(570,388,o),
(543,427,o),
(468,413,c),
(516,482,o),
(543,549,o),
(543,617,cs),
(543,733,o),
(451,728,o),
(309,628,cs),
(52,448,l),
(52,-252,l)
);
},
{
closed = 1;
nodes = (
(157,149,l),
(309,255,ls),
(405,323,o),
(465,315,o),
(465,250,cs),
(465,174,o),
(420,98,o),
(309,18,cs),
(157,-89,l)
);
},
{
closed = 1;
nodes = (
(157,432,l),
(309,538,ls),
(381,589,o),
(438,599,o),
(438,543,cs),
(438,471,o),
(398,408,o),
(309,345,cs),
(157,239,l)
);
}
);
userData = {
com.hugojourdan.ColorFlow = {
"0" = 0;
"1" = 0;
"10" = 0;
"11" = 0;
"2" = 0;
"3" = 0;
"4" = 0;
"5" = 0;
"6" = 0;
"7" = 0;
"8" = 0;
"9" = 0;
};
};
width = 570;
},
{
layerId = m003;
shapes = (
{
closed = 1;
nodes = (
(307,-200,ls),
(483,-200,o),
(568,-133,o),
(568,12,cs),
(568,76,o),
(541,134,o),
(466,173,c),
(514,209,o),
(541,256,o),
(541,324,cs),
(541,440,o),
(449,500,o),
(307,500,cs),
(50,500,l),
(50,-200,l)
);
},
{
closed = 1;
nodes = (
(155,127,l),
(307,127,ls),
(403,127,o),
(463,77,o),
(463,12,cs),
(463,-64,o),
(418,-109,o),
(307,-110,cs),
(155,-111,l)
);
},
{
closed = 1;
nodes = (
(155,410,l),
(307,410,ls),
(379,410,o),
(436,380,o),
(436,324,cs),
(436,252,o),
(396,217,o),
(307,217,cs),
(155,217,l)
);
}
);
userData = {
com.hugojourdan.ColorFlow = {
"0" = 0;
"1" = 0;
"10" = 0;
"11" = 0;
"2" = 0;
"3" = 0;
"4" = 0;
"5" = 0;
"6" = 0;
"7" = 0;
"8" = 0;
"9" = 0;
};
};
width = 568;
}
);
metricLeft = "=H";
metricRight = "=0";
},
{
glyphname = C.init.alt;
kernLeft = O;
kernRight = O;
layers = (
{
layerId = m01;
shapes = (
{
closed = 1;
nodes = (
(571,260,l),
(555,187,o),
(487,82,o),
(347,82,cs),
(207,82,o),
(130,185,o),
(130,350,cs),
(130,515,o),
(207,618,o),
(347,618,cs),
(487,618,o),
(558,517,o),
(571,435,c),
(676,452,l),
(636,610,o),
(542,708,o),
(347,708,cs),
(152,708,o),
(25,565,o),
(25,350,cs),
(25,135,o),
(152,-8,o),
(347,-8,cs),
(542,-8,o),
(636,97,o),
(676,243,c)
);
}
);
userData = {
com.hugojourdan.ColorFlow = {
"0" = 0;
"1" = 0;
"10" = 0;
"11" = 0;
"2" = 0;
"3" = 0;
"4" = 0;
"5" = 0;
"6" = 0;
"7" = 0;
"8" = 0;
"9" = 0;
};
};
width = 701;
},
{
layerId = m002;
shapes = (
{
closed = 1;
nodes = (
(589,415,l),
(573,330,o),
(505,177,o),
(365,79,cs),
(225,-19,o),
(148,30,o),
(148,195,cs),
(148,360,o),
(225,517,o),
(365,615,cs),
(505,713,o),
(576,663,o),
(589,590,c),
(694,680,l),
(654,810,o),
(560,842,o),
(365,705,cs),
(170,569,o),
(43,337,o),
(43,122,cs),
(43,-93,o),
(170,-147,o),
(365,-11,cs),
(560,126,o),
(654,297,o),
(694,471,c)
);
}
);
userData = {
com.hugojourdan.ColorFlow = {
"0" = 0;
"1" = 0;
"10" = 0;
"11" = 0;
"2" = 0;
"3" = 0;
"4" = 0;
"5" = 0;
"6" = 0;
"7" = 0;
"8" = 0;
"9" = 0;
};
};
width = 737;
},
{
layerId = m003;
shapes = (
{
closed = 1;
nodes = (
(576,60,l),
(560,-13,o),
(492,-118,o),
(352,-118,cs),
(212,-118,o),
(135,-15,o),
(135,150,cs),
(135,315,o),
(212,418,o),
(352,418,cs),
(492,418,o),
(563,317,o),
(576,235,c),
(681,252,l),
(641,410,o),
(547,508,o),
(352,508,cs),
(157,508,o),
(30,365,o),
(30,150,cs),
(30,-65,o),
(157,-208,o),
(352,-208,cs),
(547,-208,o),
(641,-103,o),
(681,43,c)
);
}
);
userData = {
com.hugojourdan.ColorFlow = {
"0" = 0;
"1" = 0;
"10" = 0;
"11" = 0;
"2" = 0;
"3" = 0;
"4" = 0;
"5" = 0;
"6" = 0;
"7" = 0;
"8" = 0;
"9" = 0;
};
};
width = 711;
}
);
metricLeft = "=O";
metricRight = "=O";
},
{
glyphname = D.init.alt;
kernLeft = H;
kernRight = D;
layers = (
{
layerId = m01;
shapes = (
{
closed = 1;
nodes = (
(80,0,l),
(309,0,ls),
(504,0,o),
(646,140,o),
(646,350,cs),
(646,560,o),
(505,700,o),
(310,700,cs),
(80,700,l)
);
},
{
closed = 1;
nodes = (
(185,610,l),
(310,610,ls),
(443,610,o),
(541,510,o),
(541,350,cs),
(541,190,o),
(442,90,o),
(309,90,cs),
(185,90,l)
);
}
);
userData = {
com.hugojourdan.ColorFlow = {
"0" = 0;
"1" = 0;
"10" = 0;
"11" = 0;
"2" = 0;
"3" = 0;
"4" = 0;
"5" = 0;
"6" = 0;
"7" = 0;
"8" = 0;
"9" = 0;
};
};
width = 696;
},
{
layerId = m002;
shapes = (
{
closed = 1;
nodes = (
(60,-282,l),
(289,-122,ls),
(484,14,o),
(626,254,o),
(626,464,cs),
(626,674,o),
(485,716,o),
(290,579,cs),
(60,418,l)
);
},
{
closed = 1;
nodes = (
(165,402,l),
(290,489,ls),
(423,582,o),
(521,550,o),
(521,390,cs),
(521,230,o),
(422,62,o),
(289,-32,cs),
(165,-118,l)
);
}
);
userData = {
com.hugojourdan.ColorFlow = {
"0" = 0;
"1" = 0;
"10" = 0;
"11" = 0;
"2" = 0;
"3" = 0;
"4" = 0;
"5" = 0;
"6" = 0;
"7" = 0;
"8" = 0;
"9" = 0;
};
};
width = 656;
},
{
layerId = m003;
shapes = (
{
closed = 1;
nodes = (
(70,-200,l),
(299,-200,ls),
(494,-200,o),
(636,-60,o),
(636,150,cs),
(636,360,o),
(495,500,o),
(300,500,cs),
(70,500,l)
);
},
{
closed = 1;
nodes = (
(175,410,l),
(300,410,ls),
(433,410,o),
(531,310,o),
(531,150,cs),
(531,-10,o),
(432,-110,o),
(299,-110,cs),
(175,-110,l)
);
}
);
userData = {
com.hugojourdan.ColorFlow = {
"0" = 0;
"1" = 0;
"10" = 0;
"11" = 0;
"2" = 0;
"3" = 0;
"4" = 0;
"5" = 0;
"6" = 0;
"7" = 0;
"8" = 0;
"9" = 0;
};
};
width = 660;
}
);
metricLeft = "=D";
metricRight = "=D";
},
{
glyphname = E.init.alt;
kernLeft = H;
kernRight = E;
layers = (
{
layerId = m01;
shapes = (
{
closed = 1;
nodes = (
(45,0,l),
(150,0,l),
(150,700,l),
(45,700,l)
);
},
{
closed = 1;
nodes = (
(150,319,l),
(457,319,l),
(457,409,l),
(150,409,l)
);
},
{
closed = 1;
nodes = (
(150,610,l),
(477,610,l),
(477,700,l),
(150,700,l)
);
},
{
closed = 1;
nodes = (
(150,0,l),
(477,0,l),
(477,90,l),
(150,90,l)
);
}
);
userData = {
com.hugojourdan.ColorFlow = {
"0" = 0;
"1" = 0;
"10" = 0;
"11" = 0;
"2" = 0;
"3" = 0;
"4" = 0;
"5" = 0;
"6" = 0;
"7" = 0;
"8" = 0;
"9" = 0;
};
};
width = 522;
},
{
layerId = m002;
shapes = (
{
closed = 1;
nodes = (
(52,-192,l),
(157,-118,l),
(157,582,l),
(52,508,l)
);
},
{
closed = 1;
nodes = (
(157,201,l),
(464,415,l),
(464,505,l),
(157,291,l)
);
},
{
closed = 1;
nodes = (
(157,492,l),
(484,720,l),
(484,810,l),
(157,582,l)
);
},
{
closed = 1;
nodes = (
(157,-118,l),
(484,110,l),
(484,200,l),
(157,-28,l)
);
}
);
userData = {
com.hugojourdan.ColorFlow = {
"0" = 0;
"1" = 0;
"10" = 0;
"11" = 0;
"2" = 0;
"3" = 0;
"4" = 0;
"5" = 0;
"6" = 0;
"7" = 0;
"8" = 0;
"9" = 0;
};
};
width = 536;
},
{
layerId = m003;
shapes = (
{
closed = 1;
nodes = (
(50,-200,l),
(155,-200,l),
(155,500,l),
(50,500,l)
);
},
{
closed = 1;
nodes = (
(155,119,l),
(462,119,l),
(462,209,l),
(155,209,l)
);
},
{
closed = 1;
nodes = (
(155,410,l),
(482,410,l),
(482,500,l),
(155,500,l)
);
},
{
closed = 1;
nodes = (
(155,-200,l),
(482,-200,l),
(482,-110,l),
(155,-110,l)
);
}
);
userData = {
com.hugojourdan.ColorFlow = {
"0" = 0;
"1" = 0;
"10" = 0;
"11" = 0;
"2" = 0;
"3" = 0;
"4" = 0;
"5" = 0;
"6" = 0;
"7" = 0;
"8" = 0;
"9" = 0;
};
};
width = 532;
}
);
metricLeft = "=H";
metricRight = "=H";
},
{
glyphname = F.init.alt;
kernLeft = H;
kernRight = F;
layers = (
{
layerId = m01;
shapes = (
{
closed = 1;
nodes = (
(45,0,l),
(150,0,l),
(150,700,l),
(45,700,l)
);
},
{
closed = 1;
nodes = (
(150,328,l),
(397,328,l),
(397,418,l),
(150,418,l)
);
},
{
closed = 1;
nodes = (
(150,610,l),
(457,610,l),
(457,700,l),
(150,700,l)
);
}
);
userData = {
com.hugojourdan.ColorFlow = {
"0" = 0;
"1" = 0;
"10" = 0;
"11" = 0;
"2" = 0;
"3" = 0;
"4" = 0;
"5" = 0;
"6" = 0;
"7" = 0;
"8" = 0;
"9" = 0;
};
};
width = 502;
},
{
layerId = m002;
shapes = (
{
closed = 1;
nodes = (
(52,-307,l),
(157,-233,l),
(157,587,l),
(52,513,l)
);
},
{
closed = 1;
nodes = (
(157,215,l),
(404,387,l),
(404,477,l),
(157,305,l)
);
},
{
closed = 1;
nodes = (
(157,497,l),
(464,711,l),
(464,801,l),
(157,587,l)
);
}
);
userData = {
com.hugojourdan.ColorFlow = {
"0" = 0;
"1" = 0;
"10" = 0;
"11" = 0;
"2" = 0;
"3" = 0;
"4" = 0;
"5" = 0;
"6" = 0;
"7" = 0;
"8" = 0;
"9" = 0;
};
};
width = 516;
},
{
layerId = m003;
shapes = (
{
closed = 1;
nodes = (
(50,-200,l),
(155,-200,l),
(155,500,l),
(50,500,l)
);
},
{
closed = 1;
nodes = (
(155,128,l),
(402,128,l),
(402,218,l),
(155,218,l)
);
},
{
closed = 1;
nodes = (
(155,410,l),
(462,410,l),
(462,500,l),
(155,500,l)
);
}
);
userData = {
com.hugojourdan.ColorFlow = {
"0" = 0;
"1" = 0;
"10" = 0;
"11" = 0;
"2" = 0;
"3" = 0;
"4" = 0;
"5" = 0;
"6" = 0;
"7" = 0;
"8" = 0;
"9" = 0;
};
};
width = 512;
}
);
metricLeft = "=H";
metricRight = "=H";
},
{
glyphname = G.init.alt;
kernLeft = O;
kernRight = G;
layers = (
{
layerId = m01;
shapes = (
{
closed = 1;
nodes = (
(676,370,l),
(334,369,l),
(334,279,l),
(555,279,l),
(554,184,o),
(487,82,o),
(347,82,cs),
(207,82,o),
(130,185,o),
(130,350,cs),
(130,515,o),
(207,618,o),
(347,618,cs),
(466,618,o),
(557,543,o),
(575,461,c),
(676,478,l),
(631,636,o),
(488,708,o),
(347,708,cs),
(152,708,o),
(25,565,o),
(25,350,cs),
(25,135,o),
(152,-8,o),
(347,-8,cs),
(542,-8,o),
(595,136,o),
(585,279,c),
(585,0,l),
(676,0,l)
);
}
);
userData = {
com.hugojourdan.ColorFlow = {
"0" = 0;
"1" = 0;
"10" = 0;
"11" = 0;
"2" = 0;
"3" = 0;
"4" = 0;
"5" = 0;
"6" = 0;
"7" = 0;
"8" = 0;
"9" = 0;
};
};
width = 701;
},
{
associatedMasterId = m01;
layerId = "6CD58B4D-0AF9-4DBA-A6FE-9DFBAF1342F0";
name = "19. Jul 23, 16:08";
shapes = (
{
closed = 1;
nodes = (
(571,280,l),
(571,185,o),
(487,82,o),
(347,82,cs),
(207,82,o),
(130,185,o),
(130,350,cs),
(130,515,o),
(207,618,o),
(347,618,cs),
(487,618,o),
(558,537,o),
(571,455,c),
(676,472,l),
(636,630,o),
(542,708,o),
(347,708,cs),
(152,708,o),
(25,565,o),
(25,350,cs),
(25,135,o),
(152,-8,o),
(347,-8,cs),
(542,-8,o),
(676,135,o),
(676,279,c)
);
},
{
closed = 1;
nodes = (
(354,279,l),
(676,279,l),
(676,379,l),
(354,379,l)
);
}
);
userData = {
com.hugojourdan.ColorFlow = {
"0" = 0;
"1" = 0;
"10" = 0;
"11" = 0;
"2" = 0;
"3" = 0;
"4" = 0;
"5" = 0;
"6" = 0;
"7" = 0;
"8" = 0;
"9" = 0;
};
};
width = 701;
},
{
associatedMasterId = m01;
layerId = "41AD4F1E-CF02-4B4E-83B1-0D201332BC78";
name = "19. Jul 23, 16:24";
shapes = (
{
closed = 1;
nodes = (
(676,369,l),
(334,369,l),
(334,279,l),
(571,279,l),
(570,184,o),
(487,82,o),
(347,82,cs),
(207,82,o),
(130,185,o),
(130,350,cs),
(130,515,o),
(207,618,o),
(347,618,cs),
(466,618,o),
(557,543,o),
(575,461,c),
(676,478,l),
(631,636,o),
(488,708,o),
(347,708,cs),
(152,708,o),
(25,565,o),
(25,350,cs),
(25,135,o),
(152,-8,o),
(347,-8,cs),
(542,-8,o),
(676,135,o),
(676,279,cs)
);
}
);
userData = {
com.hugojourdan.ColorFlow = {
"0" = 0;
"1" = 0;
"10" = 0;
"11" = 0;
"2" = 0;
"3" = 0;
"4" = 0;
"5" = 0;
"6" = 0;
"7" = 0;
"8" = 0;
"9" = 0;
};
};
width = 701;
},
{
layerId = m002;
shapes = (
{
closed = 1;
nodes = (
(694,618,l),
(352,378,l),
(352,288,l),
(573,442,l),
(572,347,o),
(505,197,o),
(365,99,cs),
(225,1,o),
(148,50,o),
(148,215,cs),
(148,380,o),
(225,537,o),
(365,635,cs),
(484,719,o),
(575,707,o),
(593,638,c),
(694,726,l),
(649,853,o),
(506,825,o),
(365,725,cs),
(170,589,o),
(43,357,o),
(43,142,cs),
(43,-73,o),
(170,-127,o),
(365,9,cs),
(560,146,o),
(613,327,o),
(603,463,c),
(603,184,l),
(694,248,l)
);
}
);
userData = {
com.hugojourdan.ColorFlow = {
"0" = 0;
"1" = 0;
"10" = 0;
"11" = 0;
"2" = 0;
"3" = 0;
"4" = 0;
"5" = 0;
"6" = 0;
"7" = 0;
"8" = 0;
"9" = 0;
};
};
width = 737;
},
{
associatedMasterId = m002;
layerId = "48FE7010-71DA-48E8-B752-A58A091291FF";
name = "19. Jul 23, 16:08";
shapes = (
{
closed = 1;
nodes = (
(571,280,l),
(571,185,o),
(487,82,o),
(347,82,cs),
(207,82,o),
(130,185,o),
(130,350,cs),
(130,515,o),
(207,618,o),
(347,618,cs),
(487,618,o),
(558,537,o),
(571,455,c),
(676,472,l),
(636,630,o),
(542,708,o),
(347,708,cs),
(152,708,o),
(25,565,o),
(25,350,cs),
(25,135,o),
(152,-8,o),
(347,-8,cs),
(542,-8,o),
(676,135,o),
(676,279,c)
);
},
{
closed = 1;
nodes = (
(354,279,l),
(676,279,l),
(676,379,l),
(354,379,l)
);
}
);
userData = {
com.hugojourdan.ColorFlow = {
"0" = 0;
"1" = 0;
"10" = 0;
"11" = 0;
"2" = 0;
"3" = 0;
"4" = 0;
"5" = 0;
"6" = 0;
"7" = 0;
"8" = 0;
"9" = 0;
};
};
width = 701;
},
{
associatedMasterId = m002;
layerId = "2B2E4C5F-21E6-4F4D-A0EE-7CA68E19DFF6";
name = "19. Jul 23, 16:24";
shapes = (
{
closed = 1;
nodes = (
(676,369,l),
(334,369,l),
(334,279,l),
(571,279,l),
(570,184,o),
(487,82,o),
(347,82,cs),
(207,82,o),
(130,185,o),
(130,350,cs),
(130,515,o),
(207,618,o),
(347,618,cs),
(466,618,o),
(557,543,o),
(575,461,c),
(676,478,l),
(631,636,o),
(488,708,o),
(347,708,cs),
(152,708,o),
(25,565,o),
(25,350,cs),
(25,135,o),
(152,-8,o),
(347,-8,cs),
(542,-8,o),
(676,135,o),
(676,279,cs)
);
}
);
userData = {
com.hugojourdan.ColorFlow = {
"0" = 0;
"1" = 0;
"10" = 0;
"11" = 0;
"2" = 0;
"3" = 0;
"4" = 0;
"5" = 0;
"6" = 0;
"7" = 0;
"8" = 0;
"9" = 0;
};
};
width = 701;
},
{
layerId = m003;
shapes = (
{
closed = 1;
nodes = (
(681,170,l),
(339,169,l),
(339,79,l),
(560,79,l),
(559,-16,o),
(492,-118,o),
(352,-118,cs),
(212,-118,o),
(135,-15,o),
(135,150,cs),
(135,315,o),
(212,418,o),
(352,418,cs),
(471,418,o),
(562,343,o),
(580,261,c),
(681,278,l),
(636,436,o),
(493,508,o),
(352,508,cs),
(157,508,o),
(30,365,o),
(30,150,cs),
(30,-65,o),
(157,-208,o),
(352,-208,cs),
(547,-208,o),
(600,-64,o),
(590,79,c),
(590,-200,l),
(681,-200,l)
);
}
);
userData = {
com.hugojourdan.ColorFlow = {
"0" = 0;
"1" = 0;
"10" = 0;
"11" = 0;
"2" = 0;
"3" = 0;
"4" = 0;
"5" = 0;
"6" = 0;
"7" = 0;
"8" = 0;
"9" = 0;
};
};
width = 711;
},
{
associatedMasterId = m003;
layerId = "49C96D89-2035-45A5-9B48-B3F9061A9CA7";
name = "19. Jul 23, 16:08";
shapes = (
{
closed = 1;
nodes = (
(571,280,l),
(571,185,o),
(487,82,o),
(347,82,cs),
(207,82,o),
(130,185,o),
(130,350,cs),
(130,515,o),
(207,618,o),
(347,618,cs),
(487,618,o),
(558,537,o),
(571,455,c),
(676,472,l),
(636,630,o),
(542,708,o),
(347,708,cs),
(152,708,o),
(25,565,o),
(25,350,cs),
(25,135,o),
(152,-8,o),
(347,-8,cs),
(542,-8,o),
(676,135,o),
(676,279,c)
);
},
{
closed = 1;
nodes = (
(354,279,l),
(676,279,l),
(676,379,l),
(354,379,l)
);
}
);
userData = {
com.hugojourdan.ColorFlow = {
"0" = 0;
"1" = 0;
"10" = 0;
"11" = 0;
"2" = 0;
"3" = 0;
"4" = 0;
"5" = 0;
"6" = 0;
"7" = 0;
"8" = 0;
"9" = 0;
};
};
width = 701;
},
{
associatedMasterId = m003;
layerId = "D052AF65-7E73-46C4-96B1-154FB495053B";
name = "19. Jul 23, 16:24";
shapes = (
{
closed = 1;
nodes = (
(676,369,l),
(334,369,l),
(334,279,l),
(571,279,l),
(570,184,o),
(487,82,o),
(347,82,cs),
(207,82,o),
(130,185,o),
(130,350,cs),
(130,515,o),
(207,618,o),
(347,618,cs),
(466,618,o),
(557,543,o),
(575,461,c),
(676,478,l),
(631,636,o),
(488,708,o),
(347,708,cs),
(152,708,o),
(25,565,o),
(25,350,cs),
(25,135,o),
(152,-8,o),
(347,-8,cs),
(542,-8,o),
(676,135,o),
(676,279,cs)
);
}
);
userData = {
com.hugojourdan.ColorFlow = {
"0" = 0;
"1" = 0;
"10" = 0;
"11" = 0;
"2" = 0;
"3" = 0;
"4" = 0;
"5" = 0;
"6" = 0;
"7" = 0;
"8" = 0;
"9" = 0;
};
};
width = 701;
}
);
metricLeft = "=O";
metricRight = "=O";
},
{
glyphname = H.init.alt;
kernLeft = H;
kernRight = H;
layers = (
{
layerId = m01;
shapes = (
{
closed = 1;
nodes = (
(461,0,l),
(566,0,l),
(566,700,l),
(461,700,l)
);
},
{
closed = 1;
nodes = (
(45,0,l),
(150,0,l),
(150,700,l),
(45,700,l)
);
},
{
closed = 1;
nodes = (
(145,328,l),
(467,328,l),
(467,418,l),
(145,418,l)
);
}
);
userData = {
com.hugojourdan.ColorFlow = {
"0" = 0;
"1" = 0;
"10" = 0;
"11" = 0;
"2" = 0;
"3" = 0;
"4" = 0;
"5" = 0;
"6" = 0;
"7" = 0;
"8" = 0;
"9" = 0;
};
};
width = 611;
},
{
layerId = m002;
shapes = (
{
closed = 1;
nodes = (
(468,59,l),
(573,133,l),
(573,833,l),
(468,759,l)
);
},
{
closed = 1;
nodes = (
(52,-233,l),
(157,-159,l),
(157,541,l),
(52,467,l)
);
},
{
closed = 1;
nodes = (
(152,165,l),
(474,391,l),
(474,481,l),
(152,255,l)
);
}
);
userData = {
com.hugojourdan.ColorFlow = {
"0" = 0;
"1" = 0;
"10" = 0;
"11" = 0;
"2" = 0;
"3" = 0;
"4" = 0;
"5" = 0;
"6" = 0;
"7" = 0;
"8" = 0;
"9" = 0;
};
};
width = 625;
},
{
layerId = m003;
shapes = (
{
closed = 1;
nodes = (
(466,-200,l),
(571,-200,l),
(571,500,l),
(466,500,l)
);
},
{
closed = 1;
nodes = (
(50,-200,l),
(155,-200,l),
(155,500,l),
(50,500,l)
);
},
{
closed = 1;
nodes = (
(150,128,l),
(472,128,l),
(472,218,l),
(150,218,l)
);
}
);
userData = {
com.hugojourdan.ColorFlow = {
"0" = 0;
"1" = 0;
"10" = 0;
"11" = 0;
"2" = 0;
"3" = 0;
"4" = 0;
"5" = 0;
"6" = 0;
"7" = 0;
"8" = 0;
"9" = 0;
};
};
width = 621;
}
);
metricLeft = "=I";
metricRight = "=I";
},
{
glyphname = I.init.alt;
kernLeft = I;
kernRight = I;
layers = (
{
layerId = m01;
shapes = (
{
closed = 1;
nodes = (
(45,0,l),
(150,0,l),
(150,700,l),
(45,700,l)
);
}
);
userData = {
com.hugojourdan.ColorFlow = {
"0" = 0;
"1" = 0;
"10" = 0;
"11" = 0;
"2" = 0;
"3" = 0;
"4" = 0;
"5" = 0;
"6" = 0;
"7" = 0;
"8" = 0;
"9" = 0;
};
};
width = 195;
},
{
layerId = m002;
shapes = (
{
closed = 1;
nodes = (
(52,-157,l),
(157,-83,l),
(157,807,l),
(52,733,l)
);
}
);
userData = {
com.hugojourdan.ColorFlow = {
"0" = 0;
"1" = 0;
"10" = 0;
"11" = 0;
"2" = 0;
"3" = 0;
"4" = 0;
"5" = 0;
"6" = 0;
"7" = 0;
"8" = 0;
"9" = 0;
};
};
width = 209;
},
{
layerId = m003;
shapes = (
{
closed = 1;
nodes = (
(50,-200,l),
(155,-200,l),
(155,500,l),
(50,500,l)
);
}
);
userData = {
com.hugojourdan.ColorFlow = {
"0" = 0;
"1" = 0;
"10" = 0;
"11" = 0;
"2" = 0;
"3" = 0;
"4" = 0;
"5" = 0;
"6" = 0;
"7" = 0;
"8" = 0;
"9" = 0;
};
};
width = 205;
}
);
metricLeft = "=i+10";
metricRight = "=i+10";
},
{
glyphname = J.init.alt;
kernLeft = J;
kernRight = I;
layers = (
{
layerId = m01;
shapes = (
{
closed = 1;
nodes = (
(456,260,l),
(456,132,o),
(411,92,o),
(346,92,c),
(280,92,o),
(216,133,o),
(216,225,c),
(111,225,l),
(111,88,o),
(194,-8,o),
(354,-8,c),
(558,-8,o),
(561,151,o),
(561,240,c),
(561,700,l),
(456,700,l)
);
}
);
userData = {
com.hugojourdan.ColorFlow = {
"0" = 0;
"1" = 0;
"10" = 0;
"11" = 0;
"2" = 0;
"3" = 0;
"4" = 0;
"5" = 0;
"6" = 0;
"7" = 0;
"8" = 0;
"9" = 0;
};
};
width = 600;
},
{
layerId = m002;
shapes = (
{
closed = 1;
nodes = (
(361,224,l),
(361,96,o),
(316,24,o),
(251,-21,c),
(185,-67,o),
(121,-71,o),
(121,21,c),
(16,-52,l),
(16,-189,o),
(99,-228,o),
(259,-116,c),
(463,28,o),
(466,188,o),
(466,277,c),
(466,807,l),
(361,734,l)
);
}
);
userData = {
com.hugojourdan.ColorFlow = {
"0" = 0;
"1" = 0;
"10" = 0;
"11" = 0;
"2" = 0;
"3" = 0;
"4" = 0;
"5" = 0;
"6" = 0;
"7" = 0;
"8" = 0;
"9" = 0;
};
};
width = 511;
},
{
layerId = m003;
shapes = (
{
closed = 1;
nodes = (
(486,60,l),
(486,-68,o),
(441,-108,o),
(376,-108,c),
(310,-108,o),
(246,-67,o),
(246,25,c),
(141,25,l),
(141,-112,o),
(224,-208,o),
(384,-208,c),
(588,-208,o),
(591,-49,o),
(591,40,c),
(591,500,l),
(486,500,l)
);
}
);
userData = {
com.hugojourdan.ColorFlow = {
"0" = 0;
"1" = 0;
"10" = 0;
"11" = 0;
"2" = 0;
"3" = 0;
"4" = 0;
"5" = 0;
"6" = 0;
"7" = 0;
"8" = 0;
"9" = 0;
};
};
width = 660;
}
);
},
{
glyphname = K.init.alt;
kernLeft = H;
kernRight = K;
layers = (
{
layerId = m01;
shapes = (
{
closed = 1;
nodes = (
(416,0,l),
(539,0,l),
(266,348,l),
(559,707,l),
(434,707,l),
(146,348,l)
);
},
{
closed = 1;
nodes = (
(65,0,l),
(170,0,l),
(170,700,l),
(65,700,l)
);
}
);
userData = {
com.hugojourdan.ColorFlow = {
"0" = 0;
"1" = 0;
"10" = 0;
"11" = 0;
"2" = 0;
"3" = 0;
"4" = 0;
"5" = 0;
"6" = 0;
"7" = 0;
"8" = 0;
"9" = 0;
};
};
width = 600;
},
{
layerId = m002;
shapes = (
{
closed = 1;
nodes = (
(396,13,l),
(519,99,l),
(246,256,l),
(539,820,l),
(414,733,l),
(126,172,l)
);
},
{
closed = 1;
nodes = (
(45,-233,l),
(150,-160,l),
(150,540,l),
(45,467,l)
);
}
);
userData = {
com.hugojourdan.ColorFlow = {
"0" = 0;
"1" = 0;
"10" = 0;
"11" = 0;
"2" = 0;
"3" = 0;
"4" = 0;
"5" = 0;
"6" = 0;
"7" = 0;
"8" = 0;
"9" = 0;
};
};
width = 553;
},
{
layerId = m003;
shapes = (
{
closed = 1;
nodes = (
(446,-200,l),
(569,-200,l),
(296,148,l),
(589,507,l),
(464,507,l),
(176,148,l)
);
},
{
closed = 1;
nodes = (
(95,-200,l),
(200,-200,l),
(200,500,l),
(95,500,l)
);
}
);
userData = {
com.hugojourdan.ColorFlow = {
"0" = 0;
"1" = 0;
"10" = 0;
"11" = 0;
"2" = 0;
"3" = 0;
"4" = 0;
"5" = 0;
"6" = 0;
"7" = 0;
"8" = 0;
"9" = 0;
};
};
width = 660;
}
);
},
{
glyphname = L.init.alt;
kernLeft = H;
kernRight = L;
layers = (
{
layerId = m01;
shapes = (
{
closed = 1;
nodes = (
(45,0,l),
(150,0,l),
(150,700,l),
(45,700,l)
);
},
{
closed = 1;
nodes = (
(150,0,l),
(477,0,l),
(477,90,l),
(150,90,l)
);
}
);
userData = {
com.hugojourdan.ColorFlow = {
"0" = 0;
"1" = 0;
"10" = 0;
"11" = 0;
"2" = 0;
"3" = 0;
"4" = 0;
"5" = 0;
"6" = 0;
"7" = 0;
"8" = 0;
"9" = 0;
};
};
width = 522;
},
{
layerId = m002;
shapes = (
{
closed = 1;
nodes = (
(52,-201,l),
(157,-127,l),
(157,793,l),
(52,719,l)
);
},
{
closed = 1;
nodes = (
(157,-127,l),
(484,101,l),
(484,191,l),
(157,-37,l)
);
}
);
userData = {
com.hugojourdan.ColorFlow = {
"0" = 0;
"1" = 0;
"10" = 0;
"11" = 0;
"2" = 0;
"3" = 0;
"4" = 0;
"5" = 0;
"6" = 0;
"7" = 0;
"8" = 0;
"9" = 0;
};
};
width = 536;
},
{
layerId = m003;
shapes = (
{
closed = 1;
nodes = (
(50,-200,l),
(155,-200,l),
(155,500,l),
(50,500,l)
);
},
{
closed = 1;
nodes = (
(155,-200,l),
(482,-200,l),
(482,-110,l),
(155,-110,l)
);
}
);
userData = {
com.hugojourdan.ColorFlow = {
"0" = 0;
"1" = 0;
"10" = 0;
"11" = 0;
"2" = 0;
"3" = 0;
"4" = 0;
"5" = 0;
"6" = 0;
"7" = 0;
"8" = 0;
"9" = 0;
};
};
width = 532;
}
);
metricLeft = "=H";
metricRight = "=H";
},
{
glyphname = M.init.alt;
kernLeft = H;
kernRight = H;
layers = (
{
layerId = m01;
shapes = (
{
closed = 1;
nodes = (
(443,0,l),
(631,528,l),
(631,0,l),
(736,0,l),
(736,700,l),
(579,698,l),
(391,142,l),
(197,700,l),
(45,700,l),
(45,0,l),
(150,0,l),
(150,528,l),
(338,0,l)
);
}
);
userData = {
com.hugojourdan.ColorFlow = {
"0" = 0;
"1" = 0;
"10" = 0;
"11" = 0;
"2" = 0;
"3" = 0;
"4" = 0;
"5" = 0;
"6" = 0;
"7" = 0;
"8" = 0;
"9" = 0;
};
};
width = 781;
},
{
layerId = m002;
shapes = (
{
closed = 1;
nodes = (
(450,-21,l),
(638,639,l),
(638,111,l),
(743,184,l),
(743,884,l),
(586,772,l),
(398,85,l),
(204,506,l),
(52,400,l),
(52,-300,l),
(157,-227,l),
(157,301,l),
(345,-95,l)
);
}
);
userData = {
com.hugojourdan.ColorFlow = {
"0" = 0;
"1" = 0;
"10" = 0;
"11" = 0;
"2" = 0;
"3" = 0;
"4" = 0;
"5" = 0;
"6" = 0;
"7" = 0;
"8" = 0;
"9" = 0;
};
};
width = 795;
},
{
layerId = m003;
shapes = (
{
closed = 1;
nodes = (
(448,-200,l),
(636,328,l),
(636,-200,l),
(741,-200,l),
(741,500,l),
(584,498,l),
(396,-58,l),
(202,500,l),
(50,500,l),
(50,-200,l),
(155,-200,l),
(155,328,l),
(343,-200,l)
);
}
);
userData = {
com.hugojourdan.ColorFlow = {
"0" = 0;
"1" = 0;
"10" = 0;
"11" = 0;
"2" = 0;
"3" = 0;
"4" = 0;
"5" = 0;
"6" = 0;
"7" = 0;
"8" = 0;
"9" = 0;
};
};
width = 791;
}
);
metricLeft = "=H";
metricRight = "=H";
},
{
glyphname = N.init.alt;
kernLeft = H;
kernRight = H;
layers = (
{
layerId = m01;
shapes = (
{
closed = 1;
nodes = (
(491,109,l),
(203,700,l),
(45,700,l),
(45,0,l),
(150,0,l),
(150,571,l),
(438,0,l),
(596,0,l),
(596,700,l),
(491,700,l)
);
}
);
userData = {
com.hugojourdan.ColorFlow = {
"0" = 0;
"1" = 0;
"10" = 0;
"11" = 0;
"2" = 0;
"3" = 0;
"4" = 0;
"5" = 0;
"6" = 0;
"7" = 0;
"8" = 0;
"9" = 0;
};
};
width = 641;
},
{
layerId = m002;
shapes = (
{
closed = 1;
nodes = (
(498,217,l),
(210,605,l),
(52,495,l),
(52,-205,l),
(157,-132,l),
(157,439,l),
(445,71,l),
(603,181,l),
(603,881,l),
(498,808,l)
);
}
);
userData = {
com.hugojourdan.ColorFlow = {
"0" = 0;
"1" = 0;
"10" = 0;
"11" = 0;
"2" = 0;
"3" = 0;
"4" = 0;
"5" = 0;
"6" = 0;
"7" = 0;
"8" = 0;
"9" = 0;
};
};
width = 655;
},
{
layerId = m003;
shapes = (
{
closed = 1;
nodes = (
(496,-91,l),
(208,500,l),
(50,500,l),
(50,-200,l),
(155,-200,l),
(155,371,l),
(443,-200,l),
(601,-200,l),
(601,500,l),
(496,500,l)
);
}
);
userData = {
com.hugojourdan.ColorFlow = {
"0" = 0;
"1" = 0;
"10" = 0;
"11" = 0;
"2" = 0;
"3" = 0;
"4" = 0;
"5" = 0;
"6" = 0;
"7" = 0;
"8" = 0;
"9" = 0;
};
};
width = 651;
}
);
metricLeft = "=H";
metricRight = "=H";
},
{
glyphname = O.init.alt;
kernLeft = O;
kernRight = O;
layers = (
{
layerId = m01;
shapes = (
{
closed = 1;
nodes = (
(542,-8,o),
(676,135,o),
(676,350,cs),
(676,565,o),
(542,708,o),
(347,708,cs),
(152,708,o),
(25,565,o),
(25,350,cs),
(25,135,o),
(152,-8,o),
(347,-8,cs)
);
},
{
closed = 1;
nodes = (
(207,82,o),
(130,185,o),
(130,350,cs),
(130,515,o),
(207,618,o),
(347,618,cs),
(487,618,o),
(571,515,o),
(571,350,cs),
(571,185,o),
(487,82,o),
(347,82,cs)
);
}
);
userData = {
com.hugojourdan.ColorFlow = {
"0" = 0;
"1" = 0;
"10" = 0;
"11" = 0;
"2" = 0;
"3" = 0;
"4" = 0;
"5" = 0;
"6" = 0;
"7" = 0;
"8" = 0;
"9" = 0;
};
};
width = 701;
},
{
layerId = m002;
shapes = (
{
closed = 1;
nodes = (
(560,126,o),
(694,363,o),
(694,578,cs),
(694,793,o),
(560,842,o),
(365,705,cs),
(170,569,o),
(43,337,o),
(43,122,cs),
(43,-93,o),
(170,-147,o),
(365,-11,cs)
);
},
{
closed = 1;
nodes = (
(225,-19,o),
(148,30,o),
(148,195,cs),
(148,360,o),
(225,517,o),
(365,615,cs),
(505,713,o),
(589,670,o),
(589,505,cs),
(589,340,o),
(505,177,o),
(365,79,cs)
);
}
);
userData = {
com.hugojourdan.ColorFlow = {
"0" = 0;
"1" = 0;
"10" = 0;
"11" = 0;
"2" = 0;
"3" = 0;
"4" = 0;
"5" = 0;
"6" = 0;
"7" = 0;
"8" = 0;
"9" = 0;
};
};
width = 737;
},
{
layerId = m003;
shapes = (
{
closed = 1;
nodes = (
(547,-209,o),
(681,-66,o),
(681,149,cs),
(681,364,o),
(547,507,o),
(352,507,cs),
(157,507,o),
(30,364,o),
(30,149,cs),
(30,-66,o),
(157,-209,o),
(352,-209,cs)
);
},
{
closed = 1;
nodes = (
(212,-119,o),
(135,-16,o),
(135,149,cs),
(135,314,o),
(212,417,o),
(352,417,cs),
(492,417,o),
(576,314,o),
(576,149,cs),
(576,-16,o),
(492,-119,o),
(352,-119,cs)
);
}
);
userData = {
com.hugojourdan.ColorFlow = {
"0" = 0;
"1" = 0;
"10" = 0;
"11" = 0;
"2" = 0;
"3" = 0;
"4" = 0;
"5" = 0;
"6" = 0;
"7" = 0;
"8" = 0;
"9" = 0;
};
};
width = 711;
}
);
metricLeft = "=o+10";
metricRight = "=o+10";
},
{
glyphname = P.init.alt;
kernLeft = H;
kernRight = P;
layers = (
{
layerId = m01;
shapes = (
{
closed = 1;
nodes = (
(45,0,l),
(150,0,l),
(150,700,l),
(45,700,l)
);
},
{
closed = 1;
nodes = (
(150,288,l),
(312,288,l),
(312,378,l),
(150,378,l)
);
},
{
closed = 1;
nodes = (
(150,610,l),
(312,610,l),
(312,700,l),
(150,700,l)
);
},
{
closed = 1;
nodes = (
(312,610,l),
(378,610,o),
(436,566,o),
(436,495,c),
(436,425,o),
(379,380,o),
(312,378,c),
(312,288,l),
(431,290,o),
(536,344,o),
(536,495,cs),
(536,646,o),
(431,700,o),
(312,700,c)
);
}
);
userData = {
com.hugojourdan.ColorFlow = {
"0" = 0;
"1" = 0;
"10" = 0;
"11" = 0;
"2" = 0;
"3" = 0;
"4" = 0;
"5" = 0;
"6" = 0;
"7" = 0;
"8" = 0;
"9" = 0;
};
};
width = 561;
},
{
associatedMasterId = m01;
layerId = "767DA48E-15D8-4720-A877-93C1F22FA51D";
name = "19. Jul 23, 15:23";
shapes = (
{
closed = 1;
nodes = (
(40,0,l),
(145,0,l),
(145,700,l),
(40,700,l)
);
},
{
closed = 1;
nodes = (
(145,288,l),
(307,288,l),
(307,378,l),
(145,378,l)
);
},
{
closed = 1;
nodes = (
(145,610,l),
(307,610,l),
(307,700,l),
(145,700,l)
);
},
{
closed = 1;
nodes = (
(307,610,l),
(373,610,o),
(431,569,o),
(431,486,c),
(431,409,o),
(374,380,o),
(307,378,c),
(307,288,l),
(426,290,o),
(531,335,o),
(531,486,cs),
(531,637,o),
(426,700,o),
(307,700,c)
);
}
);
userData = {
com.hugojourdan.ColorFlow = {
"0" = 0;
"1" = 0;
"10" = 0;
"11" = 0;
"2" = 0;
"3" = 0;
"4" = 0;
"5" = 0;
"6" = 0;
"7" = 0;
"8" = 0;
"9" = 0;
};
};
width = 556;
},
{
layerId = m002;
shapes = (
{
closed = 1;
nodes = (
(52,-212,l),
(157,-139,l),
(157,631,l),
(52,558,l)
);
},
{
closed = 1;
nodes = (
(157,219,l),
(319,333,l),
(319,423,l),
(157,309,l)
);
},
{
closed = 1;
nodes = (
(157,541,l),
(319,655,l),
(319,745,l),
(157,631,l)
);
},
{
closed = 1;
nodes = (
(319,655,l),
(385,702,o),
(443,698,o),
(443,627,c),
(443,557,o),
(386,472,o),
(319,423,c),
(319,333,l),
(438,419,o),
(543,546,o),
(543,697,cs),
(543,848,o),
(438,829,o),
(319,745,c)
);
}
);
userData = {
com.hugojourdan.ColorFlow = {
"0" = 0;
"1" = 0;
"10" = 0;
"11" = 0;
"2" = 0;
"3" = 0;
"4" = 0;
"5" = 0;
"6" = 0;
"7" = 0;
"8" = 0;
"9" = 0;
};
};
width = 586;
},
{
associatedMasterId = m002;
layerId = "4F1877E2-C10F-4519-B0C4-86CABB08FCFF";
name = "19. Jul 23, 15:23";
shapes = (
{
closed = 1;
nodes = (
(40,0,l),
(145,0,l),
(145,700,l),
(40,700,l)
);
},
{
closed = 1;
nodes = (
(145,288,l),
(307,288,l),
(307,378,l),
(145,378,l)
);
},
{
closed = 1;
nodes = (
(145,610,l),
(307,610,l),
(307,700,l),
(145,700,l)
);
},
{
closed = 1;
nodes = (
(307,610,l),
(373,610,o),
(431,569,o),
(431,486,c),
(431,409,o),
(374,380,o),
(307,378,c),
(307,288,l),
(426,290,o),
(531,335,o),
(531,486,cs),
(531,637,o),
(426,700,o),
(307,700,c)
);
}
);
userData = {
com.hugojourdan.ColorFlow = {
"0" = 0;
"1" = 0;
"10" = 0;
"11" = 0;
"2" = 0;
"3" = 0;
"4" = 0;
"5" = 0;
"6" = 0;
"7" = 0;
"8" = 0;
"9" = 0;
};
};
width = 556;
},
{
layerId = m003;
shapes = (
{
closed = 1;
nodes = (
(50,-200,l),
(155,-200,l),
(155,500,l),
(50,500,l)
);
},
{
closed = 1;
nodes = (
(155,88,l),
(317,88,l),
(317,178,l),
(155,178,l)
);
},
{
closed = 1;
nodes = (
(155,410,l),
(317,410,l),
(317,500,l),
(155,500,l)
);
},
{
closed = 1;
nodes = (
(317,410,l),
(383,410,o),
(441,366,o),
(441,295,c),
(441,225,o),
(384,180,o),
(317,178,c),
(317,88,l),
(436,90,o),
(541,144,o),
(541,295,cs),
(541,446,o),
(436,500,o),
(317,500,c)
);
}
);
userData = {
com.hugojourdan.ColorFlow = {
"0" = 0;
"1" = 0;
"10" = 0;
"11" = 0;
"2" = 0;
"3" = 0;
"4" = 0;
"5" = 0;
"6" = 0;
"7" = 0;
"8" = 0;
"9" = 0;
};
};
width = 571;
},
{
associatedMasterId = m003;
layerId = "DC565858-836A-446C-A2DA-BB744FBB2B33";
name = "19. Jul 23, 15:23";
shapes = (
{
closed = 1;
nodes = (
(40,0,l),
(145,0,l),
(145,700,l),
(40,700,l)
);
},
{
closed = 1;
nodes = (
(145,288,l),
(307,288,l),
(307,378,l),
(145,378,l)
);
},
{
closed = 1;
nodes = (
(145,610,l),
(307,610,l),
(307,700,l),
(145,700,l)
);
},
{
closed = 1;
nodes = (
(307,610,l),
(373,610,o),
(431,569,o),
(431,486,c),
(431,409,o),
(374,380,o),
(307,378,c),
(307,288,l),
(426,290,o),
(531,335,o),
(531,486,cs),
(531,637,o),
(426,700,o),
(307,700,c)
);
}
);
userData = {
com.hugojourdan.ColorFlow = {
"0" = 0;
"1" = 0;
"10" = 0;
"11" = 0;
"2" = 0;
"3" = 0;
"4" = 0;
"5" = 0;
"6" = 0;
"7" = 0;
"8" = 0;
"9" = 0;
};
};
width = 556;
}
);
metricLeft = "=H";
metricRight = "=O";
},
{
glyphname = Q.init.alt;
kernLeft = O;
kernRight = Q;
layers = (
{
layerId = m01;
shapes = (
{
closed = 1;
nodes = (
(544,-8,o),
(676,135,o),
(676,350,cs),
(676,566,o),
(544,710,o),
(347,710,cs),
(154,710,o),
(25,566,o),
(25,350,cs),
(25,135,o),
(154,-8,o),
(347,-8,cs)
);
},
{
closed = 1;
nodes = (
(215,82,o),
(130,181,o),
(130,350,cs),
(130,513,o),
(211,620,o),
(347,620,cs),
(482,620,o),
(571,519,o),
(571,350,cs),
(571,188,o),
(488,82,o),
(347,82,cs)
);
},
{
closed = 1;
nodes = (
(362,168,l),
(606,-75,l),
(676,-3,l),
(432,241,l)
);
}
);
userData = {
com.hugojourdan.ColorFlow = {
"0" = 0;
"1" = 0;
"10" = 0;
"11" = 0;
"2" = 0;
"3" = 0;
"4" = 0;
"5" = 0;
"6" = 0;
"7" = 0;
"8" = 0;
"9" = 0;
};
};
width = 701;
},
{
layerId = m002;
shapes = (
{
closed = 1;
nodes = (
(546,168,o),
(678,403,o),
(678,618,cs),
(678,834,o),
(546,886,o),
(349,747,cs),
(156,613,o),
(27,378,o),
(27,162,cs),
(27,-53,o),
(156,-105,o),
(349,29,cs)
);
},
{
closed = 1;
nodes = (
(217,27,o),
(132,66,o),
(132,235,cs),
(132,398,o),
(213,563,o),
(349,657,cs),
(484,752,o),
(573,714,o),
(573,545,cs),
(573,383,o),
(490,219,o),
(349,119,cs)
);
},
{
closed = 1;
nodes = (
(364,216,l),
(608,144,l),
(678,265,l),
(434,338,l)
);
}
);
userData = {
com.hugojourdan.ColorFlow = {
"0" = 0;
"1" = 0;
"10" = 0;
"11" = 0;
"2" = 0;
"3" = 0;
"4" = 0;
"5" = 0;
"6" = 0;
"7" = 0;
"8" = 0;
"9" = 0;
};
};
width = 721;
},
{
layerId = m003;
shapes = (
{
closed = 1;
nodes = (
(574,-208,o),
(706,-65,o),
(706,150,cs),
(706,366,o),
(574,510,o),
(377,510,cs),
(184,510,o),
(55,366,o),
(55,150,cs),
(55,-65,o),
(184,-208,o),
(377,-208,cs)
);
},
{
closed = 1;
nodes = (
(245,-118,o),
(160,-19,o),
(160,150,cs),
(160,313,o),
(241,420,o),
(377,420,cs),
(512,420,o),
(601,319,o),
(601,150,cs),
(601,-12,o),
(518,-118,o),
(377,-118,cs)
);
},
{
closed = 1;
nodes = (
(392,-32,l),
(636,-275,l),
(706,-203,l),
(462,41,l)
);
}
);
userData = {
com.hugojourdan.ColorFlow = {
"0" = 0;
"1" = 0;
"10" = 0;
"11" = 0;
"2" = 0;
"3" = 0;
"4" = 0;
"5" = 0;
"6" = 0;
"7" = 0;
"8" = 0;
"9" = 0;
};
};
width = 736;
}
);
metricRight = "=O";
},
{
glyphname = R.init.alt;
kernLeft = H;
kernRight = R;
layers = (
{
layerId = m01;
shapes = (
{
closed = 1;
nodes = (
(45,0,l),
(150,0,l),
(150,700,l),
(45,700,l)
);
},
{
closed = 1;
nodes = (
(150,288,l),
(312,288,l),
(312,378,l),
(150,378,l)
);
},
{
closed = 1;
nodes = (
(150,610,l),
(312,610,l),
(312,700,l),
(150,700,l)
);
},
{
closed = 1;
nodes = (
(312,610,l),
(378,610,o),
(436,569,o),
(436,486,c),
(436,409,o),
(379,380,o),
(312,378,c),
(312,288,l),
(431,290,o),
(536,335,o),
(536,486,cs),
(536,637,o),
(431,700,o),
(312,700,c)
);
},
{
closed = 1;
nodes = (
(412,1,l),
(537,0,l),
(354,305,l),
(239,306,l)
);
}
);
userData = {
com.hugojourdan.ColorFlow = {
"0" = 0;
"1" = 0;
"10" = 0;
"11" = 0;
"2" = 0;
"3" = 0;
"4" = 0;
"5" = 0;
"6" = 0;
"7" = 0;
"8" = 0;
"9" = 0;
};
};
width = 562;
},
{
layerId = m002;
shapes = (
{
closed = 1;
nodes = (
(52,-203,l),
(157,-128,l),
(157,572,l),
(52,497,l)
);
},
{
closed = 1;
nodes = (
(157,160,l),
(319,272,l),
(319,362,l),
(157,250,l)
);
},
{
closed = 1;
nodes = (
(157,482,l),
(319,594,l),
(319,684,l),
(157,572,l)
);
},
{
closed = 1;
nodes = (
(319,594,l),
(385,641,o),
(443,640,o),
(443,557,c),
(443,480,o),
(386,411,o),
(319,362,c),
(319,272,l),
(438,358,o),
(543,476,o),
(543,627,cs),
(543,778,o),
(438,768,o),
(319,684,c)
);
},
{
closed = 1;
nodes = (
(419,55,l),
(544,143,l),
(361,319,l),
(246,239,l)
);
}
);
userData = {
com.hugojourdan.ColorFlow = {
"0" = 0;
"1" = 0;
"10" = 0;
"11" = 0;
"2" = 0;
"3" = 0;
"4" = 0;
"5" = 0;
"6" = 0;
"7" = 0;
"8" = 0;
"9" = 0;
};
};
width = 587;
},
{
layerId = m003;
shapes = (
{
closed = 1;
nodes = (
(50,-200,l),
(155,-200,l),
(155,500,l),
(50,500,l)
);
},
{
closed = 1;
nodes = (
(155,88,l),
(317,88,l),
(317,178,l),
(155,178,l)
);
},
{
closed = 1;
nodes = (
(155,410,l),
(317,410,l),
(317,500,l),
(155,500,l)
);
},
{
closed = 1;
nodes = (
(317,410,l),
(383,410,o),
(441,369,o),
(441,286,c),
(441,209,o),
(384,180,o),
(317,178,c),
(317,88,l),
(436,90,o),
(541,135,o),
(541,286,cs),
(541,437,o),
(436,500,o),
(317,500,c)
);
},
{
closed = 1;
nodes = (
(417,-200,l),
(542,-200,l),
(359,105,l),
(244,106,l)
);
}
);
userData = {
com.hugojourdan.ColorFlow = {
"0" = 0;
"1" = 0;
"10" = 0;
"11" = 0;
"2" = 0;
"3" = 0;
"4" = 0;
"5" = 0;
"6" = 0;
"7" = 0;
"8" = 0;
"9" = 0;
};
};
width = 572;
}
);
metricLeft = "=P";
metricRight = "=P";
},
{
glyphname = S.init.alt;
kernLeft = S;
kernRight = S;
layers = (
{
layerId = m01;
shapes = (
{
closed = 1;
nodes = (
(20,242,o),
(448,361,o),
(448,195,c),
(448,134,o),
(381,93,o),
(275,93,cs),
(185,93,o),
(120,137,o),
(120,206,c),
(15,199,l),
(15,74,o),
(108,3,o),
(275,3,cs),
(448,3,o),
(553,88,o),
(553,209,cs),
(553,451,o),
(125,361,o),
(125,513,c),
(126,578,o),
(202,608,o),
(275,608,cs),
(364,608,o),
(446,562,o),
(446,493,c),
(551,500,l),
(551,624,o),
(448,698,o),
(275,698,cs),
(101,698,o),
(20,618,o),
(20,499,c)
);
}
);
userData = {
com.hugojourdan.ColorFlow = {
"0" = 0;
"1" = 0;
"10" = 0;
"11" = 0;
"2" = 0;
"3" = 0;
"4" = 0;
"5" = 0;
"6" = 0;
"7" = 0;
"8" = 0;
"9" = 0;
};
};
width = 568;
},
{
layerId = m002;
shapes = (
{
closed = 1;
nodes = (
(38,57,o),
(466,476,o),
(466,310,c),
(466,249,o),
(399,161,o),
(293,86,cs),
(203,23,o),
(138,22,o),
(138,91,c),
(33,10,l),
(33,-115,o),
(126,-120,o),
(293,-4,cs),
(466,118,o),
(571,277,o),
(571,398,cs),
(571,640,o),
(143,249,o),
(143,401,c),
(144,468,o),
(220,550,o),
(293,601,cs),
(382,664,o),
(464,676,o),
(464,607,c),
(569,687,l),
(569,811,o),
(466,813,o),
(293,691,cs),
(119,570,o),
(38,433,o),
(38,314,c)
);
}
);
userData = {
com.hugojourdan.ColorFlow = {
"0" = 0;
"1" = 0;
"10" = 0;
"11" = 0;
"2" = 0;
"3" = 0;
"4" = 0;
"5" = 0;
"6" = 0;
"7" = 0;
"8" = 0;
"9" = 0;
};
};
width = 604;
},
{
layerId = m003;
shapes = (
{
closed = 1;
nodes = (
(25,53,o),
(453,150,o),
(453,-16,c),
(453,-77,o),
(386,-118,o),
(280,-118,cs),
(190,-118,o),
(125,-74,o),
(125,-5,c),
(20,-12,l),
(20,-137,o),
(113,-208,o),
(280,-208,cs),
(453,-208,o),
(558,-123,o),
(558,-2,cs),
(558,240,o),
(130,172,o),
(130,324,c),
(131,389,o),
(207,419,o),
(280,419,cs),
(369,419,o),
(451,373,o),
(451,304,c),
(556,311,l),
(556,435,o),
(453,509,o),
(280,509,cs),
(106,509,o),
(25,429,o),
(25,310,c)
);
}
);
userData = {
com.hugojourdan.ColorFlow = {
"0" = 0;
"1" = 0;
"10" = 0;
"11" = 0;
"2" = 0;
"3" = 0;
"4" = 0;
"5" = 0;
"6" = 0;
"7" = 0;
"8" = 0;
"9" = 0;
};
};
width = 578;
}
);
metricLeft = "=s";
metricRight = "=s";
},
{
glyphname = T.init.alt;
kernLeft = T;
kernRight = T;
layers = (
{
layerId = m01;
shapes = (
{
closed = 1;
nodes = (
(195,0,l),
(300,0,l),
(300,700,l),
(195,700,l)
);
},
{
closed = 1;
nodes = (
(20,610,l),
(195,610,l),
(195,700,l),
(20,700,l)
);
},
{
closed = 1;
nodes = (
(300,610,l),
(474,610,l),
(474,700,l),
(300,700,l)
);
}
);
userData = {
com.hugojourdan.ColorFlow = {
"0" = 0;
"1" = 0;
"10" = 0;
"11" = 0;
"2" = 0;
"3" = 0;
"4" = 0;
"5" = 0;
"6" = 0;
"7" = 0;
"8" = 0;
"9" = 0;
};
};
width = 494;
},
{
layerId = m002;
shapes = (
{
closed = 1;
nodes = (
(195,-87,l),
(300,-13,l),
(300,687,l),
(195,613,l)
);
},
{
closed = 1;
nodes = (
(20,401,l),
(195,523,l),
(195,613,l),
(20,491,l)
);
},
{
closed = 1;
nodes = (
(300,597,l),
(474,719,l),
(474,809,l),
(300,687,l)
);
}
);
userData = {
com.hugojourdan.ColorFlow = {
"0" = 0;
"1" = 0;
"10" = 0;
"11" = 0;
"2" = 0;
"3" = 0;
"4" = 0;
"5" = 0;
"6" = 0;
"7" = 0;
"8" = 0;
"9" = 0;
};
};
width = 494;
},
{
layerId = m003;
shapes = (
{
closed = 1;
nodes = (
(195,-200,l),
(300,-200,l),
(300,500,l),
(195,500,l)
);
},
{
closed = 1;
nodes = (
(20,410,l),
(195,410,l),
(195,500,l),
(20,500,l)
);
},
{
closed = 1;
nodes = (
(300,410,l),
(474,410,l),
(474,500,l),
(300,500,l)
);
}
);
userData = {
com.hugojourdan.ColorFlow = {
"0" = 0;
"1" = 0;
"10" = 0;
"11" = 0;
"2" = 0;
"3" = 0;
"4" = 0;
"5" = 0;
"6" = 0;
"7" = 0;
"8" = 0;
"9" = 0;
};
};
width = 494;
}
);
metricLeft = "=20";
metricRight = "=20";
},
{
glyphname = U.init.alt;
kernLeft = U;
kernRight = U;
layers = (
{
layerId = m01;
shapes = (
{
closed = 1;
nodes = (
(456,260,l),
(456,133,o),
(373,92,o),
(298,92,c),
(223,92,o),
(145,133,o),
(145,260,c),
(145,700,l),
(40,700,l),
(40,240,l),
(40,103,o),
(141,-8,o),
(296,-8,c),
(451,-8,o),
(561,101,o),
(561,240,c),
(561,700,l),
(456,700,l)
);
}
);
userData = {
com.hugojourdan.ColorFlow = {
"0" = 0;
"1" = 0;
"10" = 0;
"11" = 0;
"2" = 0;
"3" = 0;
"4" = 0;
"5" = 0;
"6" = 0;
"7" = 0;
"8" = 0;
"9" = 0;
};
};
width = 600;
},
{
layerId = m002;
shapes = (
{
closed = 1;
nodes = (
(456,299,l),
(456,172,o),
(373,73,o),
(298,20,c),
(223,-33,o),
(145,-46,o),
(145,81,c),
(145,521,l),
(40,447,l),
(40,-13,l),
(40,-150,o),
(141,-189,o),
(296,-81,c),
(451,28,o),
(561,214,o),
(561,353,c),
(561,813,l),
(456,739,l)
);
}
);
userData = {
com.hugojourdan.ColorFlow = {
"0" = 0;
"1" = 0;
"10" = 0;
"11" = 0;
"2" = 0;
"3" = 0;
"4" = 0;
"5" = 0;
"6" = 0;
"7" = 0;
"8" = 0;
"9" = 0;
};
};
width = 602;
},
{
layerId = m003;
shapes = (
{
closed = 1;
nodes = (
(486,60,l),
(486,-67,o),
(403,-108,o),
(328,-108,c),
(253,-108,o),
(175,-67,o),
(175,60,c),
(175,500,l),
(70,500,l),
(70,40,l),
(70,-97,o),
(171,-208,o),
(326,-208,c),
(481,-208,o),
(591,-99,o),
(591,40,c),
(591,500,l),
(486,500,l)
);
}
);
userData = {
com.hugojourdan.ColorFlow = {
"0" = 0;
"1" = 0;
"10" = 0;
"11" = 0;
"2" = 0;
"3" = 0;
"4" = 0;
"5" = 0;
"6" = 0;
"7" = 0;
"8" = 0;
"9" = 0;
};
};
width = 660;
}
);
},
{
glyphname = V.init.alt;
kernLeft = V;
kernRight = V;
layers = (
{
layerId = m01;
shapes = (
{
closed = 1;
nodes = (
(303,0,l),
(443,0,l),
(707,700,l),
(602,700,l),
(371,110,l),
(142,701,l),
(37,701,l)
);
}
);
userData = {
com.hugojourdan.ColorFlow = {
"0" = 0;
"1" = 0;
"10" = 0;
"11" = 0;
"2" = 0;
"3" = 0;
"4" = 0;
"5" = 0;
"6" = 0;
"7" = 0;
"8" = 0;
"9" = 0;
};
};
width = 744;
},
{
layerId = m002;
shapes = (
{
closed = 1;
nodes = (
(283,-179,l),
(423,-81,l),
(687,804,l),
(582,731,l),
(351,-20,l),
(122,410,l),
(17,337,l)
);
}
);
userData = {
com.hugojourdan.ColorFlow = {
"0" = 0;
"1" = 0;
"10" = 0;
"11" = 0;
"2" = 0;
"3" = 0;
"4" = 0;
"5" = 0;
"6" = 0;
"7" = 0;
"8" = 0;
"9" = 0;
};
};
width = 704;
},
{
layerId = m003;
shapes = (
{
closed = 1;
nodes = (
(296,-200,l),
(436,-200,l),
(700,500,l),
(595,500,l),
(364,-90,l),
(135,501,l),
(30,501,l)
);
}
);
userData = {
com.hugojourdan.ColorFlow = {
"0" = 0;
"1" = 0;
"10" = 0;
"11" = 0;
"2" = 0;
"3" = 0;
"4" = 0;
"5" = 0;
"6" = 0;
"7" = 0;
"8" = 0;
"9" = 0;
};
};
width = 730;
}
);
metricLeft = "=v";
metricRight = "=v";
},
{
glyphname = W.init.alt;
kernLeft = V;
kernRight = V;
layers = (
{
layerId = m01;
shapes = (
{
closed = 1;
nodes = (
(190,0,l),
(330,0,l),
(467,548,l),
(585,0,l),
(725,0,l),
(911,700,l),
(806,700,l),
(653,110,l),
(539,700,l),
(409,700,l),
(270,110,l),
(142,700,l),
(37,700,l)
);
}
);
userData = {
com.hugojourdan.ColorFlow = {
"0" = 0;
"1" = 0;
"10" = 0;
"11" = 0;
"2" = 0;
"3" = 0;
"4" = 0;
"5" = 0;
"6" = 0;
"7" = 0;
"8" = 0;
"9" = 0;
};
};
width = 948;
},
{
associatedMasterId = m01;
layerId = "0084DC26-9980-463B-9F41-BEB6D52AE52E";
name = "14. Jun 23, 11:30";
shapes = (
{
closed = 1;
nodes = (
(252,0,l),
(391,0,l),
(503,570,l),
(637,0,l),
(776,0,l),
(989,700,l),
(884,700,l),
(715,110,l),
(569,700,l),
(430,700,l),
(315,110,l),
(115,701,l),
(10,701,l)
);
}
);
userData = {
com.hugojourdan.ColorFlow = {
"0" = 0;
"1" = 0;
"10" = 0;
"11" = 0;
"2" = 0;
"3" = 0;
"4" = 0;
"5" = 0;
"6" = 0;
"7" = 0;
"8" = 0;
"9" = 0;
};
};
width = 999;
},
{
layerId = m002;
shapes = (
{
closed = 1;
nodes = (
(170,-229,l),
(310,-131,l),
(447,513,l),
(565,47,l),
(705,146,l),
(891,976,l),
(786,903,l),
(633,206,l),
(519,715,l),
(389,625,l),
(250,-63,l),
(122,437,l),
(17,364,l)
);
}
);
userData = {
com.hugojourdan.ColorFlow = {
"0" = 0;
"1" = 0;
"10" = 0;
"11" = 0;
"2" = 0;
"3" = 0;
"4" = 0;
"5" = 0;
"6" = 0;
"7" = 0;
"8" = 0;
"9" = 0;
};
};
width = 908;
},
{
associatedMasterId = m002;
layerId = "F2570CF6-2BB4-4EC7-9029-223169ADAC98";
name = "14. Jun 23, 11:30";
shapes = (
{
closed = 1;
nodes = (
(252,0,l),
(391,0,l),
(503,570,l),
(637,0,l),
(776,0,l),
(989,700,l),
(884,700,l),
(715,110,l),
(569,700,l),
(430,700,l),
(315,110,l),
(115,701,l),
(10,701,l)
);
}
);
userData = {
com.hugojourdan.ColorFlow = {
"0" = 0;
"1" = 0;
"10" = 0;
"11" = 0;
"2" = 0;
"3" = 0;
"4" = 0;
"5" = 0;
"6" = 0;
"7" = 0;
"8" = 0;
"9" = 0;
};
};
width = 999;
},
{
layerId = m003;
shapes = (
{
closed = 1;
nodes = (
(183,-200,l),
(323,-200,l),
(460,348,l),
(578,-200,l),
(718,-200,l),
(904,500,l),
(799,500,l),
(646,-90,l),
(532,500,l),
(402,500,l),
(263,-90,l),
(135,500,l),
(30,500,l)
);
}
);
userData = {
com.hugojourdan.ColorFlow = {
"0" = 0;
"1" = 0;
"10" = 0;
"11" = 0;
"2" = 0;
"3" = 0;
"4" = 0;
"5" = 0;
"6" = 0;
"7" = 0;
"8" = 0;
"9" = 0;
};
};
width = 934;
},
{
associatedMasterId = m003;
layerId = "B153EBBB-0B9E-4A6B-B76D-1112A21CED66";
name = "14. Jun 23, 11:30";
shapes = (
{
closed = 1;
nodes = (
(252,0,l),
(391,0,l),
(503,570,l),
(637,0,l),
(776,0,l),
(989,700,l),
(884,700,l),
(715,110,l),
(569,700,l),
(430,700,l),
(315,110,l),
(115,701,l),
(10,701,l)
);
}
);
userData = {
com.hugojourdan.ColorFlow = {
"0" = 0;
"1" = 0;
"10" = 0;
"11" = 0;
"2" = 0;
"3" = 0;
"4" = 0;
"5" = 0;
"6" = 0;
"7" = 0;
"8" = 0;
"9" = 0;
};
};
width = 999;
}
);
metricLeft = "=V";
metricRight = "=V";
},
{
glyphname = X.init.alt;
kernLeft = X;
kernRight = X;
layers = (
{
layerId = m01;
shapes = (
{
closed = 1;
nodes = (
(284,351,l),
(40,0,l),
(163,0,l),
(347,256,l),
(528,0,l),
(645,0,l),
(408,351,l),
(642,700,l),
(521,700,l),
(347,432,l),
(159,700,l),
(37,700,l)
);
}
);
userData = {
com.hugojourdan.ColorFlow = {
"0" = 0;
"1" = 0;
"10" = 0;
"11" = 0;
"2" = 0;
"3" = 0;
"4" = 0;
"5" = 0;
"6" = 0;
"7" = 0;
"8" = 0;
"9" = 0;
};
};
width = 682;
},
{
layerId = m002;
shapes = (
{
closed = 1;
nodes = (
(264,311,l),
(20,-211,l),
(143,-124,l),
(327,260,l),
(508,131,l),
(625,213,l),
(388,398,l),
(622,911,l),
(501,826,l),
(327,436,l),
(139,572,l),
(17,487,l)
);
}
);
userData = {
com.hugojourdan.ColorFlow = {
"0" = 0;
"1" = 0;
"10" = 0;
"11" = 0;
"2" = 0;
"3" = 0;
"4" = 0;
"5" = 0;
"6" = 0;
"7" = 0;
"8" = 0;
"9" = 0;
};
};
width = 642;
},
{
layerId = m003;
shapes = (
{
closed = 1;
nodes = (
(277,151,l),
(33,-200,l),
(156,-200,l),
(340,56,l),
(521,-200,l),
(638,-200,l),
(401,151,l),
(635,500,l),
(514,500,l),
(340,232,l),
(152,500,l),
(30,500,l)
);
}
);
userData = {
com.hugojourdan.ColorFlow = {
"0" = 0;
"1" = 0;
"10" = 0;
"11" = 0;
"2" = 0;
"3" = 0;
"4" = 0;
"5" = 0;
"6" = 0;
"7" = 0;
"8" = 0;
"9" = 0;
};
};
width = 668;
}
);
metricLeft = "=V";
metricRight = "=V";
},
{
glyphname = Y.init.alt;
kernLeft = Y;
kernRight = Y;
layers = (
{
layerId = m01;
shapes = (
{
closed = 1;
nodes = (
(291,260,l),
(292,260,l),
(292,0,l),
(397,0,l),
(397,260,l),
(667,700,l),
(562,700,l),
(343,351,l),
(142,701,l),
(37,701,l)
);
}
);
userData = {
com.hugojourdan.ColorFlow = {
"0" = 0;
"1" = 0;
"10" = 0;
"11" = 0;
"2" = 0;
"3" = 0;
"4" = 0;
"5" = 0;
"6" = 0;
"7" = 0;
"8" = 0;
"9" = 0;
};
};
width = 704;
},
{
layerId = m002;
shapes = (
{
closed = 1;
nodes = (
(271,108,l),
(272,108,l),
(272,-152,l),
(377,-79,l),
(377,181,l),
(647,810,l),
(542,737,l),
(323,234,l),
(122,444,l),
(17,371,l)
);
}
);
userData = {
com.hugojourdan.ColorFlow = {
"0" = 0;
"1" = 0;
"10" = 0;
"11" = 0;
"2" = 0;
"3" = 0;
"4" = 0;
"5" = 0;
"6" = 0;
"7" = 0;
"8" = 0;
"9" = 0;
};
};
width = 664;
},
{
layerId = m003;
shapes = (
{
closed = 1;
nodes = (
(284,60,l),
(285,60,l),
(285,-200,l),
(390,-200,l),
(390,60,l),
(660,500,l),
(555,500,l),
(336,151,l),
(135,501,l),
(30,501,l)
);
}
);
userData = {
com.hugojourdan.ColorFlow = {
"0" = 0;
"1" = 0;
"10" = 0;
"11" = 0;
"2" = 0;
"3" = 0;
"4" = 0;
"5" = 0;
"6" = 0;
"7" = 0;
"8" = 0;
"9" = 0;
};
};
width = 690;
}
);
metricLeft = "=V";
metricRight = "=V";
},
{
glyphname = Z.init.alt;
kernLeft = Z;
kernRight = Z;
layers = (
{
layerId = m01;
shapes = (
{
closed = 1;
nodes = (
(168,90,l),
(582,617,l),
(582,699,l),
(51,699,l),
(51,609,l),
(460,609,l),
(51,90,l),
(52,0,l),
(564,0,l),
(564,90,l)
);
}
);
userData = {
com.hugojourdan.ColorFlow = {
"0" = 0;
"1" = 0;
"10" = 0;
"11" = 0;
"2" = 0;
"3" = 0;
"4" = 0;
"5" = 0;
"6" = 0;
"7" = 0;
"8" = 0;
"9" = 0;
};
};
width = 600;
},
{
layerId = m002;
shapes = (
{
closed = 1;
nodes = (
(140,-44,l),
(554,773,l),
(554,855,l),
(23,483,l),
(23,393,l),
(432,680,l),
(23,-126,l),
(24,-215,l),
(536,144,l),
(536,234,l)
);
}
);
userData = {
com.hugojourdan.ColorFlow = {
"0" = 0;
"1" = 0;
"10" = 0;
"11" = 0;
"2" = 0;
"3" = 0;
"4" = 0;
"5" = 0;
"6" = 0;
"7" = 0;
"8" = 0;
"9" = 0;
};
};
width = 574;
},
{
layerId = m003;
shapes = (
{
closed = 1;
nodes = (
(198,-110,l),
(612,417,l),
(612,499,l),
(81,499,l),
(81,409,l),
(490,409,l),
(81,-110,l),
(82,-200,l),
(594,-200,l),
(594,-110,l)
);
}
);
userData = {
com.hugojourdan.ColorFlow = {
"0" = 0;
"1" = 0;
"10" = 0;
"11" = 0;
"2" = 0;
"3" = 0;
"4" = 0;
"5" = 0;
"6" = 0;
"7" = 0;
"8" = 0;
"9" = 0;
};
};
width = 660;
}
);
},
{
glyphname = a;
kernLeft = a;
kernRight = u;
layers = (
{
layerId = m01;
shapes = (
{
closed = 1;
nodes = (
(332,0,l),
(432,0,l),
(432,338,ls),
(432,434,o),
(353,508,o),
(224,508,cs),
(106,508,o),
(15,448,o),
(15,324,c),
(115,324,l),
(115,383,o),
(164,425,o),
(224,425,cs),
(284,425,o),
(332,383,o),
(332,333,c)
);
},
{
closed = 1;
nodes = (
(108,308,o),
(16,236,o),
(16,128,cs),
(16,27,o),
(106,-8,o),
(173,-8,cs),
(276,-8,o),
(346,43,o),
(346,205,c),
(332,192,l),
(332,149,o),
(295,88,o),
(240,70,cs),
(161,44,o),
(97,81,o),
(97,139,cs),
(97,216,o),
(230,229,o),
(349,229,c),
(349,308,l)
);
}
);
userData = {
com.hugojourdan.ColorFlow = {
"0" = 0;
"1" = 0;
"10" = 0;
"11" = 0;
"2" = 0;
"3" = 0;
"4" = 0;
"5" = 0;
"6" = 0;
"7" = 0;
"8" = 0;
"9" = 0;
};
};
width = 512;
},
{
layerId = m002;
shapes = (
{
closed = 1;
nodes = (
(350,0,l),
(450,0,l),
(450,338,ls),
(450,434,o),
(371,508,o),
(242,508,cs),
(124,508,o),
(33,448,o),
(33,324,c),
(133,324,l),
(133,383,o),
(182,425,o),
(242,425,cs),
(302,425,o),
(350,383,o),
(350,333,c)
);
},
{
closed = 1;
nodes = (
(126,308,o),
(34,236,o),
(34,128,cs),
(34,27,o),
(124,-8,o),
(191,-8,cs),
(294,-8,o),
(364,43,o),
(364,205,c),
(350,192,l),
(350,149,o),
(313,88,o),
(258,70,cs),
(179,44,o),
(115,81,o),
(115,139,cs),
(115,216,o),
(248,229,o),
(367,229,c),
(367,308,l)
);
}
);
userData = {
com.hugojourdan.ColorFlow = {
"0" = 0;
"1" = 0;
"10" = 0;
"11" = 0;
"2" = 0;
"3" = 0;
"4" = 0;
"5" = 0;
"6" = 0;
"7" = 0;
"8" = 0;
"9" = 0;
};
};
width = 510;
},
{
layerId = m003;
shapes = (
{
closed = 1;
nodes = (
(337,0,l),
(437,0,l),
(437,338,ls),
(437,434,o),
(358,508,o),
(229,508,cs),
(111,508,o),
(20,448,o),
(20,324,c),
(120,324,l),
(120,383,o),
(169,425,o),
(229,425,cs),
(289,425,o),
(337,383,o),
(337,333,c)
);
},
{
closed = 1;
nodes = (
(113,308,o),
(21,236,o),
(21,128,cs),
(21,27,o),
(111,-8,o),
(178,-8,cs),
(281,-8,o),
(351,43,o),
(351,205,c),
(337,192,l),
(337,149,o),
(300,88,o),
(245,70,cs),
(166,44,o),
(102,81,o),
(102,139,cs),
(102,216,o),
(235,229,o),
(354,229,c),
(354,308,l)
);
}
);
width = 477;
}
);
metricLeft = "=s";
metricRight = "=n";
unicode = 97;
},
{
glyphname = b;
kernLeft = l;
kernRight = o;
layers = (
{
layerId = m01;
shapes = (
{
closed = 1;
nodes = (
(80,0,l),
(180,0,l),
(180,800,l),
(80,800,l)
);
},
{
closed = 1;
nodes = (
(474,-8,o),
(542,92,o),
(542,250,cs),
(542,400,o),
(474,508,o),
(334,508,cs),
(204,508,o),
(162,411,o),
(162,250,cs),
(162,104,o),
(185,-8,o),
(334,-8,cs)
);
},
{
closed = 1;
nodes = (
(219,72,o),
(180,146,o),
(180,250,cs),
(180,353,o),
(219,428,o),
(314,428,cs),
(404,428,o),
(442,360,o),
(442,250,cs),
(442,140,o),
(404,72,o),
(314,72,cs)
);
}
);
userData = {
com.hugojourdan.ColorFlow = {
"0" = 0;
"1" = 0;
"10" = 0;
"11" = 0;
"2" = 0;
"3" = 0;
"4" = 0;
"5" = 0;
"6" = 0;
"7" = 0;
"8" = 0;
"9" = 0;
};
};
width = 557;
},
{
layerId = m002;
shapes = (
{
closed = 1;
nodes = (
(60,0,l),
(160,0,l),
(160,800,l),
(60,800,l)
);
},
{
closed = 1;
nodes = (
(454,-8,o),
(522,92,o),
(522,250,cs),
(522,400,o),
(454,508,o),
(314,508,cs),
(184,508,o),
(142,411,o),
(142,250,cs),
(142,104,o),
(165,-8,o),
(314,-8,cs)
);
},
{
closed = 1;
nodes = (
(199,72,o),
(160,146,o),
(160,250,cs),
(160,353,o),
(199,428,o),
(294,428,cs),
(384,428,o),
(422,360,o),
(422,250,cs),
(422,140,o),
(384,72,o),
(294,72,cs)
);
}
);
userData = {
com.hugojourdan.ColorFlow = {
"0" = 0;
"1" = 0;
"10" = 0;
"11" = 0;
"2" = 0;
"3" = 0;
"4" = 0;
"5" = 0;
"6" = 0;
"7" = 0;
"8" = 0;
"9" = 0;
};
};
width = 555;
},
{
layerId = m003;
shapes = (
{
closed = 1;
nodes = (
(40,0,l),
(140,0,l),
(140,800,l),
(40,800,l)
);
},
{
closed = 1;
nodes = (
(434,-8,o),
(502,92,o),
(502,250,cs),
(502,400,o),
(434,508,o),
(294,508,cs),
(164,508,o),
(122,411,o),
(122,250,cs),
(122,104,o),
(145,-8,o),
(294,-8,cs)
);
},
{
closed = 1;
nodes = (
(179,72,o),
(140,146,o),
(140,250,cs),
(140,353,o),
(179,428,o),
(274,428,cs),
(364,428,o),
(402,360,o),
(402,250,cs),
(402,140,o),
(364,72,o),
(274,72,cs)
);
}
);
userData = {
com.hugojourdan.ColorFlow = {
"0" = 0;
"1" = 0;
"10" = 0;
"11" = 0;
"2" = 0;
"3" = 0;
"4" = 0;
"5" = 0;
"6" = 0;
"7" = 0;
"8" = 0;
"9" = 0;
};
};
width = 522;
}
);
metricLeft = "=n";
metricRight = "=o";
unicode = 98;
},
{
glyphname = c;
kernLeft = o;
kernRight = o;
layers = (
{
layerId = m01;
shapes = (
{
closed = 1;
nodes = (
(387,193,l),
(378,146,o),
(343,72,o),
(253,72,cs),
(163,72,o),
(115,145,o),
(115,249,cs),
(115,352,o),
(163,428,o),
(253,428,cs),
(343,428,o),
(384,354,o),
(388,291,c),
(488,304,l),
(472,420,o),
(393,508,o),
(253,508,cs),
(113,508,o),
(15,410,o),
(15,249,cs),
(15,103,o),
(110,-8,o),
(253,-8,cs),
(377,-8,o),
(467,73,o),
(487,181,c)
);
}
);
userData = {
com.hugojourdan.ColorFlow = {
"0" = 0;
"1" = 0;
"10" = 0;
"11" = 0;
"2" = 0;
"3" = 0;
"4" = 0;
"5" = 0;
"6" = 0;
"7" = 0;
"8" = 0;
"9" = 0;
};
};
width = 503;
},
{
layerId = m002;
shapes = (
{
closed = 1;
nodes = (
(405,193,l),
(396,146,o),
(361,72,o),
(271,72,cs),
(181,72,o),
(133,145,o),
(133,249,cs),
(133,352,o),
(181,428,o),
(271,428,cs),
(361,428,o),
(402,354,o),
(406,291,c),
(506,304,l),
(490,420,o),
(411,508,o),
(271,508,cs),
(131,508,o),
(33,410,o),
(33,249,cs),
(33,103,o),
(128,-8,o),
(271,-8,cs),
(395,-8,o),
(485,73,o),
(505,181,c)
);
}
);
userData = {
com.hugojourdan.ColorFlow = {
"0" = 0;
"1" = 0;
"10" = 0;
"11" = 0;
"2" = 0;
"3" = 0;
"4" = 0;
"5" = 0;
"6" = 0;
"7" = 0;
"8" = 0;
"9" = 0;
};
};
width = 539;
},
{
layerId = m003;
shapes = (
{
closed = 1;
nodes = (
(392,193,l),
(383,146,o),
(348,72,o),
(258,72,cs),
(168,72,o),
(120,145,o),
(120,249,cs),
(120,352,o),
(168,428,o),
(258,428,cs),
(348,428,o),
(389,354,o),
(393,291,c),
(493,304,l),
(477,420,o),
(398,508,o),
(258,508,cs),
(118,508,o),
(20,410,o),
(20,249,cs),
(20,103,o),
(115,-8,o),
(258,-8,cs),
(382,-8,o),
(472,73,o),
(492,181,c)
);
}
);
userData = {
com.hugojourdan.ColorFlow = {
"0" = 0;
"1" = 0;
"10" = 0;
"11" = 0;
"2" = 0;
"3" = 0;
"4" = 0;
"5" = 0;
"6" = 0;
"7" = 0;
"8" = 0;
"9" = 0;
};
};
width = 513;
}
);
metricLeft = "=o";
metricRight = "=o";
unicode = 99;
},
{
glyphname = d;
kernLeft = o;
kernRight = l;
layers = (
{
layerId = m01;
shapes = (
{
closed = 1;
nodes = (
(377,800,l),
(377,0,l),
(477,0,l),
(477,800,l)
);
},
{
closed = 1;
nodes = (
(372,-8,o),
(395,104,o),
(395,250,cs),
(395,411,o),
(353,508,o),
(223,508,cs),
(83,508,o),
(15,400,o),
(15,250,cs),
(15,92,o),
(83,-8,o),
(223,-8,cs)
);
},
{
closed = 1;
nodes = (
(153,72,o),
(115,140,o),
(115,250,cs),
(115,360,o),
(153,428,o),
(243,428,cs),
(338,428,o),
(377,353,o),
(377,250,cs),
(377,146,o),
(338,72,o),
(243,72,cs)
);
}
);
userData = {
com.hugojourdan.ColorFlow = {
"0" = 0;
"1" = 0;
"10" = 0;
"11" = 0;
"2" = 0;
"3" = 0;
"4" = 0;
"5" = 0;
"6" = 0;
"7" = 0;
"8" = 0;
"9" = 0;
};
};
width = 557;
},
{
layerId = m002;
shapes = (
{
closed = 1;
nodes = (
(395,800,l),
(395,0,l),
(495,0,l),
(495,800,l)
);
},
{
closed = 1;
nodes = (
(390,-8,o),
(413,104,o),
(413,250,cs),
(413,411,o),
(371,508,o),
(241,508,cs),
(101,508,o),
(33,400,o),
(33,250,cs),
(33,92,o),
(101,-8,o),
(241,-8,cs)
);
},
{
closed = 1;
nodes = (
(171,72,o),
(133,140,o),
(133,250,cs),
(133,360,o),
(171,428,o),
(261,428,cs),
(356,428,o),
(395,353,o),
(395,250,cs),
(395,146,o),
(356,72,o),
(261,72,cs)
);
}
);
userData = {
com.hugojourdan.ColorFlow = {
"0" = 0;
"1" = 0;
"10" = 0;
"11" = 0;
"2" = 0;
"3" = 0;
"4" = 0;
"5" = 0;
"6" = 0;
"7" = 0;
"8" = 0;
"9" = 0;
};
};
width = 555;
},
{
layerId = m003;
shapes = (
{
closed = 1;
nodes = (
(382,800,l),
(382,0,l),
(482,0,l),
(482,800,l)
);
},
{
closed = 1;
nodes = (
(377,-8,o),
(400,104,o),
(400,250,cs),
(400,411,o),
(358,508,o),
(228,508,cs),
(88,508,o),
(20,400,o),
(20,250,cs),
(20,92,o),
(88,-8,o),
(228,-8,cs)
);
},
{
closed = 1;
nodes = (
(158,72,o),
(120,140,o),
(120,250,cs),
(120,360,o),
(158,428,o),
(248,428,cs),
(343,428,o),
(382,353,o),
(382,250,cs),
(382,146,o),
(343,72,o),
(248,72,cs)
);
}
);
userData = {
com.hugojourdan.ColorFlow = {
"0" = 0;
"1" = 0;
"10" = 0;
"11" = 0;
"2" = 0;
"3" = 0;
"4" = 0;
"5" = 0;
"6" = 0;
"7" = 0;
"8" = 0;
"9" = 0;
};
};
width = 522;
}
);
metricLeft = "=o";
metricRight = "=l";
unicode = 100;
},
{
glyphname = e;
kernLeft = o;
kernRight = o;
layers = (
{
layerId = m01;
shapes = (
{
closed = 1;
nodes = (
(390,182,l),
(375,104,o),
(314,69,o),
(251,72,cs),
(191,75,o),
(115,113,o),
(115,256,cs),
(115,386,o),
(171,428,o),
(254,428,cs),
(329,428,o),
(368,389,o),
(381,316,c),
(94,316,l),
(94,236,l),
(480,236,l),
(484,259,o),
(484,280,o),
(483,295,cs),
(475,420,o),
(380,508,o),
(254,508,cs),
(112,508,o),
(15,417,o),
(15,256,cs),
(15,110,o),
(108,-8,o),
(251,-8,cs),
(367,-8,o),
(460,66,o),
(480,170,c)
);
}
);
userData = {
com.hugojourdan.ColorFlow = {
"0" = 0;
"1" = 0;
"10" = 0;
"11" = 0;
"2" = 0;
"3" = 0;
"4" = 0;
"5" = 0;
"6" = 0;
"7" = 0;
"8" = 0;
"9" = 0;
};
};
width = 499;
},
{
layerId = m002;
shapes = (
{
closed = 1;
nodes = (
(408,182,l),
(393,104,o),
(332,69,o),
(269,72,cs),
(209,75,o),
(133,113,o),
(133,256,cs),
(133,386,o),
(189,428,o),
(272,428,cs),
(347,428,o),
(386,389,o),
(399,316,c),
(112,316,l),
(112,236,l),
(498,236,l),
(502,259,o),
(502,280,o),
(501,295,cs),
(493,420,o),
(398,508,o),
(272,508,c),
(130,508,o),
(33,417,o),
(33,256,cs),
(33,110,o),
(126,-8,o),
(269,-8,cs),
(385,-8,o),
(478,66,o),
(498,170,c)
);
}
);
userData = {
com.hugojourdan.ColorFlow = {
"0" = 0;
"1" = 0;
"10" = 0;
"11" = 0;
"2" = 0;
"3" = 0;
"4" = 0;
"5" = 0;
"6" = 0;
"7" = 0;
"8" = 0;
"9" = 0;
};
};
width = 535;
},
{
layerId = m003;
shapes = (
{
closed = 1;
nodes = (
(395,182,l),
(380,104,o),
(319,69,o),
(256,72,cs),
(196,75,o),
(120,113,o),
(120,256,cs),
(120,386,o),
(176,428,o),
(259,428,cs),
(334,428,o),
(373,389,o),
(386,316,c),
(99,316,l),
(99,236,l),
(485,236,l),
(489,259,o),
(489,280,o),
(488,295,cs),
(480,420,o),
(385,508,o),
(259,508,cs),
(117,508,o),
(20,417,o),
(20,256,cs),
(20,110,o),
(113,-8,o),
(256,-8,cs),
(372,-8,o),
(465,66,o),
(485,170,c)
);
}
);
width = 509;
}
);
metricLeft = "=o";
metricRight = "=o";
unicode = 101;
},
{
glyphname = f;
kernLeft = f;
kernRight = f;
layers = (
{
layerId = m01;
shapes = (
{
closed = 1;
nodes = (
(372,782,o),
(334,793,o),
(295,793,cs),
(178,793,o),
(121,742,o),
(121,626,cs),
(121,-1,l),
(221,-1,l),
(221,621,l),
(221,695,o),
(260,713,o),
(295,713,cs),
(325,713,o),
(363,700,o),
(394,675,c),
(394,755,l)
);
},
{
closed = 1;
nodes = (
(387,416,l),
(387,496,l),
(37,496,l),
(37,416,l)
);
}
);
userData = {
com.hugojourdan.ColorFlow = {
"0" = 0;
"1" = 0;
"10" = 0;
"11" = 0;
"2" = 0;
"3" = 0;
"4" = 0;
"5" = 0;
"6" = 0;
"7" = 0;
"8" = 0;
"9" = 0;
};
};
width = 431;
},
{
layerId = m002;
shapes = (
{
closed = 1;
nodes = (
(352,782,o),
(314,793,o),
(275,793,cs),
(158,793,o),
(101,742,o),
(101,626,cs),
(101,-1,l),
(201,-1,l),
(201,621,l),
(201,695,o),
(240,713,o),
(275,713,cs),
(305,713,o),
(343,700,o),
(374,675,c),
(374,755,l)
);
},
{
closed = 1;
nodes = (
(367,416,l),
(367,496,l),
(17,496,l),
(17,416,l)
);
}
);
userData = {
com.hugojourdan.ColorFlow = {
"0" = 0;
"1" = 0;
"10" = 0;
"11" = 0;
"2" = 0;
"3" = 0;
"4" = 0;
"5" = 0;
"6" = 0;
"7" = 0;
"8" = 0;
"9" = 0;
};
};
width = 391;
},
{
layerId = m003;
shapes = (
{
closed = 1;
nodes = (
(365,782,o),
(327,793,o),
(288,793,cs),
(171,793,o),
(114,742,o),
(114,626,cs),
(114,-1,l),
(214,-1,l),
(214,621,l),
(214,695,o),
(253,713,o),
(288,713,cs),
(318,713,o),
(356,700,o),
(387,675,c),
(387,755,l)
);
},
{
closed = 1;
nodes = (
(380,416,l),
(380,496,l),
(30,496,l),
(30,416,l)
);
}
);
userData = {
com.hugojourdan.ColorFlow = {
"0" = 0;
"1" = 0;
"10" = 0;
"11" = 0;
"2" = 0;
"3" = 0;
"4" = 0;
"5" = 0;
"6" = 0;
"7" = 0;
"8" = 0;
"9" = 0;
};
};
width = 417;
}
);
metricLeft = "=v";
metricRight = "=v";
unicode = 102;
},
{
glyphname = g;
kernLeft = g;
kernRight = g;
layers = (
{
layerId = m01;
shapes = (
{
closed = 1;
nodes = (
(377,500,l),
(377,0,l),
(477,0,l),
(477,500,l)
);
},
{
closed = 1;
nodes = (
(363,-8,o),
(395,88,o),
(395,250,cs),
(395,411,o),
(353,508,o),
(223,508,cs),
(83,508,o),
(15,398,o),
(15,248,cs),
(15,90,o),
(83,-8,o),
(223,-8,cs)
);
},
{
closed = 1;
nodes = (
(153,72,o),
(115,138,o),
(115,248,cs),
(115,358,o),
(153,428,o),
(243,428,cs),
(338,428,o),
(377,353,o),
(377,250,cs),
(377,146,o),
(338,72,o),
(243,72,cs)
);
},
{
closed = 1;
nodes = (
(377,0,l),
(377,-82,o),
(326,-128,o),
(241,-128,cs),
(171,-128,o),
(134,-97,o),
(124,-54,c),
(32,-66,l),
(52,-170,o),
(132,-208,o),
(241,-208,cs),
(391,-208,o),
(477,-136,o),
(477,0,c)
);
}
);
userData = {
com.hugojourdan.ColorFlow = {
"0" = 0;
"1" = 0;
"10" = 0;
"11" = 0;
"2" = 0;
"3" = 0;
"4" = 0;
"5" = 0;
"6" = 0;
"7" = 0;
"8" = 0;
"9" = 0;
};
};
width = 557;
},
{
layerId = m002;
shapes = (
{
closed = 1;
nodes = (
(395,500,l),
(395,0,l),
(495,0,l),
(495,500,l)
);
},
{
closed = 1;
nodes = (
(381,-8,o),
(413,88,o),
(413,250,cs),
(413,411,o),
(371,508,o),
(241,508,cs),
(101,508,o),
(33,398,o),
(33,248,cs),
(33,90,o),
(101,-8,o),
(241,-8,cs)
);
},
{
closed = 1;
nodes = (
(171,72,o),
(133,138,o),
(133,248,cs),
(133,358,o),
(171,428,o),
(261,428,cs),
(356,428,o),
(395,353,o),
(395,250,cs),
(395,146,o),
(356,72,o),
(261,72,cs)
);
},
{
closed = 1;
nodes = (
(395,0,l),
(395,-82,o),
(344,-128,o),
(259,-128,cs),
(189,-128,o),
(152,-97,o),
(142,-54,c),
(50,-66,l),
(70,-170,o),
(150,-208,o),
(259,-208,cs),
(409,-208,o),
(495,-136,o),
(495,0,c)
);
}
);
userData = {
com.hugojourdan.ColorFlow = {
"0" = 0;
"1" = 0;
"10" = 0;
"11" = 0;
"2" = 0;
"3" = 0;
"4" = 0;
"5" = 0;
"6" = 0;
"7" = 0;
"8" = 0;
"9" = 0;
};
};
width = 555;
},
{
layerId = m003;
shapes = (
{
closed = 1;
nodes = (
(382,500,l),
(382,0,l),
(482,0,l),
(482,500,l)
);
},
{
closed = 1;
nodes = (
(368,-8,o),
(400,88,o),
(400,250,cs),
(400,411,o),
(358,508,o),
(228,508,cs),
(88,508,o),
(20,398,o),
(20,248,cs),
(20,90,o),
(88,-8,o),
(228,-8,cs)
);
},
{
closed = 1;
nodes = (
(158,72,o),
(120,138,o),
(120,248,cs),
(120,358,o),
(158,428,o),
(248,428,cs),
(343,428,o),
(382,353,o),
(382,250,cs),
(382,146,o),
(343,72,o),
(248,72,cs)
);
},
{
closed = 1;
nodes = (
(382,0,l),
(382,-82,o),
(331,-128,o),
(246,-128,cs),
(176,-128,o),
(139,-97,o),
(129,-54,c),
(37,-66,l),
(57,-170,o),
(137,-208,o),
(246,-208,cs),
(396,-208,o),
(482,-136,o),
(482,0,c)
);
}
);
userData = {
com.hugojourdan.ColorFlow = {
"0" = 0;
"1" = 0;
"10" = 0;
"11" = 0;
"2" = 0;
"3" = 0;
"4" = 0;
"5" = 0;
"6" = 0;
"7" = 0;
"8" = 0;
"9" = 0;
};
};
width = 522;
}
);
metricLeft = "=o";
metricRight = "=n";
unicode = 103;
},
{
glyphname = h;
kernLeft = l;
kernRight = n;
layers = (
{
layerId = m01;
shapes = (
{
closed = 1;
nodes = (
(80,0,l),
(180,0,l),
(180,399,l),
(180,800,l),
(80,800,l)
);
},
{
closed = 1;
nodes = (
(404,0,l),
(504,0,l),
(504,313,ls),
(504,409,o),
(474,508,o),
(334,508,cs),
(196,508,o),
(162,411,o),
(162,250,c),
(180,250,l),
(180,374,o),
(230,428,o),
(300,428,cs),
(373,428,o),
(404,369,o),
(404,313,c)
);
}
);
userData = {
com.hugojourdan.ColorFlow = {
"0" = 0;
"1" = 0;
"10" = 0;
"11" = 0;
"2" = 0;
"3" = 0;
"4" = 0;
"5" = 0;
"6" = 0;
"7" = 0;
"8" = 0;
"9" = 0;
};
};
width = 584;
},
{
associatedMasterId = m01;
layerId = "0275EC6F-A43E-4437-BC1D-02FA63395B1E";
name = "19. Jul 23, 15:18";
shapes = (
{
closed = 1;
nodes = (
(30,0,l),
(130,0,l),
(130,800,l),
(30,800,l)
);
},
{
closed = 1;
nodes = (
(354,0,l),
(454,0,l),
(454,338,ls),
(454,434,o),
(371,505,o),
(280,505,cs),
(193,505,o),
(120,412,o),
(120,294,c),
(130,301,l),
(130,354,o),
(186,425,o),
(241,425,cs),
(304,425,o),
(354,385,o),
(354,333,c)
);
}
);
userData = {
com.hugojourdan.ColorFlow = {
"0" = 0;
"1" = 0;
"10" = 0;
"11" = 0;
"2" = 0;
"3" = 0;
"4" = 0;
"5" = 0;
"6" = 0;
"7" = 0;
"8" = 0;
"9" = 0;
};
};
width = 480;
},
{
layerId = m002;
shapes = (
{
closed = 1;
nodes = (
(60,0,l),
(160,0,l),
(160,399,l),
(160,800,l),
(60,800,l)
);
},
{
closed = 1;
nodes = (
(384,0,l),
(484,0,l),
(484,313,ls),
(484,409,o),
(454,508,o),
(314,508,cs),
(176,508,o),
(142,411,o),
(142,250,c),
(160,250,l),
(160,374,o),
(210,428,o),
(280,428,cs),
(353,428,o),
(384,369,o),
(384,313,c)
);
}
);
userData = {
com.hugojourdan.ColorFlow = {
"0" = 0;
"1" = 0;
"10" = 0;
"11" = 0;
"2" = 0;
"3" = 0;
"4" = 0;
"5" = 0;
"6" = 0;
"7" = 0;
"8" = 0;
"9" = 0;
};
};
width = 544;
},
{
associatedMasterId = m002;
layerId = "C66A1F63-0BB1-4CFD-B1EE-F7EFCA5273B2";
name = "19. Jul 23, 15:18";
shapes = (
{
closed = 1;
nodes = (
(30,0,l),
(130,0,l),
(130,800,l),
(30,800,l)
);
},
{
closed = 1;
nodes = (
(354,0,l),
(454,0,l),
(454,338,ls),
(454,434,o),
(371,505,o),
(280,505,cs),
(193,505,o),
(120,412,o),
(120,294,c),
(130,301,l),
(130,354,o),
(186,425,o),
(241,425,cs),
(304,425,o),
(354,385,o),
(354,333,c)
);
}
);
userData = {
com.hugojourdan.ColorFlow = {
"0" = 0;
"1" = 0;
"10" = 0;
"11" = 0;
"2" = 0;
"3" = 0;
"4" = 0;
"5" = 0;
"6" = 0;
"7" = 0;
"8" = 0;
"9" = 0;
};
};
width = 480;
},
{
layerId = m003;
shapes = (
{
closed = 1;
nodes = (
(40,0,l),
(140,0,l),
(140,399,l),
(140,800,l),
(40,800,l)
);
},
{
closed = 1;
nodes = (
(364,0,l),
(464,0,l),
(464,313,ls),
(464,409,o),
(434,508,o),
(294,508,cs),
(156,508,o),
(122,411,o),
(122,250,c),
(140,250,l),
(140,374,o),
(190,428,o),
(260,428,cs),
(333,428,o),
(364,369,o),
(364,313,c)
);
}
);
userData = {
com.hugojourdan.ColorFlow = {
"0" = 0;
"1" = 0;
"10" = 0;
"11" = 0;
"2" = 0;
"3" = 0;
"4" = 0;
"5" = 0;
"6" = 0;
"7" = 0;
"8" = 0;
"9" = 0;
};
};
width = 504;
},
{
associatedMasterId = m003;
layerId = "A3C119AF-78ED-4805-8811-1C871F1713F7";
name = "19. Jul 23, 15:18";
shapes = (
{
closed = 1;
nodes = (
(30,0,l),
(130,0,l),
(130,800,l),
(30,800,l)
);
},
{
closed = 1;
nodes = (
(354,0,l),
(454,0,l),
(454,338,ls),
(454,434,o),
(371,505,o),
(280,505,cs),
(193,505,o),
(120,412,o),
(120,294,c),
(130,301,l),
(130,354,o),
(186,425,o),
(241,425,cs),
(304,425,o),
(354,385,o),
(354,333,c)
);
}
);
userData = {
com.hugojourdan.ColorFlow = {
"0" = 0;
"1" = 0;
"10" = 0;
"11" = 0;
"2" = 0;
"3" = 0;
"4" = 0;
"5" = 0;
"6" = 0;
"7" = 0;
"8" = 0;
"9" = 0;
};
};
width = 480;
}
);
metricLeft = "=n";
metricRight = "=n";
unicode = 104;
},
{
glyphname = i;
kernLeft = n;
kernRight = n;
layers = (
{
layerId = m01;
shapes = (
{
closed = 1;
nodes = (
(89,0,l),
(189,0,l),
(189,500,l),
(89,500,l)
);
},
{
closed = 1;
nodes = (
(178,552,o),
(200,578,o),
(200,615,cs),
(200,652,o),
(178,677,o),
(141,677,cs),
(104,677,o),
(80,652,o),
(80,615,cs),
(80,578,o),
(104,552,o),
(141,552,cs)
);
}
);
userData = {
com.hugojourdan.ColorFlow = {
"0" = 0;
"1" = 0;
"10" = 0;
"11" = 0;
"2" = 0;
"3" = 0;
"4" = 0;
"5" = 0;
"6" = 0;
"7" = 0;
"8" = 0;
"9" = 0;
};
};
width = 280;
},
{
layerId = m002;
shapes = (
{
closed = 1;
nodes = (
(69,0,l),
(169,0,l),
(169,500,l),
(69,500,l)
);
},
{
closed = 1;
nodes = (
(158,552,o),
(180,578,o),
(180,615,cs),
(180,652,o),
(158,677,o),
(121,677,cs),
(84,677,o),
(60,652,o),
(60,615,cs),
(60,578,o),
(84,552,o),
(121,552,cs)
);
}
);
userData = {
com.hugojourdan.ColorFlow = {
"0" = 0;
"1" = 0;
"10" = 0;
"11" = 0;
"2" = 0;
"3" = 0;
"4" = 0;
"5" = 0;
"6" = 0;
"7" = 0;
"8" = 0;
"9" = 0;
};
};
width = 240;
},
{
layerId = m003;
shapes = (
{
closed = 1;
nodes = (
(49,0,l),
(149,0,l),
(149,500,l),
(49,500,l)
);
},
{
closed = 1;
nodes = (
(138,552,o),
(160,578,o),
(160,615,cs),
(160,652,o),
(138,677,o),
(101,677,cs),
(64,677,o),
(40,652,o),
(40,615,cs),
(40,578,o),
(64,552,o),
(101,552,cs)
);
}
);
userData = {
com.hugojourdan.ColorFlow = {
"0" = 0;
"1" = 0;
"10" = 0;
"11" = 0;
"2" = 0;
"3" = 0;
"4" = 0;
"5" = 0;
"6" = 0;
"7" = 0;
"8" = 0;
"9" = 0;
};
};
width = 200;
}
);
metricLeft = "=l";
metricRight = "=l";
unicode = 105;
},
{
glyphname = j;
kernLeft = j;
kernRight = l;
layers = (
{
layerId = m01;
shapes = (
{
closed = 1;
nodes = (
(131,0,ls),
(131,-66,o),
(135,-123,o),
(74,-123,cs),
(60,-123,o),
(35,-120,o),
(10,-103,c),
(10,-183,l),
(30,-200,o),
(74,-208,o),
(106,-208,cs),
(227,-208,o),
(231,-95,o),
(231,0,cs),
(231,500,l),
(131,500,l)
);
},
{
closed = 1;
nodes = (
(217,552,o),
(241,577,o),
(241,615,cs),
(241,652,o),
(219,677,o),
(183,677,cs),
(147,677,o),
(122,653,o),
(122,615,cs),
(122,577,o),
(145,552,o),
(183,552,cs)
);
}
);
userData = {
com.hugojourdan.ColorFlow = {
"0" = 0;
"1" = 0;
"10" = 0;
"11" = 0;
"2" = 0;
"3" = 0;
"4" = 0;
"5" = 0;
"6" = 0;
"7" = 0;
"8" = 0;
"9" = 0;
};
};
width = 321;
},
{
layerId = m002;
shapes = (
{
closed = 1;
nodes = (
(111,0,ls),
(111,-66,o),
(115,-123,o),
(54,-123,cs),
(40,-123,o),
(15,-120,o),
(-10,-103,c),
(-10,-183,l),
(10,-200,o),
(54,-208,o),
(86,-208,cs),
(207,-208,o),
(211,-95,o),
(211,0,cs),
(211,500,l),
(111,500,l)
);
},
{
closed = 1;
nodes = (
(197,552,o),
(221,577,o),
(221,615,cs),
(221,652,o),
(199,677,o),
(163,677,cs),
(127,677,o),
(102,653,o),
(102,615,cs),
(102,577,o),
(125,552,o),
(163,552,cs)
);
}
);
userData = {
com.hugojourdan.ColorFlow = {
"0" = 0;
"1" = 0;
"10" = 0;
"11" = 0;
"2" = 0;
"3" = 0;
"4" = 0;
"5" = 0;
"6" = 0;
"7" = 0;
"8" = 0;
"9" = 0;
};
};
width = 281;
},
{
layerId = m003;
shapes = (
{
closed = 1;
nodes = (
(91,0,ls),
(91,-66,o),
(95,-123,o),
(34,-123,cs),
(20,-123,o),
(-5,-120,o),
(-30,-103,c),
(-30,-183,l),
(-10,-200,o),
(34,-208,o),
(66,-208,cs),
(187,-208,o),
(191,-95,o),
(191,0,cs),
(191,500,l),
(91,500,l)
);
},
{
closed = 1;
nodes = (
(177,552,o),
(201,577,o),
(201,615,cs),
(201,652,o),
(179,677,o),
(143,677,cs),
(107,677,o),
(82,653,o),
(82,615,cs),
(82,577,o),
(105,552,o),
(143,552,cs)
);
}
);
userData = {
com.hugojourdan.ColorFlow = {
"0" = 0;
"1" = 0;
"10" = 0;
"11" = 0;
"2" = 0;
"3" = 0;
"4" = 0;
"5" = 0;
"6" = 0;
"7" = 0;
"8" = 0;
"9" = 0;
};
};
width = 241;
}
);
metricLeft = "=i-70";
metricRight = "=i";
unicode = 106;
},
{
glyphname = k;
kernLeft = l;
kernRight = k;
layers = (
{
layerId = m01;
shapes = (
{
closed = 1;
nodes = (
(356,0,l),
(459,0,l),
(270,270,l),
(460,499,l),
(354,499,l),
(163,270,l)
);
},
{
closed = 1;
nodes = (
(80,0,l),
(180,0,l),
(180,800,l),
(80,800,l)
);
}
);
userData = {
com.hugojourdan.ColorFlow = {
"0" = 0;
"1" = 0;
"10" = 0;
"11" = 0;
"2" = 0;
"3" = 0;
"4" = 0;
"5" = 0;
"6" = 0;
"7" = 0;
"8" = 0;
"9" = 0;
};
};
width = 497;
},
{
layerId = m002;
shapes = (
{
closed = 1;
nodes = (
(336,0,l),
(439,0,l),
(250,270,l),
(440,499,l),
(334,499,l),
(143,270,l)
);
},
{
closed = 1;
nodes = (
(60,0,l),
(160,0,l),
(160,800,l),
(60,800,l)
);
}
);
userData = {
com.hugojourdan.ColorFlow = {
"0" = 0;
"1" = 0;
"10" = 0;
"11" = 0;
"2" = 0;
"3" = 0;
"4" = 0;
"5" = 0;
"6" = 0;
"7" = 0;
"8" = 0;
"9" = 0;
};
};
width = 457;
},
{
layerId = m003;
shapes = (
{
closed = 1;
nodes = (
(316,0,l),
(419,0,l),
(230,270,l),
(420,499,l),
(314,499,l),
(123,270,l)
);
},
{
closed = 1;
nodes = (
(40,0,l),
(140,0,l),
(140,800,l),
(40,800,l)
);
}
);
userData = {
com.hugojourdan.ColorFlow = {
"0" = 0;
"1" = 0;
"10" = 0;
"11" = 0;
"2" = 0;
"3" = 0;
"4" = 0;
"5" = 0;
"6" = 0;
"7" = 0;
"8" = 0;
"9" = 0;
};
};
width = 450;
}
);
metricLeft = "=l";
metricRight = "=x";
unicode = 107;
},
{
glyphname = l;
kernLeft = l;
kernRight = l;
layers = (
{
layerId = m01;
shapes = (
{
closed = 1;
nodes = (
(80,0,l),
(180,0,l),
(180,800,l),
(80,800,l)
);
}
);
userData = {
com.hugojourdan.ColorFlow = {
"0" = 0;
"1" = 0;
"10" = 0;
"11" = 0;
"2" = 0;
"3" = 0;
"4" = 0;
"5" = 0;
"6" = 0;
"7" = 0;
"8" = 0;
"9" = 0;
};
};
width = 260;
},
{
layerId = m002;
shapes = (
{
closed = 1;
nodes = (
(60,0,l),
(160,0,l),
(160,800,l),
(60,800,l)
);
}
);
userData = {
com.hugojourdan.ColorFlow = {
"0" = 0;
"1" = 0;
"10" = 0;
"11" = 0;
"2" = 0;
"3" = 0;
"4" = 0;
"5" = 0;
"6" = 0;
"7" = 0;
"8" = 0;
"9" = 0;
};
};
width = 220;
},
{
layerId = m003;
shapes = (
{
closed = 1;
nodes = (
(40,0,l),
(140,0,l),
(140,800,l),
(40,800,l)
);
}
);
userData = {
com.hugojourdan.ColorFlow = {
"0" = 0;
"1" = 0;
"10" = 0;
"11" = 0;
"2" = 0;
"3" = 0;
"4" = 0;
"5" = 0;
"6" = 0;
"7" = 0;
"8" = 0;
"9" = 0;
};
};
width = 180;
}
);
unicode = 108;
},
{
glyphname = m;
kernLeft = n;
kernRight = n;
layers = (
{
layerId = m01;
shapes = (
{
closed = 1;
nodes = (
(80,0,l),
(180,0,l),
(180,399,l),
(180,500,l),
(80,500,l)
);
},
{
closed = 1;
nodes = (
(347,0,l),
(447,0,l),
(447,336,ls),
(447,432,o),
(403,508,o),
(307,508,cs),
(212,508,o),
(162,433,o),
(162,280,c),
(180,280,l),
(180,349,o),
(190,428,o),
(270,428,cs),
(327,428,o),
(347,388,o),
(347,336,c)
);
},
{
closed = 1;
nodes = (
(610,0,l),
(710,0,l),
(710,336,ls),
(710,432,o),
(672,508,o),
(576,508,cs),
(481,508,o),
(429,433,o),
(429,280,c),
(447,280,l),
(447,349,o),
(453,428,o),
(533,428,cs),
(590,428,o),
(610,388,o),
(610,336,c)
);
}
);
userData = {
com.hugojourdan.ColorFlow = {
"0" = 0;
"1" = 0;
"10" = 0;
"11" = 0;
"2" = 0;
"3" = 0;
"4" = 0;
"5" = 0;
"6" = 0;
"7" = 0;
"8" = 0;
"9" = 0;
};
};
width = 790;
},
{
layerId = m002;
shapes = (
{
closed = 1;
nodes = (
(60,0,l),
(160,0,l),
(160,399,l),
(160,500,l),
(60,500,l)
);
},
{
closed = 1;
nodes = (
(327,0,l),
(427,0,l),
(427,336,ls),
(427,432,o),
(383,508,o),
(287,508,cs),
(192,508,o),
(142,433,o),
(142,280,c),
(160,280,l),
(160,349,o),
(170,428,o),
(250,428,cs),
(307,428,o),
(327,388,o),
(327,336,c)
);
},
{
closed = 1;
nodes = (
(590,0,l),
(690,0,l),
(690,336,ls),
(690,432,o),
(652,508,o),
(556,508,cs),
(461,508,o),
(409,433,o),
(409,280,c),
(427,280,l),
(427,349,o),
(433,428,o),
(513,428,cs),
(570,428,o),
(590,388,o),
(590,336,c)
);
}
);
userData = {
com.hugojourdan.ColorFlow = {
"0" = 0;
"1" = 0;
"10" = 0;
"11" = 0;
"2" = 0;
"3" = 0;
"4" = 0;
"5" = 0;
"6" = 0;
"7" = 0;
"8" = 0;
"9" = 0;
};
};
width = 750;
},
{
layerId = m003;
shapes = (
{
closed = 1;
nodes = (
(40,0,l),
(140,0,l),
(140,399,l),
(140,500,l),
(40,500,l)
);
},
{
closed = 1;
nodes = (
(307,0,l),
(407,0,l),
(407,336,ls),
(407,432,o),
(363,508,o),
(267,508,cs),
(172,508,o),
(122,433,o),
(122,280,c),
(140,280,l),
(140,349,o),
(150,428,o),
(230,428,cs),
(287,428,o),
(307,388,o),
(307,336,c)
);
},
{
closed = 1;
nodes = (
(570,0,l),
(670,0,l),
(670,336,ls),
(670,432,o),
(632,508,o),
(536,508,cs),
(441,508,o),
(389,433,o),
(389,280,c),
(407,280,l),
(407,349,o),
(413,428,o),
(493,428,cs),
(550,428,o),
(570,388,o),
(570,336,c)
);
}
);
userData = {
com.hugojourdan.ColorFlow = {
"0" = 0;
"1" = 0;
"10" = 0;
"11" = 0;
"2" = 0;
"3" = 0;
"4" = 0;
"5" = 0;
"6" = 0;
"7" = 0;
"8" = 0;
"9" = 0;
};
};
width = 710;
}
);
metricLeft = "=n";
metricRight = "=n";
unicode = 109;
},
{
glyphname = n;
kernLeft = n;
kernRight = n;
layers = (
{
layerId = m01;
shapes = (
{
closed = 1;
nodes = (
(80,0,l),
(180,0,l),
(180,399,l),
(180,500,l),
(80,500,l)
);
},
{
closed = 1;
nodes = (
(404,0,l),
(504,0,l),
(504,313,ls),
(504,409,o),
(474,508,o),
(334,508,cs),
(196,508,o),
(162,411,o),
(162,250,c),
(180,250,l),
(180,374,o),
(230,428,o),
(300,428,cs),
(373,428,o),
(404,369,o),
(404,313,c)
);
}
);
userData = {
com.hugojourdan.ColorFlow = {
"0" = 0;
"1" = 0;
"10" = 0;
"11" = 0;
"2" = 0;
"3" = 0;
"4" = 0;
"5" = 0;
"6" = 0;
"7" = 0;
"8" = 0;
"9" = 0;
};
};
width = 584;
},
{
layerId = m002;
shapes = (
{
closed = 1;
nodes = (
(60,0,l),
(160,0,l),
(160,399,l),
(160,500,l),
(60,500,l)
);
},
{
closed = 1;
nodes = (
(384,0,l),
(484,0,l),
(484,313,ls),
(484,409,o),
(454,508,o),
(314,508,cs),
(176,508,o),
(142,411,o),
(142,250,c),
(160,250,l),
(160,374,o),
(210,428,o),
(280,428,cs),
(353,428,o),
(384,369,o),
(384,313,c)
);
}
);
userData = {
com.hugojourdan.ColorFlow = {
"0" = 0;
"1" = 0;
"10" = 0;
"11" = 0;
"2" = 0;
"3" = 0;
"4" = 0;
"5" = 0;
"6" = 0;
"7" = 0;
"8" = 0;
"9" = 0;
};
};
width = 544;
},
{
layerId = m003;
shapes = (
{
closed = 1;
nodes = (
(40,0,l),
(140,0,l),
(140,399,l),
(140,500,l),
(40,500,l)
);
},
{
closed = 1;
nodes = (
(364,0,l),
(464,0,l),
(464,313,ls),
(464,409,o),
(434,508,o),
(294,508,cs),
(156,508,o),
(122,411,o),
(122,250,c),
(140,250,l),
(140,374,o),
(190,428,o),
(260,428,cs),
(333,428,o),
(364,369,o),
(364,313,c)
);
}
);
userData = {
com.hugojourdan.ColorFlow = {
"0" = 0;
"1" = 0;
"10" = 0;
"11" = 0;
"2" = 0;
"3" = 0;
"4" = 0;
"5" = 0;
"6" = 0;
"7" = 0;
"8" = 0;
"9" = 0;
};
};
width = 504;
}
);
metricLeft = "=l";
metricRight = "=l";
unicode = 110;
},
{
glyphname = o;
kernLeft = o;
kernRight = o;
layers = (
{
layerId = m01;
shapes = (
{
closed = 1;
nodes = (
(393,-8,o),
(490,94,o),
(490,249,cs),
(490,404,o),
(393,508,o),
(253,508,cs),
(113,508,o),
(15,404,o),
(15,249,cs),
(15,94,o),
(113,-8,o),
(253,-8,cs)
);
},
{
closed = 1;
nodes = (
(163,72,o),
(115,139,o),
(115,249,cs),
(115,359,o),
(163,428,o),
(253,428,cs),
(343,428,o),
(390,359,o),
(390,249,cs),
(390,139,o),
(343,72,o),
(253,72,cs)
);
}
);
userData = {
com.hugojourdan.ColorFlow = {
"0" = 0;
"1" = 0;
"10" = 0;
"11" = 0;
"2" = 0;
"3" = 0;
"4" = 0;
"5" = 0;
"6" = 0;
"7" = 0;
"8" = 0;
"9" = 0;
};
};
width = 505;
},
{
layerId = m002;
shapes = (
{
closed = 1;
nodes = (
(411,-8,o),
(508,94,o),
(508,249,cs),
(508,404,o),
(411,508,o),
(271,508,cs),
(131,508,o),
(33,404,o),
(33,249,cs),
(33,94,o),
(131,-8,o),
(271,-8,cs)
);
},
{
closed = 1;
nodes = (
(181,72,o),
(133,139,o),
(133,249,cs),
(133,359,o),
(181,428,o),
(271,428,cs),
(361,428,o),
(408,359,o),
(408,249,cs),
(408,139,o),
(361,72,o),
(271,72,cs)
);
}
);
userData = {
com.hugojourdan.ColorFlow = {
"0" = 0;
"1" = 0;
"10" = 0;
"11" = 0;
"2" = 0;
"3" = 0;
"4" = 0;
"5" = 0;
"6" = 0;
"7" = 0;
"8" = 0;
"9" = 0;
};
};
width = 541;
},
{
layerId = m003;
shapes = (
{
closed = 1;
nodes = (
(398,-8,o),
(495,94,o),
(495,249,cs),
(495,404,o),
(398,508,o),
(258,508,cs),
(118,508,o),
(20,404,o),
(20,249,cs),
(20,94,o),
(118,-8,o),
(258,-8,cs)
);
},
{
closed = 1;
nodes = (
(168,72,o),
(120,139,o),
(120,249,cs),
(120,359,o),
(168,428,o),
(258,428,cs),
(348,428,o),
(395,359,o),
(395,249,cs),
(395,139,o),
(348,72,o),
(258,72,cs)
);
}
);
userData = {
com.hugojourdan.ColorFlow = {
"0" = 0;
"1" = 0;
"10" = 0;
"11" = 0;
"2" = 0;
"3" = 0;
"4" = 0;
"5" = 0;
"6" = 0;
"7" = 0;
"8" = 0;
"9" = 0;
};
};
width = 515;
}
);
unicode = 111;
},
{
glyphname = p;
kernLeft = n;
kernRight = o;
layers = (
{
layerId = m01;
shapes = (
{
closed = 1;
nodes = (
(80,-200,l),
(180,-200,l),
(180,95,l),
(201,32,o),
(245,-8,o),
(334,-8,cs),
(474,-8,o),
(542,92,o),
(542,250,cs),
(542,400,o),
(474,508,o),
(334,508,cs),
(249,508,o),
(203,469,o),
(180,399,c),
(180,500,l),
(80,500,l)
);
},
{
closed = 1;
nodes = (
(219,72,o),
(180,140,o),
(180,250,cs),
(180,360,o),
(219,428,o),
(314,428,cs),
(408,428,o),
(442,360,o),
(442,250,cs),
(442,140,o),
(408,72,o),
(314,72,cs)
);
}
);
userData = {
com.hugojourdan.ColorFlow = {
"0" = 0;
"1" = 0;
"10" = 0;
"11" = 0;
"2" = 0;
"3" = 0;
"4" = 0;
"5" = 0;
"6" = 0;
"7" = 0;
"8" = 0;
"9" = 0;
};
};
width = 557;
},
{
associatedMasterId = m01;
layerId = "3D2BB551-E5C0-4B06-9C25-36BD45297131";
name = "19. Jul 23, 14:20";
shapes = (
{
closed = 1;
nodes = (
(30,-200,l),
(130,-200,l),
(130,500,l),
(30,500,l)
);
},
{
closed = 1;
nodes = (
(424,-8,o),
(492,92,o),
(492,250,cs),
(492,400,o),
(424,508,o),
(284,508,cs),
(150,508,o),
(112,411,o),
(112,250,cs),
(112,104,o),
(135,-8,o),
(284,-8,cs)
);
},
{
closed = 1;
nodes = (
(169,72,o),
(130,140,o),
(130,250,cs),
(130,360,o),
(169,428,o),
(264,428,cs),
(358,428,o),
(392,360,o),
(392,250,cs),
(392,140,o),
(358,72,o),
(264,72,cs)
);
}
);
userData = {
com.hugojourdan.ColorFlow = {
"0" = 0;
"1" = 0;
"10" = 0;
"11" = 0;
"2" = 0;
"3" = 0;
"4" = 0;
"5" = 0;
"6" = 0;
"7" = 0;
"8" = 0;
"9" = 0;
};
};
width = 507;
},
{
layerId = m002;
shapes = (
{
closed = 1;
nodes = (
(60,-200,l),
(160,-200,l),
(160,95,l),
(181,32,o),
(225,-8,o),
(314,-8,cs),
(454,-8,o),
(522,92,o),
(522,250,cs),
(522,400,o),
(454,508,o),
(314,508,cs),
(229,508,o),
(183,469,o),
(160,399,c),
(160,500,l),
(60,500,l)
);
},
{
closed = 1;
nodes = (
(199,72,o),
(160,140,o),
(160,250,cs),
(160,360,o),
(199,428,o),
(294,428,cs),
(388,428,o),
(422,360,o),
(422,250,cs),
(422,140,o),
(388,72,o),
(294,72,cs)
);
}
);
userData = {
com.hugojourdan.ColorFlow = {
"0" = 0;
"1" = 0;
"10" = 0;
"11" = 0;
"2" = 0;
"3" = 0;
"4" = 0;
"5" = 0;
"6" = 0;
"7" = 0;
"8" = 0;
"9" = 0;
};
};
width = 555;
},
{
associatedMasterId = m002;
layerId = "7540C7CA-CA0A-4FEE-8707-3FE4A3ACF197";
name = "19. Jul 23, 14:20";
shapes = (
{
closed = 1;
nodes = (
(30,-200,l),
(130,-200,l),
(130,500,l),
(30,500,l)
);
},
{
closed = 1;
nodes = (
(424,-8,o),
(492,92,o),
(492,250,cs),
(492,400,o),
(424,508,o),
(284,508,cs),
(150,508,o),
(112,411,o),
(112,250,cs),
(112,104,o),
(135,-8,o),
(284,-8,cs)
);
},
{
closed = 1;
nodes = (
(169,72,o),
(130,140,o),
(130,250,cs),
(130,360,o),
(169,428,o),
(264,428,cs),
(358,428,o),
(392,360,o),
(392,250,cs),
(392,140,o),
(358,72,o),
(264,72,cs)
);
}
);
userData = {
com.hugojourdan.ColorFlow = {
"0" = 0;
"1" = 0;
"10" = 0;
"11" = 0;
"2" = 0;
"3" = 0;
"4" = 0;
"5" = 0;
"6" = 0;
"7" = 0;
"8" = 0;
"9" = 0;
};
};
width = 507;
},
{
layerId = m003;
shapes = (
{
closed = 1;
nodes = (
(40,-200,l),
(140,-200,l),
(140,95,l),
(161,32,o),
(205,-8,o),
(294,-8,cs),
(434,-8,o),
(502,92,o),
(502,250,cs),
(502,400,o),
(434,508,o),
(294,508,cs),
(209,508,o),
(163,469,o),
(140,399,c),
(140,500,l),
(40,500,l)
);
},
{
closed = 1;
nodes = (
(179,72,o),
(140,140,o),
(140,250,cs),
(140,360,o),
(179,428,o),
(274,428,cs),
(368,428,o),
(402,360,o),
(402,250,cs),
(402,140,o),
(368,72,o),
(274,72,cs)
);
}
);
userData = {
com.hugojourdan.ColorFlow = {
"0" = 0;
"1" = 0;
"10" = 0;
"11" = 0;
"2" = 0;
"3" = 0;
"4" = 0;
"5" = 0;
"6" = 0;
"7" = 0;
"8" = 0;
"9" = 0;
};
};
width = 522;
},
{
associatedMasterId = m003;
layerId = "47B92803-CCA7-4674-9EB6-2591A8535FEB";
name = "19. Jul 23, 14:20";
shapes = (
{
closed = 1;
nodes = (
(30,-200,l),
(130,-200,l),
(130,500,l),
(30,500,l)
);
},
{
closed = 1;
nodes = (
(424,-8,o),
(492,92,o),
(492,250,cs),
(492,400,o),
(424,508,o),
(284,508,cs),
(150,508,o),
(112,411,o),
(112,250,cs),
(112,104,o),
(135,-8,o),
(284,-8,cs)
);
},
{
closed = 1;
nodes = (
(169,72,o),
(130,140,o),
(130,250,cs),
(130,360,o),
(169,428,o),
(264,428,cs),
(358,428,o),
(392,360,o),
(392,250,cs),
(392,140,o),
(358,72,o),
(264,72,cs)
);
}
);
userData = {
com.hugojourdan.ColorFlow = {
"0" = 0;
"1" = 0;
"10" = 0;
"11" = 0;
"2" = 0;
"3" = 0;
"4" = 0;
"5" = 0;
"6" = 0;
"7" = 0;
"8" = 0;
"9" = 0;
};
};
width = 507;
}
);
metricLeft = "=n";
metricRight = "=o";
unicode = 112;
},
{
glyphname = q;
kernLeft = o;
kernRight = n;
layers = (
{
layerId = m01;
shapes = (
{
closed = 1;
nodes = (
(377,500,l),
(377,-200,l),
(477,-200,l),
(477,500,l)
);
},
{
closed = 1;
nodes = (
(357,-8,o),
(395,104,o),
(395,250,cs),
(395,411,o),
(375,508,o),
(223,508,cs),
(93,508,o),
(15,398,o),
(15,248,cs),
(15,90,o),
(73,-8,o),
(223,-8,cs)
);
},
{
closed = 1;
nodes = (
(154,72,o),
(116,140,o),
(115,248,cs),
(116,361,o),
(169,428,o),
(256,428,cs),
(333,428,o),
(377,353,o),
(377,250,cs),
(377,146,o),
(322,72,o),
(244,72,cs)
);
}
);
userData = {
com.hugojourdan.ColorFlow = {
"0" = 0;
"1" = 0;
"10" = 0;
"11" = 0;
"2" = 0;
"3" = 0;
"4" = 0;
"5" = 0;
"6" = 0;
"7" = 0;
"8" = 0;
"9" = 0;
};
};
width = 557;
},
{
layerId = m002;
shapes = (
{
closed = 1;
nodes = (
(395,500,l),
(395,-200,l),
(495,-200,l),
(495,500,l)
);
},
{
closed = 1;
nodes = (
(375,-8,o),
(413,104,o),
(413,250,cs),
(413,411,o),
(393,508,o),
(241,508,cs),
(111,508,o),
(33,398,o),
(33,248,cs),
(33,90,o),
(91,-8,o),
(241,-8,cs)
);
},
{
closed = 1;
nodes = (
(172,72,o),
(134,140,o),
(133,248,cs),
(134,361,o),
(187,428,o),
(274,428,cs),
(351,428,o),
(395,353,o),
(395,250,cs),
(395,146,o),
(340,72,o),
(262,72,cs)
);
}
);
userData = {
com.hugojourdan.ColorFlow = {
"0" = 0;
"1" = 0;
"10" = 0;
"11" = 0;
"2" = 0;
"3" = 0;
"4" = 0;
"5" = 0;
"6" = 0;
"7" = 0;
"8" = 0;
"9" = 0;
};
};
width = 555;
},
{
layerId = m003;
shapes = (
{
closed = 1;
nodes = (
(382,500,l),
(382,-200,l),
(482,-200,l),
(482,500,l)
);
},
{
closed = 1;
nodes = (
(362,-8,o),
(400,104,o),
(400,250,cs),
(400,411,o),
(380,508,o),
(228,508,cs),
(98,508,o),
(20,398,o),
(20,248,cs),
(20,90,o),
(78,-8,o),
(228,-8,cs)
);
},
{
closed = 1;
nodes = (
(159,72,o),
(121,140,o),
(120,248,cs),
(121,361,o),
(174,428,o),
(261,428,cs),
(338,428,o),
(382,353,o),
(382,250,cs),
(382,146,o),
(327,72,o),
(249,72,cs)
);
}
);
userData = {
com.hugojourdan.ColorFlow = {
"0" = 0;
"1" = 0;
"10" = 0;
"11" = 0;
"2" = 0;
"3" = 0;
"4" = 0;
"5" = 0;
"6" = 0;
"7" = 0;
"8" = 0;
"9" = 0;
};
};
width = 522;
}
);
metricLeft = "=o";
metricRight = "=n";
unicode = 113;
},
{
glyphname = r;
kernLeft = n;
kernRight = r;
layers = (
{
layerId = m01;
shapes = (
{
closed = 1;
nodes = (
(80,0,l),
(180,0,l),
(180,399,l),
(180,500,l),
(80,500,l)
);
},
{
closed = 1;
nodes = (
(359,508,l),
(334,508,l),
(196,508,o),
(162,411,o),
(162,250,c),
(180,250,l),
(180,374,o),
(230,428,o),
(330,428,c),
(342,428,l)
);
}
);
userData = {
com.hugojourdan.ColorFlow = {
"0" = 0;
"1" = 0;
"10" = 0;
"11" = 0;
"2" = 0;
"3" = 0;
"4" = 0;
"5" = 0;
"6" = 0;
"7" = 0;
"8" = 0;
"9" = 0;
};
};
width = 359;
},
{
associatedMasterId = m01;
layerId = "1BFC2A20-F60C-4DA7-8854-ED9741222C6E";
name = "19. Jul 23, 15:32";
shapes = (
{
closed = 1;
nodes = (
(30,0,l),
(130,0,l),
(130,500,l),
(30,500,l)
);
},
{
closed = 1;
nodes = (
(300,505,l),
(193,505,o),
(120,412,o),
(120,294,c),
(130,301,l),
(130,354,o),
(225,405,o),
(300,405,c)
);
}
);
userData = {
com.hugojourdan.ColorFlow = {
"0" = 0;
"1" = 0;
"10" = 0;
"11" = 0;
"2" = 0;
"3" = 0;
"4" = 0;
"5" = 0;
"6" = 0;
"7" = 0;
"8" = 0;
"9" = 0;
};
};
width = 315;
},
{
layerId = m002;
shapes = (
{
closed = 1;
nodes = (
(60,0,l),
(160,0,l),
(160,399,l),
(160,500,l),
(60,500,l)
);
},
{
closed = 1;
nodes = (
(339,508,l),
(314,508,l),
(176,508,o),
(142,411,o),
(142,250,c),
(160,250,l),
(160,374,o),
(210,428,o),
(310,428,c),
(322,428,l)
);
}
);
userData = {
com.hugojourdan.ColorFlow = {
"0" = 0;
"1" = 0;
"10" = 0;
"11" = 0;
"2" = 0;
"3" = 0;
"4" = 0;
"5" = 0;
"6" = 0;
"7" = 0;
"8" = 0;
"9" = 0;
};
};
width = 339;
},
{
associatedMasterId = m002;
layerId = "081A0DE7-16F4-47D1-B0EA-45306758C6EB";
name = "19. Jul 23, 15:32";
shapes = (
{
closed = 1;
nodes = (
(30,0,l),
(130,0,l),
(130,500,l),
(30,500,l)
);
},
{
closed = 1;
nodes = (
(300,505,l),
(193,505,o),
(120,412,o),
(120,294,c),
(130,301,l),
(130,354,o),
(225,405,o),
(300,405,c)
);
}
);
userData = {
com.hugojourdan.ColorFlow = {
"0" = 0;
"1" = 0;
"10" = 0;
"11" = 0;
"2" = 0;
"3" = 0;
"4" = 0;
"5" = 0;
"6" = 0;
"7" = 0;
"8" = 0;
"9" = 0;
};
};
width = 315;
},
{
layerId = m003;
shapes = (
{
closed = 1;
nodes = (
(40,0,l),
(140,0,l),
(140,399,l),
(140,500,l),
(40,500,l)
);
},
{
closed = 1;
nodes = (
(319,508,l),
(294,508,l),
(156,508,o),
(122,411,o),
(122,250,c),
(140,250,l),
(140,374,o),
(190,428,o),
(290,428,c),
(302,428,l)
);
}
);
userData = {
com.hugojourdan.ColorFlow = {
"0" = 0;
"1" = 0;
"10" = 0;
"11" = 0;
"2" = 0;
"3" = 0;
"4" = 0;
"5" = 0;
"6" = 0;
"7" = 0;
"8" = 0;
"9" = 0;
};
};
width = 319;
},
{
associatedMasterId = m003;
layerId = "EF5C0CCD-8B14-4926-A358-666F414FC66C";
name = "19. Jul 23, 15:32";
shapes = (
{
closed = 1;
nodes = (
(30,0,l),
(130,0,l),
(130,500,l),
(30,500,l)
);
},
{
closed = 1;
nodes = (
(300,505,l),
(193,505,o),
(120,412,o),
(120,294,c),
(130,301,l),
(130,354,o),
(225,405,o),
(300,405,c)
);
}
);
userData = {
com.hugojourdan.ColorFlow = {
"0" = 0;
"1" = 0;
"10" = 0;
"11" = 0;
"2" = 0;
"3" = 0;
"4" = 0;
"5" = 0;
"6" = 0;
"7" = 0;
"8" = 0;
"9" = 0;
};
};
width = 315;
}
);
metricLeft = "=n";
metricRight = "=0";
unicode = 114;
},
{
glyphname = s;
kernLeft = s;
kernRight = s;
layers = (
{
layerId = m01;
shapes = (
{
closed = 1;
nodes = (
(15,172,o),
(324,243,o),
(324,138,c),
(324,102,o),
(288,72,o),
(211,72,cs),
(146,72,o),
(107,96,o),
(107,146,c),
(16,141,l),
(16,51,o),
(91,-8,o),
(211,-8,cs),
(336,-8,o),
(424,61,o),
(424,148,cs),
(424,323,o),
(115,272,o),
(115,367,c),
(115,403,o),
(159,428,o),
(211,428,cs),
(281,428,o),
(329,381,o),
(329,331,c),
(420,336,l),
(420,426,o),
(336,508,o),
(211,508,cs),
(86,508,o),
(15,443,o),
(15,357,c)
);
}
);
userData = {
com.hugojourdan.ColorFlow = {
"0" = 0;
"1" = 0;
"10" = 0;
"11" = 0;
"2" = 0;
"3" = 0;
"4" = 0;
"5" = 0;
"6" = 0;
"7" = 0;
"8" = 0;
"9" = 0;
};
};
width = 439;
},
{
layerId = m002;
shapes = (
{
closed = 1;
nodes = (
(33,172,o),
(342,243,o),
(342,138,c),
(342,102,o),
(306,72,o),
(229,72,cs),
(164,72,o),
(125,96,o),
(125,146,c),
(34,141,l),
(34,51,o),
(109,-8,o),
(229,-8,cs),
(354,-8,o),
(442,61,o),
(442,148,cs),
(442,323,o),
(133,272,o),
(133,367,c),
(133,403,o),
(177,428,o),
(229,428,cs),
(299,428,o),
(347,381,o),
(347,331,c),
(438,336,l),
(438,426,o),
(354,508,o),
(229,508,cs),
(104,508,o),
(33,443,o),
(33,357,c)
);
}
);
userData = {
com.hugojourdan.ColorFlow = {
"0" = 0;
"1" = 0;
"10" = 0;
"11" = 0;
"2" = 0;
"3" = 0;
"4" = 0;
"5" = 0;
"6" = 0;
"7" = 0;
"8" = 0;
"9" = 0;
};
};
width = 475;
},
{
layerId = m003;
shapes = (
{
closed = 1;
nodes = (
(20,172,o),
(329,243,o),
(329,138,c),
(329,102,o),
(293,72,o),
(216,72,cs),
(151,72,o),
(112,96,o),
(112,146,c),
(21,141,l),
(21,51,o),
(96,-8,o),
(216,-8,cs),
(341,-8,o),
(429,61,o),
(429,148,cs),
(429,323,o),
(120,272,o),
(120,367,c),
(120,403,o),
(164,428,o),
(216,428,cs),
(286,428,o),
(334,381,o),
(334,331,c),
(425,336,l),
(425,426,o),
(341,508,o),
(216,508,cs),
(91,508,o),
(20,443,o),
(20,357,c)
);
}
);
userData = {
com.hugojourdan.ColorFlow = {
"0" = 0;
"1" = 0;
"10" = 0;
"11" = 0;
"2" = 0;
"3" = 0;
"4" = 0;
"5" = 0;
"6" = 0;
"7" = 0;
"8" = 0;
"9" = 0;
};
};
width = 449;
}
);
metricLeft = "=o";
metricRight = "=o";
unicode = 115;
},
{
glyphname = t;
kernLeft = t;
kernRight = t;
layers = (
{
layerId = m01;
shapes = (
{
closed = 1;
nodes = (
(372,112,l),
(351,95,o),
(322,71,o),
(276,71,cs),
(222,71,o),
(193,104,o),
(193,163,c),
(193,605,l),
(93,605,l),
(93,158,ls),
(93,34,o),
(195,-9,o),
(267,-9,cs),
(317,-9,o),
(347,12,o),
(372,32,c)
);
},
{
closed = 1;
nodes = (
(15,416,l),
(357,416,l),
(357,496,l),
(15,496,l)
);
}
);
userData = {
com.hugojourdan.ColorFlow = {
"0" = 0;
"1" = 0;
"10" = 0;
"11" = 0;
"2" = 0;
"3" = 0;
"4" = 0;
"5" = 0;
"6" = 0;
"7" = 0;
"8" = 0;
"9" = 0;
};
};
width = 387;
},
{
layerId = m002;
shapes = (
{
closed = 1;
nodes = (
(390,112,l),
(369,95,o),
(340,71,o),
(294,71,cs),
(240,71,o),
(211,104,o),
(211,163,c),
(211,605,l),
(111,605,l),
(111,158,ls),
(111,34,o),
(213,-9,o),
(285,-9,cs),
(335,-9,o),
(365,12,o),
(390,32,c)
);
},
{
closed = 1;
nodes = (
(33,416,l),
(375,416,l),
(375,496,l),
(33,496,l)
);
}
);
userData = {
com.hugojourdan.ColorFlow = {
"0" = 0;
"1" = 0;
"10" = 0;
"11" = 0;
"2" = 0;
"3" = 0;
"4" = 0;
"5" = 0;
"6" = 0;
"7" = 0;
"8" = 0;
"9" = 0;
};
};
width = 423;
},
{
layerId = m003;
shapes = (
{
closed = 1;
nodes = (
(377,112,l),
(356,95,o),
(327,71,o),
(281,71,cs),
(227,71,o),
(198,104,o),
(198,163,c),
(198,605,l),
(98,605,l),
(98,158,ls),
(98,34,o),
(200,-9,o),
(272,-9,cs),
(322,-9,o),
(352,12,o),
(377,32,c)
);
},
{
closed = 1;
nodes = (
(20,416,l),
(362,416,l),
(362,496,l),
(20,496,l)
);
}
);
userData = {
com.hugojourdan.ColorFlow = {
"0" = 0;
"1" = 0;
"10" = 0;
"11" = 0;
"2" = 0;
"3" = 0;
"4" = 0;
"5" = 0;
"6" = 0;
"7" = 0;
"8" = 0;
"9" = 0;
};
};
width = 397;
}
);
metricLeft = "=o";
metricRight = "=o";
unicode = 116;
},
{
glyphname = u;
kernLeft = u;
kernRight = u;
layers = (
{
layerId = m01;
shapes = (
{
closed = 1;
nodes = (
(494,500,l),
(394,500,l),
(394,101,l),
(394,0,l),
(494,0,l)
);
},
{
closed = 1;
nodes = (
(180,500,l),
(80,500,l),
(80,187,ls),
(80,91,o),
(110,-8,o),
(250,-8,cs),
(388,-8,o),
(412,89,o),
(412,250,c),
(394,250,l),
(394,126,o),
(353,72,o),
(283,72,cs),
(210,72,o),
(180,131,o),
(180,187,c)
);
}
);
userData = {
com.hugojourdan.ColorFlow = {
"0" = 0;
"1" = 0;
"10" = 0;
"11" = 0;
"2" = 0;
"3" = 0;
"4" = 0;
"5" = 0;
"6" = 0;
"7" = 0;
"8" = 0;
"9" = 0;
};
};
width = 574;
},
{
associatedMasterId = m01;
layerId = "9C4E6138-4511-472E-95B6-4417943C5D51";
name = "19. Jul 23, 14:47 - old";
shapes = (
{
closed = 1;
nodes = (
(447,505,l),
(347,505,l),
(347,5,l),
(447,5,l)
);
},
{
closed = 1;
nodes = (
(130,505,l),
(30,505,l),
(30,167,ls),
(30,71,o),
(113,0,o),
(197,0,cs),
(284,0,o),
(358,93,o),
(358,211,c),
(347,204,l),
(347,151,o),
(291,80,o),
(236,80,cs),
(180,80,o),
(130,115,o),
(130,172,c)
);
}
);
userData = {
com.hugojourdan.ColorFlow = {
"0" = 0;
"1" = 0;
"10" = 0;
"11" = 0;
"2" = 0;
"3" = 0;
"4" = 0;
"5" = 0;
"6" = 0;
"7" = 0;
"8" = 0;
"9" = 0;
};
};
width = 473;
},
{
layerId = m002;
shapes = (
{
closed = 1;
nodes = (
(474,500,l),
(374,500,l),
(374,101,l),
(374,0,l),
(474,0,l)
);
},
{
closed = 1;
nodes = (
(160,500,l),
(60,500,l),
(60,187,ls),
(60,91,o),
(90,-8,o),
(230,-8,cs),
(368,-8,o),
(392,89,o),
(392,250,c),
(374,250,l),
(374,126,o),
(333,72,o),
(263,72,cs),
(190,72,o),
(160,131,o),
(160,187,c)
);
}
);
userData = {
com.hugojourdan.ColorFlow = {
"0" = 0;
"1" = 0;
"10" = 0;
"11" = 0;
"2" = 0;
"3" = 0;
"4" = 0;
"5" = 0;
"6" = 0;
"7" = 0;
"8" = 0;
"9" = 0;
};
};
width = 534;
},
{
associatedMasterId = m002;
layerId = "38AEED0F-3347-47EE-9FB8-CEEDD88CEBB7";
name = "19. Jul 23, 14:47 - old";
shapes = (
{
closed = 1;
nodes = (
(447,505,l),
(347,505,l),
(347,5,l),
(447,5,l)
);
},
{
closed = 1;
nodes = (
(130,505,l),
(30,505,l),
(30,167,ls),
(30,71,o),
(113,0,o),
(197,0,cs),
(284,0,o),
(358,93,o),
(358,211,c),
(347,204,l),
(347,151,o),
(291,80,o),
(236,80,cs),
(180,80,o),
(130,115,o),
(130,172,c)
);
}
);
userData = {
com.hugojourdan.ColorFlow = {
"0" = 0;
"1" = 0;
"10" = 0;
"11" = 0;
"2" = 0;
"3" = 0;
"4" = 0;
"5" = 0;
"6" = 0;
"7" = 0;
"8" = 0;
"9" = 0;
};
};
width = 473;
},
{
layerId = m003;
shapes = (
{
closed = 1;
nodes = (
(454,500,l),
(354,500,l),
(354,101,l),
(354,0,l),
(454,0,l)
);
},
{
closed = 1;
nodes = (
(140,500,l),
(40,500,l),
(40,187,ls),
(40,91,o),
(70,-8,o),
(210,-8,cs),
(348,-8,o),
(372,89,o),
(372,250,c),
(354,250,l),
(354,126,o),
(313,72,o),
(243,72,cs),
(170,72,o),
(140,131,o),
(140,187,c)
);
}
);
userData = {
com.hugojourdan.ColorFlow = {
"0" = 0;
"1" = 0;
"10" = 0;
"11" = 0;
"2" = 0;
"3" = 0;
"4" = 0;
"5" = 0;
"6" = 0;
"7" = 0;
"8" = 0;
"9" = 0;
};
};
width = 494;
},
{
associatedMasterId = m003;
layerId = "CECBC632-544C-4223-A0E6-795F0E8FCCDA";
name = "19. Jul 23, 14:47 - old";
shapes = (
{
closed = 1;
nodes = (
(447,505,l),
(347,505,l),
(347,5,l),
(447,5,l)
);
},
{
closed = 1;
nodes = (
(130,505,l),
(30,505,l),
(30,167,ls),
(30,71,o),
(113,0,o),
(197,0,cs),
(284,0,o),
(358,93,o),
(358,211,c),
(347,204,l),
(347,151,o),
(291,80,o),
(236,80,cs),
(180,80,o),
(130,115,o),
(130,172,c)
);
}
);
userData = {
com.hugojourdan.ColorFlow = {
"0" = 0;
"1" = 0;
"10" = 0;
"11" = 0;
"2" = 0;
"3" = 0;
"4" = 0;
"5" = 0;
"6" = 0;
"7" = 0;
"8" = 0;
"9" = 0;
};
};
width = 473;
}
);
metricLeft = "=n";
metricRight = "=n";
unicode = 117;
},
{
glyphname = v;
kernLeft = v;
kernRight = v;
layers = (
{
layerId = m01;
shapes = (
{
closed = 1;
nodes = (
(227,1,l),
(326,1,l),
(515,499,l),
(415,499,l),
(275,132,l),
(135,500,l),
(37,500,l)
);
}
);
userData = {
com.hugojourdan.ColorFlow = {
"0" = 0;
"1" = 0;
"10" = 0;
"11" = 0;
"2" = 0;
"3" = 0;
"4" = 0;
"5" = 0;
"6" = 0;
"7" = 0;
"8" = 0;
"9" = 0;
};
};
width = 552;
},
{
layerId = m002;
shapes = (
{
closed = 1;
nodes = (
(207,1,l),
(306,1,l),
(495,499,l),
(395,499,l),
(255,132,l),
(115,500,l),
(17,500,l)
);
}
);
userData = {
com.hugojourdan.ColorFlow = {
"0" = 0;
"1" = 0;
"10" = 0;
"11" = 0;
"2" = 0;
"3" = 0;
"4" = 0;
"5" = 0;
"6" = 0;
"7" = 0;
"8" = 0;
"9" = 0;
};
};
width = 512;
},
{
layerId = m003;
shapes = (
{
closed = 1;
nodes = (
(220,1,l),
(319,1,l),
(508,499,l),
(408,499,l),
(268,132,l),
(128,500,l),
(30,500,l)
);
}
);
userData = {
com.hugojourdan.ColorFlow = {
"0" = 0;
"1" = 0;
"10" = 0;
"11" = 0;
"2" = 0;
"3" = 0;
"4" = 0;
"5" = 0;
"6" = 0;
"7" = 0;
"8" = 0;
"9" = 0;
};
};
width = 538;
}
);
unicode = 118;
},
{
glyphname = w;
kernLeft = v;
kernRight = v;
layers = (
{
layerId = m01;
shapes = (
{
closed = 1;
nodes = (
(159,0,l),
(259,0,l),
(357,362,l),
(441,0,l),
(541,0,l),
(687,499,l),
(587,499,l),
(490,132,l),
(407,499,l),
(317,499,l),
(216,132,l),
(137,500,l),
(37,500,l)
);
}
);
userData = {
com.hugojourdan.ColorFlow = {
"0" = 0;
"1" = 0;
"10" = 0;
"11" = 0;
"2" = 0;
"3" = 0;
"4" = 0;
"5" = 0;
"6" = 0;
"7" = 0;
"8" = 0;
"9" = 0;
};
};
width = 724;
},
{
layerId = m002;
shapes = (
{
closed = 1;
nodes = (
(139,0,l),
(239,0,l),
(337,362,l),
(421,0,l),
(521,0,l),
(667,499,l),
(567,499,l),
(470,132,l),
(387,499,l),
(297,499,l),
(196,132,l),
(117,500,l),
(17,500,l)
);
}
);
userData = {
com.hugojourdan.ColorFlow = {
"0" = 0;
"1" = 0;
"10" = 0;
"11" = 0;
"2" = 0;
"3" = 0;
"4" = 0;
"5" = 0;
"6" = 0;
"7" = 0;
"8" = 0;
"9" = 0;
};
};
width = 684;
},
{
layerId = m003;
shapes = (
{
closed = 1;
nodes = (
(152,0,l),
(252,0,l),
(350,362,l),
(434,0,l),
(534,0,l),
(680,500,l),
(580,500,l),
(483,132,l),
(400,499,l),
(310,499,l),
(209,132,l),
(130,500,l),
(30,500,l)
);
}
);
userData = {
com.hugojourdan.ColorFlow = {
"0" = 0;
"1" = 0;
"10" = 0;
"11" = 0;
"2" = 0;
"3" = 0;
"4" = 0;
"5" = 0;
"6" = 0;
"7" = 0;
"8" = 0;
"9" = 0;
};
};
width = 710;
}
);
metricLeft = "=v";
metricRight = "=v";
unicode = 119;
},
{
glyphname = x;
kernLeft = x;
kernRight = x;
layers = (
{
layerId = m01;
shapes = (
{
closed = 1;
nodes = (
(213,250,l),
(39,0,l),
(146,0,l),
(277,180,l),
(406,0,l),
(509,0,l),
(340,250,l),
(507,499,l),
(401,499,l),
(277,310,l),
(143,499,l),
(37,499,l)
);
}
);
userData = {
com.hugojourdan.ColorFlow = {
"0" = 0;
"1" = 0;
"10" = 0;
"11" = 0;
"2" = 0;
"3" = 0;
"4" = 0;
"5" = 0;
"6" = 0;
"7" = 0;
"8" = 0;
"9" = 0;
};
};
width = 546;
},
{
layerId = m002;
shapes = (
{
closed = 1;
nodes = (
(193,250,l),
(19,0,l),
(126,0,l),
(257,180,l),
(386,0,l),
(489,0,l),
(320,250,l),
(487,499,l),
(381,499,l),
(257,310,l),
(123,499,l),
(17,499,l)
);
}
);
userData = {
com.hugojourdan.ColorFlow = {
"0" = 0;
"1" = 0;
"10" = 0;
"11" = 0;
"2" = 0;
"3" = 0;
"4" = 0;
"5" = 0;
"6" = 0;
"7" = 0;
"8" = 0;
"9" = 0;
};
};
width = 506;
},
{
layerId = m003;
shapes = (
{
closed = 1;
nodes = (
(206,250,l),
(32,0,l),
(139,0,l),
(270,180,l),
(399,0,l),
(502,0,l),
(333,250,l),
(500,499,l),
(394,499,l),
(270,310,l),
(136,499,l),
(30,499,l)
);
}
);
userData = {
com.hugojourdan.ColorFlow = {
"0" = 0;
"1" = 0;
"10" = 0;
"11" = 0;
"2" = 0;
"3" = 0;
"4" = 0;
"5" = 0;
"6" = 0;
"7" = 0;
"8" = 0;
"9" = 0;
};
};
width = 532;
}
);
metricLeft = "=v";
metricRight = "=v";
unicode = 120;
},
{
glyphname = y;
kernLeft = y;
kernRight = v;
layers = (
{
layerId = m01;
shapes = (
{
closed = 1;
nodes = (
(226,0,l),
(326,0,l),
(515,499,l),
(415,499,l),
(275,132,l),
(135,500,l),
(37,500,l)
);
},
{
closed = 1;
nodes = (
(226,0,l),
(224,-57,o),
(191,-125,o),
(127,-127,cs),
(100,-128,o),
(63,-118,o),
(42,-101,c),
(42,-181,l),
(68,-198,o),
(104,-208,o),
(137,-208,cs),
(232,-208,o),
(286,-115,o),
(326,0,c)
);
}
);
userData = {
com.hugojourdan.ColorFlow = {
"0" = 0;
"1" = 0;
"10" = 0;
"11" = 0;
"2" = 0;
"3" = 0;
"4" = 0;
"5" = 0;
"6" = 0;
"7" = 0;
"8" = 0;
"9" = 0;
};
};
width = 552;
},
{
layerId = m002;
shapes = (
{
closed = 1;
nodes = (
(206,0,l),
(306,0,l),
(495,499,l),
(395,499,l),
(255,132,l),
(115,500,l),
(17,500,l)
);
},
{
closed = 1;
nodes = (
(206,0,l),
(204,-57,o),
(171,-125,o),
(107,-127,cs),
(80,-128,o),
(43,-118,o),
(22,-101,c),
(22,-181,l),
(48,-198,o),
(84,-208,o),
(117,-208,cs),
(212,-208,o),
(266,-115,o),
(306,0,c)
);
}
);
userData = {
com.hugojourdan.ColorFlow = {
"0" = 0;
"1" = 0;
"10" = 0;
"11" = 0;
"2" = 0;
"3" = 0;
"4" = 0;
"5" = 0;
"6" = 0;
"7" = 0;
"8" = 0;
"9" = 0;
};
};
width = 512;
},
{
layerId = m003;
shapes = (
{
closed = 1;
nodes = (
(219,0,l),
(319,0,l),
(508,499,l),
(408,499,l),
(268,132,l),
(128,500,l),
(30,500,l)
);
},
{
closed = 1;
nodes = (
(219,0,l),
(217,-57,o),
(184,-125,o),
(120,-127,cs),
(93,-128,o),
(56,-118,o),
(35,-101,c),
(35,-181,l),
(61,-198,o),
(97,-208,o),
(130,-208,cs),
(225,-208,o),
(279,-115,o),
(319,0,c)
);
}
);
userData = {
com.hugojourdan.ColorFlow = {
"0" = 0;
"1" = 0;
"10" = 0;
"11" = 0;
"2" = 0;
"3" = 0;
"4" = 0;
"5" = 0;
"6" = 0;
"7" = 0;
"8" = 0;
"9" = 0;
};
};
width = 538;
}
);
metricLeft = "=v";
metricRight = "=v";
unicode = 121;
},
{
glyphname = z;
kernLeft = z;
kernRight = z;
layers = (
{
layerId = m01;
shapes = (
{
closed = 1;
nodes = (
(50,500,l),
(50,419,l),
(281,419,l),
(50,50,l),
(50,0,l),
(409,0,l),
(409,80,l),
(178,80,l),
(409,449,l),
(409,499,l)
);
}
);
userData = {
com.hugojourdan.ColorFlow = {
"0" = 0;
"1" = 0;
"10" = 0;
"11" = 0;
"2" = 0;
"3" = 0;
"4" = 0;
"5" = 0;
"6" = 0;
"7" = 0;
"8" = 0;
"9" = 0;
};
};
width = 459;
},
{
associatedMasterId = m01;
layerId = "E2F89B17-919D-4288-8AE5-7CABA35D0254";
name = "19. Jul 23, 17:15";
shapes = (
{
closed = 1;
nodes = (
(2,0,l),
(102,0,l),
(401,499,l),
(301,499,l)
);
},
{
closed = 1;
nodes = (
(22,500,l),
(22,419,l),
(273,419,l),
(337,499,l)
);
},
{
closed = 1;
nodes = (
(135,80,l),
(68,0,l),
(381,0,l),
(381,80,l)
);
}
);
userData = {
com.hugojourdan.ColorFlow = {
"0" = 0;
"1" = 0;
"10" = 0;
"11" = 0;
"2" = 0;
"3" = 0;
"4" = 0;
"5" = 0;
"6" = 0;
"7" = 0;
"8" = 0;
"9" = 0;
};
};
width = 401;
},
{
layerId = m002;
shapes = (
{
closed = 1;
nodes = (
(30,500,l),
(30,419,l),
(261,419,l),
(30,50,l),
(30,0,l),
(389,0,l),
(389,80,l),
(158,80,l),
(389,449,l),
(389,499,l)
);
}
);
userData = {
com.hugojourdan.ColorFlow = {
"0" = 0;
"1" = 0;
"10" = 0;
"11" = 0;
"2" = 0;
"3" = 0;
"4" = 0;
"5" = 0;
"6" = 0;
"7" = 0;
"8" = 0;
"9" = 0;
};
};
width = 419;
},
{
associatedMasterId = m002;
layerId = "66D0B4F5-6480-4071-B09C-DC208126FB3C";
name = "19. Jul 23, 17:15";
shapes = (
{
closed = 1;
nodes = (
(2,0,l),
(102,0,l),
(401,499,l),
(301,499,l)
);
},
{
closed = 1;
nodes = (
(22,500,l),
(22,419,l),
(273,419,l),
(337,499,l)
);
},
{
closed = 1;
nodes = (
(135,80,l),
(68,0,l),
(381,0,l),
(381,80,l)
);
}
);
userData = {
com.hugojourdan.ColorFlow = {
"0" = 0;
"1" = 0;
"10" = 0;
"11" = 0;
"2" = 0;
"3" = 0;
"4" = 0;
"5" = 0;
"6" = 0;
"7" = 0;
"8" = 0;
"9" = 0;
};
};
width = 401;
},
{
layerId = m003;
shapes = (
{
closed = 1;
nodes = (
(30,500,l),
(30,419,l),
(261,419,l),
(30,50,l),
(30,0,l),
(389,0,l),
(389,80,l),
(158,80,l),
(389,449,l),
(389,499,l)
);
}
);
userData = {
com.hugojourdan.ColorFlow = {
"0" = 0;
"1" = 0;
"10" = 0;
"11" = 0;
"2" = 0;
"3" = 0;
"4" = 0;
"5" = 0;
"6" = 0;
"7" = 0;
"8" = 0;
"9" = 0;
};
};
width = 419;
},
{
associatedMasterId = m003;
layerId = "0925D7E4-1AC1-4145-B289-4A01E82DC95D";
name = "19. Jul 23, 17:15";
shapes = (
{
closed = 1;
nodes = (
(2,0,l),
(102,0,l),
(401,499,l),
(301,499,l)
);
},
{
closed = 1;
nodes = (
(22,500,l),
(22,419,l),
(273,419,l),
(337,499,l)
);
},
{
closed = 1;
nodes = (
(135,80,l),
(68,0,l),
(381,0,l),
(381,80,l)
);
}
);
userData = {
com.hugojourdan.ColorFlow = {
"0" = 0;
"1" = 0;
"10" = 0;
"11" = 0;
"2" = 0;
"3" = 0;
"4" = 0;
"5" = 0;
"6" = 0;
"7" = 0;
"8" = 0;
"9" = 0;
};
};
width = 401;
}
);
unicode = 122;
},
